<svg width="1605" height="1605" viewBox="0 0 1605 1605" fill="none" xmlns="http://www.w3.org/2000/svg">
<g opacity="0.4" filter="url(#filter0_ddi_256_2591)">
<rect x="43" y="39" width="1519" height="1519" rx="460" fill="url(#paint0_radial_256_2591)"/>
<mask id="mask0_256_2591" style="mask-type:alpha" maskUnits="userSpaceOnUse" x="43" y="39" width="1519" height="1519">
<rect x="43" y="39" width="1519" height="1519" rx="460" fill="url(#paint1_radial_256_2591)"/>
</mask>
<g mask="url(#mask0_256_2591)">
<mask id="path-3-outside-1_256_2591" maskUnits="userSpaceOnUse" x="43.9893" y="380.148" width="1517" height="954" fill="black">
<rect fill="white" x="43.9893" y="380.148" width="1517" height="954"/>
<path fill-rule="evenodd" clip-rule="evenodd" d="M311.566 1323.79L310.812 1327.33H347.319C374.837 1329.47 404.627 1330.54 436.688 1330.54H1090.97L1092.22 1324.65C1154.35 1320.18 1207.41 1310.16 1251.39 1294.56C1313 1272.71 1361.6 1241.99 1397.2 1202.39C1432.8 1161.43 1460.18 1112.96 1479.35 1056.98C1499.88 1001 1517 939.552 1530.69 872.647C1538.9 834.416 1545.07 798.233 1549.17 764.097C1554.65 729.962 1557.39 698.558 1557.39 669.884C1557.39 608.441 1545.75 556.555 1522.47 514.228C1500.57 470.535 1461.55 437.765 1405.42 415.918C1374.37 403.834 1336.2 395.092 1290.91 389.692L1291.96 384.748L1231.85 384.748C1211.43 383.682 1189.88 383.148 1167.19 383.148H512.07L511.15 387.464C449.279 391.949 396.427 401.985 352.595 417.574C291.064 439.458 242.523 470.232 206.971 509.896C171.42 550.928 144.072 599.483 124.929 655.56C104.419 711.637 87.3266 773.185 73.6529 840.204C65.4488 878.501 59.2957 914.746 55.1936 948.939C49.7241 983.132 46.9893 1014.59 46.9893 1043.31C46.9893 1104.86 58.612 1156.83 81.8573 1199.23C103.735 1243 142.705 1275.83 198.767 1297.71C229.418 1309.68 267.018 1318.37 311.566 1323.79Z"/>
</mask>
<path d="M310.812 1327.33L307.878 1326.7L307.105 1330.33H310.812V1327.33ZM311.566 1323.79L314.5 1324.42L315.184 1321.21L311.928 1320.82L311.566 1323.79ZM347.319 1327.33L347.552 1324.34L347.436 1324.33H347.319V1327.33ZM1090.97 1330.54V1333.54H1093.4L1093.91 1331.16L1090.97 1330.54ZM1092.22 1324.65L1092.01 1321.65L1089.76 1321.82L1089.29 1324.02L1092.22 1324.65ZM1251.39 1294.56L1252.39 1297.39L1252.39 1297.39L1251.39 1294.56ZM1397.2 1202.39L1399.43 1204.4L1399.45 1204.38L1399.47 1204.36L1397.2 1202.39ZM1479.35 1056.98L1476.53 1055.94L1476.52 1055.97L1476.51 1056.01L1479.35 1056.98ZM1530.69 872.647L1527.76 872.017L1527.75 872.032L1527.75 872.046L1530.69 872.647ZM1549.17 764.097L1546.21 763.622L1546.2 763.68L1546.19 763.739L1549.17 764.097ZM1522.47 514.228L1519.79 515.572L1519.82 515.623L1519.85 515.673L1522.47 514.228ZM1405.42 415.918L1406.5 413.122L1406.5 413.122L1405.42 415.918ZM1290.91 389.692L1287.97 389.069L1287.29 392.282L1290.55 392.671L1290.91 389.692ZM1291.96 384.748L1294.89 385.372L1295.66 381.748L1291.96 381.748L1291.96 384.748ZM1231.85 384.748L1231.69 387.744L1231.77 387.748L1231.85 387.748L1231.85 384.748ZM512.07 383.148V380.148H509.642L509.136 382.523L512.07 383.148ZM511.15 387.464L511.367 390.457L513.615 390.294L514.084 388.09L511.15 387.464ZM352.595 417.574L353.601 420.401L353.601 420.401L352.595 417.574ZM206.971 509.896L204.737 507.894L204.72 507.913L204.704 507.932L206.971 509.896ZM124.929 655.56L127.747 656.59L127.758 656.56L127.768 656.529L124.929 655.56ZM73.6529 840.204L76.5864 840.832L76.5895 840.818L76.5924 840.804L73.6529 840.204ZM55.1936 948.939L58.1559 949.413L58.1652 949.355L58.1722 949.296L55.1936 948.939ZM81.8573 1199.23L84.5407 1197.89L84.5152 1197.84L84.4879 1197.79L81.8573 1199.23ZM198.767 1297.71L197.676 1300.51L197.676 1300.51L198.767 1297.71ZM313.746 1327.95L314.5 1324.42L308.632 1323.17L307.878 1326.7L313.746 1327.95ZM347.319 1324.33H310.812V1330.33H347.319V1324.33ZM436.688 1327.54C404.692 1327.54 374.981 1326.47 347.552 1324.34L347.087 1330.32C374.693 1332.47 404.561 1333.54 436.688 1333.54V1327.54ZM1090.97 1327.54H436.688V1333.54H1090.97V1327.54ZM1089.29 1324.02L1088.04 1329.91L1093.91 1331.16L1095.16 1325.27L1089.29 1324.02ZM1250.39 1291.73C1206.73 1307.21 1153.95 1317.21 1092.01 1321.65L1092.44 1327.64C1154.75 1323.16 1208.09 1313.1 1252.39 1297.39L1250.39 1291.73ZM1394.97 1200.39C1359.78 1239.54 1311.63 1270.01 1250.39 1291.73L1252.39 1297.39C1314.37 1275.41 1363.43 1244.44 1399.43 1204.4L1394.97 1200.39ZM1476.51 1056.01C1457.46 1111.65 1430.26 1159.78 1394.94 1200.43L1399.47 1204.36C1435.34 1163.08 1462.9 1114.26 1482.19 1057.95L1476.51 1056.01ZM1527.75 872.046C1514.09 938.825 1497.01 1000.12 1476.53 1055.94L1482.16 1058.01C1502.76 1001.87 1519.91 940.28 1533.63 873.249L1527.75 872.046ZM1546.19 763.739C1542.1 797.772 1535.95 833.864 1527.76 872.017L1533.62 873.278C1541.85 834.968 1548.03 798.694 1552.15 764.456L1546.19 763.739ZM1554.39 669.884C1554.39 698.37 1551.67 729.613 1546.21 763.622L1552.13 764.573C1557.63 730.311 1560.39 698.745 1560.39 669.884H1554.39ZM1519.85 515.673C1542.82 557.453 1554.39 608.812 1554.39 669.884H1560.39C1560.39 608.07 1548.68 555.657 1525.1 512.782L1519.85 515.673ZM1404.33 418.714C1459.94 440.356 1498.29 472.689 1519.79 515.572L1525.16 512.883C1502.84 468.38 1463.16 435.173 1406.5 413.122L1404.33 418.714ZM1290.55 392.671C1335.68 398.051 1373.58 406.748 1404.33 418.714L1406.5 413.122C1375.15 400.92 1336.72 392.133 1291.26 386.713L1290.55 392.671ZM1289.02 384.125L1287.97 389.069L1293.84 390.316L1294.89 385.372L1289.02 384.125ZM1231.85 387.748L1291.96 387.748L1291.96 381.748L1231.85 381.748L1231.85 387.748ZM1167.19 386.148C1189.83 386.148 1211.33 386.681 1231.69 387.744L1232 381.752C1211.53 380.683 1189.93 380.148 1167.19 380.148V386.148ZM512.07 386.148H1167.19V380.148H512.07V386.148ZM514.084 388.09L515.004 383.774L509.136 382.523L508.216 386.839L514.084 388.09ZM353.601 420.401C397.11 404.926 449.681 394.927 511.367 390.457L510.933 384.472C448.876 388.97 395.744 399.044 351.59 414.747L353.601 420.401ZM209.205 511.898C244.355 472.682 292.436 442.154 353.601 420.401L351.59 414.747C289.692 436.761 240.691 467.781 204.737 507.894L209.205 511.898ZM127.768 656.529C146.798 600.784 173.962 552.575 209.238 511.861L204.704 507.932C168.877 549.281 141.346 598.182 122.09 654.591L127.768 656.529ZM76.5924 840.804C90.2404 773.91 107.294 712.509 127.747 656.59L122.112 654.529C101.543 710.765 84.4128 772.459 70.7135 839.604L76.5924 840.804ZM58.1722 949.296C62.2621 915.205 68.3989 879.051 76.5864 840.832L70.7195 839.576C62.4987 877.95 56.3293 914.286 52.2149 948.582L58.1722 949.296ZM49.9893 1043.31C49.9893 1014.78 52.7066 983.48 58.1559 949.413L52.2312 948.465C46.7416 982.784 43.9893 1014.4 43.9893 1043.31H49.9893ZM84.4879 1197.79C61.5423 1155.94 49.9893 1104.49 49.9893 1043.31H43.9893C43.9893 1105.23 55.6817 1157.73 79.2267 1200.68L84.4879 1197.79ZM199.858 1294.92C144.322 1273.24 106.014 1240.85 84.5407 1197.89L79.1739 1200.58C101.456 1245.15 141.088 1278.42 197.676 1300.51L199.858 1294.92ZM311.928 1320.82C267.546 1315.41 230.208 1306.76 199.858 1294.92L197.676 1300.51C228.629 1312.59 266.489 1321.33 311.203 1326.77L311.928 1320.82Z" fill="url(#paint2_linear_256_2591)" mask="url(#path-3-outside-1_256_2591)"/>
<mask id="path-5-outside-2_256_2591" maskUnits="userSpaceOnUse" x="43.9893" y="647.16" width="1517" height="954" fill="black">
<rect fill="white" x="43.9893" y="647.16" width="1517" height="954"/>
<path fill-rule="evenodd" clip-rule="evenodd" d="M311.566 1590.8L310.812 1594.34H347.319C374.837 1596.48 404.627 1597.55 436.688 1597.55H1090.97L1092.22 1591.66C1154.35 1587.2 1207.41 1577.17 1251.39 1561.57C1313 1539.72 1361.6 1509 1397.2 1469.41C1432.8 1428.44 1460.18 1379.97 1479.35 1323.99C1499.88 1268.01 1517 1206.56 1530.69 1139.66C1538.9 1101.43 1545.07 1065.24 1549.17 1031.11C1554.65 996.974 1557.39 965.57 1557.39 936.896C1557.39 875.453 1545.75 823.567 1522.47 781.239C1500.57 737.546 1461.55 704.776 1405.42 682.93C1374.37 670.846 1336.2 662.104 1290.91 656.704L1291.96 651.76L1231.85 651.76C1211.43 650.693 1189.88 650.16 1167.19 650.16H512.07L511.15 654.476C449.279 658.96 396.427 668.997 352.595 684.586C291.064 706.469 242.523 737.243 206.971 776.908C171.42 817.94 144.072 866.494 124.929 922.572C104.419 978.649 87.3266 1040.2 73.6529 1107.22C65.4488 1145.51 59.2957 1181.76 55.1936 1215.95C49.7241 1250.14 46.9893 1281.6 46.9893 1310.32C46.9893 1371.87 58.612 1423.85 81.8573 1466.25C103.735 1510.01 142.705 1542.84 198.767 1564.72C229.418 1576.69 267.018 1585.38 311.566 1590.8Z"/>
</mask>
<path d="M310.812 1594.34L307.878 1593.71L307.105 1597.34H310.812V1594.34ZM311.566 1590.8L314.5 1591.43L315.184 1588.22L311.928 1587.83L311.566 1590.8ZM347.319 1594.34L347.552 1591.35L347.436 1591.34H347.319V1594.34ZM1090.97 1597.55V1600.55H1093.4L1093.91 1598.17L1090.97 1597.55ZM1092.22 1591.66L1092.01 1588.67L1089.76 1588.83L1089.29 1591.03L1092.22 1591.66ZM1251.39 1561.57L1252.39 1564.4L1252.39 1564.4L1251.39 1561.57ZM1397.2 1469.41L1399.43 1471.41L1399.45 1471.39L1399.47 1471.37L1397.2 1469.41ZM1479.35 1323.99L1476.53 1322.96L1476.52 1322.99L1476.51 1323.02L1479.35 1323.99ZM1530.69 1139.66L1527.76 1139.03L1527.75 1139.04L1527.75 1139.06L1530.69 1139.66ZM1549.17 1031.11L1546.21 1030.63L1546.2 1030.69L1546.19 1030.75L1549.17 1031.11ZM1522.47 781.239L1519.79 782.584L1519.82 782.635L1519.85 782.685L1522.47 781.239ZM1405.42 682.93L1406.5 680.134L1406.5 680.134L1405.42 682.93ZM1290.91 656.704L1287.97 656.08L1287.29 659.294L1290.55 659.683L1290.91 656.704ZM1291.96 651.76L1294.89 652.384L1295.66 648.76L1291.96 648.76L1291.96 651.76ZM1231.85 651.76L1231.69 654.756L1231.77 654.76L1231.85 654.76L1231.85 651.76ZM512.07 650.16V647.16H509.642L509.136 649.535L512.07 650.16ZM511.15 654.476L511.367 657.468L513.615 657.305L514.084 655.102L511.15 654.476ZM352.595 684.586L353.601 687.412L353.601 687.412L352.595 684.586ZM206.971 776.908L204.737 774.905L204.72 774.924L204.704 774.943L206.971 776.908ZM124.929 922.572L127.747 923.602L127.758 923.572L127.768 923.541L124.929 922.572ZM73.6529 1107.22L76.5864 1107.84L76.5895 1107.83L76.5924 1107.82L73.6529 1107.22ZM55.1936 1215.95L58.1559 1216.42L58.1652 1216.37L58.1722 1216.31L55.1936 1215.95ZM81.8573 1466.25L84.5407 1464.9L84.5152 1464.85L84.4879 1464.8L81.8573 1466.25ZM198.767 1564.72L197.676 1567.52L197.676 1567.52L198.767 1564.72ZM313.746 1594.97L314.5 1591.43L308.632 1590.18L307.878 1593.71L313.746 1594.97ZM347.319 1591.34H310.812V1597.34H347.319V1591.34ZM436.688 1594.55C404.692 1594.55 374.981 1593.48 347.552 1591.35L347.087 1597.33C374.693 1599.48 404.561 1600.55 436.688 1600.55V1594.55ZM1090.97 1594.55H436.688V1600.55H1090.97V1594.55ZM1089.29 1591.03L1088.04 1596.93L1093.91 1598.17L1095.16 1592.28L1089.29 1591.03ZM1250.39 1558.74C1206.73 1574.23 1153.95 1584.22 1092.01 1588.67L1092.44 1594.65C1154.75 1590.18 1208.09 1580.11 1252.39 1564.4L1250.39 1558.74ZM1394.97 1467.4C1359.78 1506.55 1311.63 1537.03 1250.39 1558.74L1252.39 1564.4C1314.37 1542.42 1363.43 1511.46 1399.43 1471.41L1394.97 1467.4ZM1476.51 1323.02C1457.46 1378.67 1430.26 1426.79 1394.94 1467.44L1399.47 1471.37C1435.34 1430.09 1462.9 1381.28 1482.19 1324.96L1476.51 1323.02ZM1527.75 1139.06C1514.09 1205.84 1497.01 1267.13 1476.53 1322.96L1482.16 1325.02C1502.76 1268.88 1519.91 1207.29 1533.63 1140.26L1527.75 1139.06ZM1546.19 1030.75C1542.1 1064.78 1535.95 1100.88 1527.76 1139.03L1533.62 1140.29C1541.85 1101.98 1548.03 1065.71 1552.15 1031.47L1546.19 1030.75ZM1554.39 936.896C1554.39 965.382 1551.67 996.625 1546.21 1030.63L1552.13 1031.58C1557.63 997.323 1560.39 965.757 1560.39 936.896H1554.39ZM1519.85 782.685C1542.82 824.465 1554.39 875.823 1554.39 936.896H1560.39C1560.39 875.082 1548.68 822.669 1525.1 779.794L1519.85 782.685ZM1404.33 685.726C1459.94 707.368 1498.29 739.701 1519.79 782.584L1525.16 779.895C1502.84 735.392 1463.16 702.185 1406.5 680.134L1404.33 685.726ZM1290.55 659.683C1335.68 665.063 1373.58 673.76 1404.33 685.726L1406.5 680.134C1375.15 667.932 1336.72 659.145 1291.26 653.725L1290.55 659.683ZM1289.02 651.136L1287.97 656.08L1293.84 657.328L1294.89 652.384L1289.02 651.136ZM1231.85 654.76L1291.96 654.76L1291.96 648.76L1231.85 648.76L1231.85 654.76ZM1167.19 653.16C1189.83 653.16 1211.33 653.692 1231.69 654.756L1232 648.764C1211.53 647.695 1189.93 647.16 1167.19 647.16V653.16ZM512.07 653.16H1167.19V647.16H512.07V653.16ZM514.084 655.102L515.004 650.786L509.136 649.535L508.216 653.851L514.084 655.102ZM353.601 687.412C397.11 671.938 449.681 661.939 511.367 657.468L510.933 651.484C448.876 655.982 395.744 666.056 351.59 681.759L353.601 687.412ZM209.205 778.91C244.355 739.694 292.436 709.166 353.601 687.412L351.59 681.759C289.692 703.773 240.691 734.793 204.737 774.905L209.205 778.91ZM127.768 923.541C146.798 867.795 173.962 819.587 209.238 778.872L204.704 774.943C168.877 816.293 141.346 865.193 122.09 921.602L127.768 923.541ZM76.5924 1107.82C90.2404 1040.92 107.294 979.52 127.747 923.602L122.112 921.541C101.543 977.777 84.4128 1039.47 70.7135 1106.62L76.5924 1107.82ZM58.1722 1216.31C62.2621 1182.22 68.3989 1146.06 76.5864 1107.84L70.7195 1106.59C62.4987 1144.96 56.3293 1181.3 52.2149 1215.59L58.1722 1216.31ZM49.9893 1310.32C49.9893 1281.79 52.7066 1250.49 58.1559 1216.42L52.2312 1215.48C46.7416 1249.8 43.9893 1281.41 43.9893 1310.32H49.9893ZM84.4879 1464.8C61.5423 1422.95 49.9893 1371.5 49.9893 1310.32H43.9893C43.9893 1372.24 55.6817 1424.74 79.2267 1467.69L84.4879 1464.8ZM199.858 1561.93C144.322 1540.25 106.014 1507.86 84.5407 1464.9L79.1739 1467.59C101.456 1512.16 141.088 1545.43 197.676 1567.52L199.858 1561.93ZM311.928 1587.83C267.546 1582.42 230.208 1573.78 199.858 1561.93L197.676 1567.52C228.629 1579.6 266.489 1588.34 311.203 1593.78L311.928 1587.83Z" fill="url(#paint3_linear_256_2591)" mask="url(#path-5-outside-2_256_2591)"/>
<mask id="path-7-outside-3_256_2591" maskUnits="userSpaceOnUse" x="43.9888" y="963.632" width="1517" height="954" fill="black">
<rect fill="white" x="43.9888" y="963.632" width="1517" height="954"/>
<path fill-rule="evenodd" clip-rule="evenodd" d="M311.566 1907.27L310.812 1910.81H347.348C374.858 1912.95 404.637 1914.02 436.688 1914.02H1090.97L1092.22 1908.13C1154.35 1903.67 1207.41 1893.64 1251.39 1878.04C1313 1856.2 1361.6 1825.47 1397.2 1785.88C1432.8 1744.91 1460.18 1696.44 1479.35 1640.46C1499.88 1584.48 1517 1523.04 1530.69 1456.13C1538.9 1417.9 1545.07 1381.72 1549.17 1347.58C1554.65 1313.45 1557.39 1282.04 1557.39 1253.37C1557.39 1191.92 1545.75 1140.04 1522.47 1097.71C1500.57 1054.02 1461.55 1021.25 1405.42 999.402C1374.37 987.318 1336.2 978.576 1290.9 973.176L1291.96 968.229H1231.8C1211.4 967.164 1189.86 966.632 1167.19 966.632H512.07L511.151 970.946C449.279 975.43 396.427 985.466 352.595 1001.06C291.063 1022.94 242.522 1053.71 206.971 1093.38C171.419 1134.41 144.072 1182.96 124.929 1239.04C104.418 1295.12 87.3261 1356.67 73.6525 1423.69C65.4483 1461.98 59.2952 1498.23 55.1931 1532.42C49.7236 1566.61 46.9888 1598.07 46.9888 1626.79C46.9888 1688.34 58.6115 1740.32 81.8568 1782.72C103.735 1826.48 142.705 1859.31 198.766 1881.19C229.418 1893.16 267.018 1901.85 311.566 1907.27Z"/>
</mask>
<path d="M310.812 1910.81L307.878 1910.19L307.105 1913.81H310.812V1910.81ZM311.566 1907.27L314.5 1907.9L315.184 1904.69L311.929 1904.3L311.566 1907.27ZM347.348 1910.81L347.58 1907.82L347.464 1907.81H347.348V1910.81ZM1090.97 1914.02V1917.02H1093.4L1093.91 1914.64L1090.97 1914.02ZM1092.22 1908.13L1092.01 1905.14L1089.76 1905.3L1089.29 1907.51L1092.22 1908.13ZM1251.39 1878.04L1252.39 1880.87L1252.39 1880.87L1251.39 1878.04ZM1397.2 1785.88L1399.43 1787.88L1399.45 1787.86L1399.47 1787.84L1397.2 1785.88ZM1479.35 1640.46L1476.53 1639.43L1476.52 1639.46L1476.51 1639.49L1479.35 1640.46ZM1530.69 1456.13L1527.76 1455.5L1527.75 1455.51L1527.75 1455.53L1530.69 1456.13ZM1549.17 1347.58L1546.21 1347.11L1546.2 1347.16L1546.19 1347.22L1549.17 1347.58ZM1522.47 1097.71L1519.79 1099.06L1519.82 1099.11L1519.85 1099.16L1522.47 1097.71ZM1405.42 999.402L1406.5 996.606L1406.5 996.606L1405.42 999.402ZM1290.9 973.176L1287.97 972.552L1287.29 975.766L1290.55 976.155L1290.9 973.176ZM1291.96 968.229L1294.89 968.853L1295.66 965.229H1291.96V968.229ZM1231.8 968.229L1231.65 971.225L1231.72 971.229H1231.8V968.229ZM512.07 966.632V963.632H509.642L509.136 966.006L512.07 966.632ZM511.151 970.946L511.367 973.938L513.615 973.775L514.085 971.571L511.151 970.946ZM352.595 1001.06L353.6 1003.88L353.6 1003.88L352.595 1001.06ZM206.971 1093.38L204.737 1091.37L204.72 1091.39L204.703 1091.41L206.971 1093.38ZM124.929 1239.04L127.746 1240.07L127.757 1240.04L127.768 1240.01L124.929 1239.04ZM73.6525 1423.69L76.5859 1424.31L76.589 1424.3L76.5919 1424.28L73.6525 1423.69ZM55.1931 1532.42L58.1554 1532.89L58.1647 1532.84L58.1717 1532.78L55.1931 1532.42ZM81.8568 1782.72L84.5402 1781.37L84.5148 1781.32L84.4874 1781.27L81.8568 1782.72ZM198.766 1881.19L197.676 1883.99L197.676 1883.99L198.766 1881.19ZM313.746 1911.44L314.5 1907.9L308.632 1906.65L307.878 1910.19L313.746 1911.44ZM347.348 1907.81H310.812V1913.81H347.348V1907.81ZM436.688 1911.02C404.703 1911.02 375.001 1909.95 347.58 1907.82L347.116 1913.8C374.714 1915.95 404.572 1917.02 436.688 1917.02V1911.02ZM1090.97 1911.02H436.688V1917.02H1090.97V1911.02ZM1089.29 1907.51L1088.04 1913.39L1093.91 1914.64L1095.16 1908.75L1089.29 1907.51ZM1250.39 1875.21C1206.73 1890.7 1153.95 1900.69 1092.01 1905.14L1092.44 1911.12C1154.75 1906.65 1208.09 1896.58 1252.39 1880.87L1250.39 1875.21ZM1394.97 1783.87C1359.78 1823.02 1311.63 1853.5 1250.39 1875.21L1252.39 1880.87C1314.37 1858.89 1363.43 1827.93 1399.43 1787.88L1394.97 1783.87ZM1476.51 1639.49C1457.46 1695.14 1430.26 1743.26 1394.94 1783.91L1399.47 1787.84C1435.34 1746.57 1462.9 1697.75 1482.19 1641.43L1476.51 1639.49ZM1527.75 1455.53C1514.09 1522.31 1497.01 1583.61 1476.53 1639.43L1482.16 1641.49C1502.76 1585.35 1519.91 1523.76 1533.63 1456.73L1527.75 1455.53ZM1546.19 1347.22C1542.1 1381.25 1535.95 1417.35 1527.76 1455.5L1533.62 1456.76C1541.85 1418.45 1548.03 1382.18 1552.15 1347.94L1546.19 1347.22ZM1554.39 1253.37C1554.39 1281.85 1551.67 1313.1 1546.21 1347.11L1552.13 1348.06C1557.63 1313.79 1560.39 1282.23 1560.39 1253.37H1554.39ZM1519.85 1099.16C1542.82 1140.94 1554.39 1192.3 1554.39 1253.37H1560.39C1560.39 1191.55 1548.68 1139.14 1525.1 1096.27L1519.85 1099.16ZM1404.33 1002.2C1459.94 1023.84 1498.29 1056.17 1519.79 1099.06L1525.16 1096.37C1502.84 1051.86 1463.16 1018.66 1406.5 996.606L1404.33 1002.2ZM1290.55 976.155C1335.68 981.535 1373.58 990.232 1404.33 1002.2L1406.5 996.606C1375.15 984.403 1336.72 975.616 1291.26 970.197L1290.55 976.155ZM1289.02 967.606L1287.97 972.552L1293.84 973.799L1294.89 968.853L1289.02 967.606ZM1231.8 971.229H1291.96V965.229H1231.8V971.229ZM1167.19 969.632C1189.82 969.632 1211.3 970.163 1231.65 971.225L1231.96 965.233C1211.5 964.165 1189.91 963.632 1167.19 963.632V969.632ZM512.07 969.632H1167.19V963.632H512.07V969.632ZM514.085 971.571L515.004 967.257L509.136 966.006L508.217 970.32L514.085 971.571ZM353.6 1003.88C397.109 988.408 449.681 978.408 511.367 973.938L510.934 967.953C448.876 972.451 395.744 982.525 351.59 998.229L353.6 1003.88ZM209.205 1095.38C244.354 1056.16 292.435 1025.64 353.6 1003.88L351.59 998.229C289.692 1020.24 240.69 1051.26 204.737 1091.37L209.205 1095.38ZM127.768 1240.01C146.798 1184.26 173.962 1136.06 209.238 1095.34L204.703 1091.41C168.877 1132.76 141.346 1181.66 122.09 1238.07L127.768 1240.01ZM76.5919 1424.28C90.2399 1357.39 107.294 1295.99 127.746 1240.07L122.111 1238.01C101.543 1294.25 84.4123 1355.94 70.713 1423.09L76.5919 1424.28ZM58.1717 1532.78C62.2616 1498.69 68.3984 1462.53 76.5859 1424.31L70.719 1423.06C62.4982 1461.43 56.3289 1497.77 52.2145 1532.06L58.1717 1532.78ZM49.9888 1626.79C49.9888 1598.26 52.7061 1566.96 58.1554 1532.89L52.2308 1531.95C46.7411 1566.27 43.9888 1597.88 43.9888 1626.79H49.9888ZM84.4874 1781.27C61.5419 1739.42 49.9888 1687.97 49.9888 1626.79H43.9888C43.9888 1688.71 55.6812 1741.21 79.2262 1784.16L84.4874 1781.27ZM199.857 1878.4C144.321 1856.72 106.014 1824.33 84.5402 1781.37L79.1734 1784.06C101.456 1828.63 141.088 1861.9 197.676 1883.99L199.857 1878.4ZM311.929 1904.3C267.546 1898.89 230.207 1890.24 199.857 1878.4L197.676 1883.99C228.628 1896.07 266.489 1904.81 311.204 1910.25L311.929 1904.3Z" fill="url(#paint4_linear_256_2591)" mask="url(#path-7-outside-3_256_2591)"/>
<mask id="path-9-outside-4_256_2591" maskUnits="userSpaceOnUse" x="43.9888" y="1260.31" width="1517" height="954" fill="black">
<rect fill="white" x="43.9888" y="1260.31" width="1517" height="954"/>
<path fill-rule="evenodd" clip-rule="evenodd" d="M311.566 2203.95L310.812 2207.49H347.348C374.858 2209.63 404.637 2210.7 436.688 2210.7H1090.97L1092.22 2204.81C1154.35 2200.35 1207.41 2190.32 1251.39 2174.72C1313 2152.88 1361.6 2122.15 1397.2 2082.56C1432.8 2041.59 1460.18 1993.12 1479.35 1937.14C1499.88 1881.16 1517 1819.72 1530.69 1752.81C1538.9 1714.58 1545.07 1678.4 1549.17 1644.26C1554.65 1610.13 1557.39 1578.72 1557.39 1550.05C1557.39 1488.6 1545.75 1436.72 1522.47 1394.39C1500.57 1350.7 1461.55 1317.93 1405.42 1296.08C1374.37 1284 1336.2 1275.26 1290.9 1269.86L1291.96 1264.91H1231.8C1211.4 1263.84 1189.86 1263.31 1167.19 1263.31H512.07L511.151 1267.63C449.279 1272.11 396.427 1282.15 352.595 1297.73C291.063 1319.62 242.522 1350.39 206.971 1390.06C171.419 1431.09 144.072 1479.64 124.929 1535.72C104.418 1591.8 87.3261 1653.35 73.6525 1720.36C65.4483 1758.66 59.2952 1794.91 55.1931 1829.1C49.7236 1863.29 46.9888 1894.75 46.9888 1923.47C46.9888 1985.02 58.6115 2037 81.8568 2079.4C103.735 2123.16 142.705 2155.99 198.766 2177.87C229.418 2189.84 267.018 2198.53 311.566 2203.95Z"/>
</mask>
<path d="M310.812 2207.49L307.878 2206.87L307.105 2210.49H310.812V2207.49ZM311.566 2203.95L314.5 2204.58L315.184 2201.37L311.929 2200.98L311.566 2203.95ZM347.348 2207.49L347.58 2204.5L347.464 2204.49H347.348V2207.49ZM1090.97 2210.7V2213.7H1093.4L1093.91 2211.32L1090.97 2210.7ZM1092.22 2204.81L1092.01 2201.82L1089.76 2201.98L1089.29 2204.19L1092.22 2204.81ZM1251.39 2174.72L1252.39 2177.55L1252.39 2177.55L1251.39 2174.72ZM1397.2 2082.56L1399.43 2084.56L1399.45 2084.54L1399.47 2084.52L1397.2 2082.56ZM1479.35 1937.14L1476.53 1936.11L1476.52 1936.14L1476.51 1936.17L1479.35 1937.14ZM1530.69 1752.81L1527.76 1752.18L1527.75 1752.19L1527.75 1752.21L1530.69 1752.81ZM1549.17 1644.26L1546.21 1643.79L1546.2 1643.84L1546.19 1643.9L1549.17 1644.26ZM1522.47 1394.39L1519.79 1395.74L1519.82 1395.79L1519.85 1395.84L1522.47 1394.39ZM1405.42 1296.08L1406.5 1293.29L1406.5 1293.29L1405.42 1296.08ZM1290.9 1269.86L1287.97 1269.23L1287.29 1272.45L1290.55 1272.83L1290.9 1269.86ZM1291.96 1264.91L1294.89 1265.53L1295.66 1261.91H1291.96V1264.91ZM1231.8 1264.91L1231.65 1267.91L1231.72 1267.91H1231.8V1264.91ZM512.07 1263.31V1260.31H509.642L509.136 1262.69L512.07 1263.31ZM511.151 1267.63L511.367 1270.62L513.615 1270.45L514.085 1268.25L511.151 1267.63ZM352.595 1297.73L353.6 1300.56L353.6 1300.56L352.595 1297.73ZM206.971 1390.06L204.737 1388.05L204.72 1388.07L204.703 1388.09L206.971 1390.06ZM124.929 1535.72L127.746 1536.75L127.757 1536.72L127.768 1536.69L124.929 1535.72ZM73.6525 1720.36L76.5859 1720.99L76.589 1720.98L76.5919 1720.96L73.6525 1720.36ZM55.1931 1829.1L58.1554 1829.57L58.1647 1829.52L58.1717 1829.46L55.1931 1829.1ZM81.8568 2079.4L84.5402 2078.05L84.5148 2078L84.4874 2077.95L81.8568 2079.4ZM198.766 2177.87L197.676 2180.67L197.676 2180.67L198.766 2177.87ZM313.746 2208.12L314.5 2204.58L308.632 2203.33L307.878 2206.87L313.746 2208.12ZM347.348 2204.49H310.812V2210.49H347.348V2204.49ZM436.688 2207.7C404.703 2207.7 375.001 2206.63 347.58 2204.5L347.116 2210.48C374.714 2212.63 404.572 2213.7 436.688 2213.7V2207.7ZM1090.97 2207.7H436.688V2213.7H1090.97V2207.7ZM1089.29 2204.19L1088.04 2210.07L1093.91 2211.32L1095.16 2205.43L1089.29 2204.19ZM1250.39 2171.89C1206.73 2187.38 1153.95 2197.37 1092.01 2201.82L1092.44 2207.8C1154.75 2203.33 1208.09 2193.26 1252.39 2177.55L1250.39 2171.89ZM1394.97 2080.55C1359.78 2119.7 1311.63 2150.18 1250.39 2171.89L1252.39 2177.55C1314.37 2155.57 1363.43 2124.61 1399.43 2084.56L1394.97 2080.55ZM1476.51 1936.17C1457.46 1991.82 1430.26 2039.94 1394.94 2080.59L1399.47 2084.52C1435.34 2043.24 1462.9 1994.43 1482.19 1938.11L1476.51 1936.17ZM1527.75 1752.21C1514.09 1818.99 1497.01 1880.28 1476.53 1936.11L1482.16 1938.17C1502.76 1882.03 1519.91 1820.44 1533.63 1753.41L1527.75 1752.21ZM1546.19 1643.9C1542.1 1677.93 1535.95 1714.03 1527.76 1752.18L1533.62 1753.44C1541.85 1715.13 1548.03 1678.86 1552.15 1644.62L1546.19 1643.9ZM1554.39 1550.05C1554.39 1578.53 1551.67 1609.78 1546.21 1643.79L1552.13 1644.74C1557.63 1610.47 1560.39 1578.91 1560.39 1550.05H1554.39ZM1519.85 1395.84C1542.82 1437.62 1554.39 1488.97 1554.39 1550.05H1560.39C1560.39 1488.23 1548.68 1435.82 1525.1 1392.95L1519.85 1395.84ZM1404.33 1298.88C1459.94 1320.52 1498.29 1352.85 1519.79 1395.74L1525.16 1393.05C1502.84 1348.54 1463.16 1315.34 1406.5 1293.29L1404.33 1298.88ZM1290.55 1272.83C1335.68 1278.21 1373.58 1286.91 1404.33 1298.88L1406.5 1293.29C1375.15 1281.08 1336.72 1272.3 1291.26 1266.88L1290.55 1272.83ZM1289.02 1264.29L1287.97 1269.23L1293.84 1270.48L1294.89 1265.53L1289.02 1264.29ZM1231.8 1267.91H1291.96V1261.91H1231.8V1267.91ZM1167.19 1266.31C1189.82 1266.31 1211.3 1266.84 1231.65 1267.91L1231.96 1261.91C1211.5 1260.85 1189.91 1260.31 1167.19 1260.31V1266.31ZM512.07 1266.31H1167.19V1260.31H512.07V1266.31ZM514.085 1268.25L515.004 1263.94L509.136 1262.69L508.217 1267L514.085 1268.25ZM353.6 1300.56C397.109 1285.09 449.681 1275.09 511.367 1270.62L510.934 1264.63C448.876 1269.13 395.744 1279.2 351.59 1294.91L353.6 1300.56ZM209.205 1392.06C244.354 1352.84 292.435 1322.31 353.6 1300.56L351.59 1294.91C289.692 1316.92 240.69 1347.94 204.737 1388.05L209.205 1392.06ZM127.768 1536.69C146.798 1480.94 173.962 1432.74 209.238 1392.02L204.703 1388.09C168.877 1429.44 141.346 1478.34 122.09 1534.75L127.768 1536.69ZM76.5919 1720.96C90.2399 1654.07 107.294 1592.67 127.746 1536.75L122.111 1534.69C101.543 1590.93 84.4123 1652.62 70.713 1719.77L76.5919 1720.96ZM58.1717 1829.46C62.2616 1795.37 68.3984 1759.21 76.5859 1720.99L70.719 1719.74C62.4982 1758.11 56.3289 1794.45 52.2145 1828.74L58.1717 1829.46ZM49.9888 1923.47C49.9888 1894.94 52.7061 1863.64 58.1554 1829.57L52.2308 1828.63C46.7411 1862.95 43.9888 1894.56 43.9888 1923.47H49.9888ZM84.4874 2077.95C61.5419 2036.1 49.9888 1984.65 49.9888 1923.47H43.9888C43.9888 1985.39 55.6812 2037.89 79.2262 2080.84L84.4874 2077.95ZM199.857 2175.08C144.321 2153.4 106.014 2121.01 84.5402 2078.05L79.1734 2080.74C101.456 2125.31 141.088 2158.58 197.676 2180.67L199.857 2175.08ZM311.929 2200.98C267.546 2195.57 230.207 2186.92 199.857 2175.08L197.676 2180.67C228.628 2192.75 266.489 2201.49 311.204 2206.93L311.929 2200.98Z" fill="url(#paint5_linear_256_2591)" mask="url(#path-9-outside-4_256_2591)"/>
<mask id="path-11-outside-5_256_2591" maskUnits="userSpaceOnUse" x="43.9883" y="1467.99" width="1517" height="954" fill="black">
<rect fill="white" x="43.9883" y="1467.99" width="1517" height="954"/>
<path fill-rule="evenodd" clip-rule="evenodd" d="M311.566 2411.63L310.812 2415.17H347.347C374.857 2417.31 404.637 2418.38 436.687 2418.38H1090.97L1092.22 2412.49C1154.35 2408.03 1207.41 2398 1251.39 2382.4C1313 2360.55 1361.6 2329.83 1397.2 2290.23C1432.8 2249.27 1460.18 2200.8 1479.35 2144.82C1499.88 2088.84 1517 2027.39 1530.69 1960.49C1538.9 1922.26 1545.06 1886.07 1549.17 1851.94C1554.65 1817.8 1557.39 1786.4 1557.39 1757.73C1557.39 1696.28 1545.75 1644.4 1522.47 1602.07C1500.57 1558.38 1461.55 1525.61 1405.42 1503.76C1374.37 1491.68 1336.2 1482.93 1290.9 1477.53L1291.96 1472.59L1231.8 1472.59C1211.4 1471.52 1189.86 1470.99 1167.19 1470.99H512.07L511.15 1475.3C449.278 1479.79 396.426 1489.82 352.594 1505.41C291.063 1527.3 242.522 1558.07 206.97 1597.73C171.419 1638.77 144.071 1687.32 124.928 1743.4C104.418 1799.48 87.3256 1861.02 73.652 1928.04C65.4478 1966.34 59.2947 2002.58 55.1926 2036.78C49.7231 2070.97 46.9883 2102.43 46.9883 2131.15C46.9883 2192.7 58.6111 2244.67 81.8563 2287.07C103.734 2330.84 142.704 2363.67 198.766 2385.55C229.417 2397.51 267.017 2406.21 311.566 2411.63Z"/>
</mask>
<path d="M310.812 2415.17L307.877 2414.54L307.105 2418.17H310.812V2415.17ZM311.566 2411.63L314.5 2412.26L315.183 2409.05L311.928 2408.65L311.566 2411.63ZM347.347 2415.17L347.58 2412.18L347.464 2412.17H347.347V2415.17ZM1090.97 2418.38V2421.38H1093.4L1093.91 2419L1090.97 2418.38ZM1092.22 2412.49L1092.01 2409.5L1089.76 2409.66L1089.29 2411.86L1092.22 2412.49ZM1251.39 2382.4L1252.39 2385.23L1252.39 2385.23L1251.39 2382.4ZM1397.2 2290.23L1399.43 2292.24L1399.45 2292.22L1399.46 2292.2L1397.2 2290.23ZM1479.35 2144.82L1476.53 2143.79L1476.52 2143.82L1476.51 2143.85L1479.35 2144.82ZM1530.69 1960.49L1527.76 1959.86L1527.75 1959.87L1527.75 1959.89L1530.69 1960.49ZM1549.17 1851.94L1546.21 1851.46L1546.2 1851.52L1546.19 1851.58L1549.17 1851.94ZM1522.47 1602.07L1519.79 1603.41L1519.82 1603.46L1519.85 1603.51L1522.47 1602.07ZM1405.42 1503.76L1406.5 1500.96L1406.5 1500.96L1405.42 1503.76ZM1290.9 1477.53L1287.97 1476.91L1287.29 1480.12L1290.55 1480.51L1290.9 1477.53ZM1291.96 1472.59L1294.89 1473.21L1295.66 1469.59L1291.96 1469.59L1291.96 1472.59ZM1231.8 1472.59L1231.65 1475.58L1231.72 1475.59L1231.8 1475.59L1231.8 1472.59ZM512.07 1470.99V1467.99H509.642L509.135 1470.36L512.07 1470.99ZM511.15 1475.3L511.367 1478.3L513.614 1478.13L514.084 1475.93L511.15 1475.3ZM352.594 1505.41L353.6 1508.24L353.6 1508.24L352.594 1505.41ZM206.97 1597.73L204.736 1595.73L204.719 1595.75L204.703 1595.77L206.97 1597.73ZM124.928 1743.4L127.746 1744.43L127.757 1744.4L127.767 1744.37L124.928 1743.4ZM73.652 1928.04L76.5854 1928.67L76.5885 1928.66L76.5914 1928.64L73.652 1928.04ZM55.1926 2036.78L58.1549 2037.25L58.1642 2037.19L58.1712 2037.13L55.1926 2036.78ZM81.8563 2287.07L84.5397 2285.73L84.5143 2285.68L84.4869 2285.63L81.8563 2287.07ZM198.766 2385.55L197.675 2388.34L197.675 2388.34L198.766 2385.55ZM313.746 2415.79L314.5 2412.26L308.632 2411.01L307.877 2414.54L313.746 2415.79ZM347.347 2412.17H310.812V2418.17H347.347V2412.17ZM436.687 2415.38C404.703 2415.38 375.001 2414.31 347.58 2412.18L347.115 2418.16C374.713 2420.3 404.571 2421.38 436.687 2421.38V2415.38ZM1090.97 2415.38H436.687V2421.38H1090.97V2415.38ZM1089.29 2411.86L1088.04 2417.75L1093.91 2419L1095.16 2413.11L1089.29 2411.86ZM1250.39 2379.57C1206.73 2395.05 1153.95 2405.05 1092.01 2409.5L1092.44 2415.48C1154.75 2411 1208.09 2400.94 1252.39 2385.23L1250.39 2379.57ZM1394.97 2288.23C1359.78 2327.38 1311.63 2357.85 1250.39 2379.57L1252.39 2385.23C1314.37 2363.25 1363.43 2332.28 1399.43 2292.24L1394.97 2288.23ZM1476.51 2143.85C1457.46 2199.5 1430.26 2247.62 1394.94 2288.27L1399.46 2292.2C1435.34 2250.92 1462.9 2202.1 1482.19 2145.79L1476.51 2143.85ZM1527.75 1959.89C1514.08 2026.67 1497.01 2087.96 1476.53 2143.79L1482.16 2145.85C1502.76 2089.71 1519.91 2028.12 1533.63 1961.09L1527.75 1959.89ZM1546.19 1851.58C1542.1 1885.61 1535.95 1921.7 1527.76 1959.86L1533.62 1961.12C1541.85 1922.81 1548.03 1886.53 1552.15 1852.3L1546.19 1851.58ZM1554.39 1757.73C1554.39 1786.21 1551.67 1817.45 1546.21 1851.46L1552.13 1852.41C1557.63 1818.15 1560.39 1786.59 1560.39 1757.73H1554.39ZM1519.85 1603.51C1542.82 1645.29 1554.39 1696.65 1554.39 1757.73H1560.39C1560.39 1695.91 1548.68 1643.5 1525.1 1600.62L1519.85 1603.51ZM1404.33 1506.55C1459.94 1528.2 1498.29 1560.53 1519.79 1603.41L1525.16 1600.72C1502.84 1556.22 1463.16 1523.01 1406.5 1500.96L1404.33 1506.55ZM1290.55 1480.51C1335.67 1485.89 1373.58 1494.59 1404.33 1506.55L1406.5 1500.96C1375.15 1488.76 1336.72 1479.97 1291.26 1474.55L1290.55 1480.51ZM1289.02 1471.96L1287.97 1476.91L1293.84 1478.16L1294.89 1473.21L1289.02 1471.96ZM1231.8 1475.59L1291.96 1475.59L1291.96 1469.59L1231.8 1469.59L1231.8 1475.59ZM1167.19 1473.99C1189.82 1473.99 1211.3 1474.52 1231.65 1475.58L1231.96 1469.59C1211.5 1468.52 1189.91 1467.99 1167.19 1467.99V1473.99ZM512.07 1473.99H1167.19V1467.99H512.07V1473.99ZM514.084 1475.93L515.004 1471.61L509.135 1470.36L508.216 1474.68L514.084 1475.93ZM353.6 1508.24C397.109 1492.76 449.68 1482.77 511.367 1478.3L510.933 1472.31C448.876 1476.81 395.743 1486.88 351.589 1502.59L353.6 1508.24ZM209.204 1599.74C244.354 1560.52 292.435 1529.99 353.6 1508.24L351.589 1502.59C289.691 1524.6 240.69 1555.62 204.736 1595.73L209.204 1599.74ZM127.767 1744.37C146.797 1688.62 173.961 1640.41 209.237 1599.7L204.703 1595.77C168.876 1637.12 141.345 1686.02 122.089 1742.43L127.767 1744.37ZM76.5914 1928.64C90.2394 1861.75 107.293 1800.35 127.746 1744.43L122.111 1742.37C101.542 1798.6 84.4118 1860.3 70.7125 1927.44L76.5914 1928.64ZM58.1712 2037.13C62.2611 2003.04 68.3979 1966.89 76.5854 1928.67L70.7185 1927.41C62.4977 1965.79 56.3284 2002.12 52.214 2036.42L58.1712 2037.13ZM49.9883 2131.15C49.9883 2102.62 52.7056 2071.32 58.1549 2037.25L52.2303 2036.3C46.7406 2070.62 43.9883 2102.24 43.9883 2131.15H49.9883ZM84.4869 2285.63C61.5414 2243.78 49.9883 2192.33 49.9883 2131.15H43.9883C43.9883 2193.07 55.6808 2245.57 79.2257 2288.52L84.4869 2285.63ZM199.857 2382.76C144.321 2361.08 106.013 2328.69 84.5397 2285.73L79.1729 2288.41C101.455 2332.99 141.087 2366.26 197.675 2388.34L199.857 2382.76ZM311.928 2408.65C267.545 2403.25 230.207 2394.6 199.857 2382.76L197.675 2388.34C228.628 2400.43 266.489 2409.17 311.203 2414.61L311.928 2408.65Z" fill="url(#paint6_linear_256_2591)" mask="url(#path-11-outside-5_256_2591)"/>
<mask id="path-13-outside-6_256_2591" maskUnits="userSpaceOnUse" x="43.9888" y="212.02" width="1517" height="954" fill="black">
<rect fill="white" x="43.9888" y="212.02" width="1517" height="954"/>
<path fill-rule="evenodd" clip-rule="evenodd" d="M311.566 1155.66L310.812 1159.2H347.363C374.868 1161.34 404.643 1162.4 436.688 1162.4H1090.97L1092.22 1156.52C1154.35 1152.06 1207.41 1142.03 1251.39 1126.43C1313 1104.58 1361.6 1073.86 1397.2 1034.26C1432.8 993.302 1460.18 944.83 1479.35 888.849C1499.88 832.867 1517 771.424 1530.69 704.518C1538.9 666.287 1545.07 630.104 1549.17 595.968C1554.65 561.833 1557.39 530.429 1557.39 501.755C1557.39 440.312 1545.75 388.426 1522.47 346.099C1500.57 302.406 1461.55 269.636 1405.42 247.789C1374.37 235.705 1336.2 226.963 1290.9 221.563L1291.96 216.616H1231.78C1211.38 215.552 1189.85 215.02 1167.19 215.02H512.07L511.151 219.332C449.279 223.816 396.427 233.853 352.595 249.442C291.063 271.325 242.522 302.099 206.971 341.764C171.419 382.796 144.072 431.35 124.929 487.428C104.418 543.505 87.3261 605.053 73.6525 672.072C65.4483 710.368 59.2952 746.613 55.1931 780.807C49.7236 815 46.9888 846.458 46.9888 875.18C46.9888 936.728 58.6115 988.702 81.8568 1031.1C103.735 1074.87 142.705 1107.7 198.766 1129.58C229.418 1141.54 267.018 1150.24 311.566 1155.66Z"/>
</mask>
<path d="M310.812 1159.2L307.878 1158.57L307.105 1162.2H310.812V1159.2ZM311.566 1155.66L314.5 1156.29L315.184 1153.08L311.929 1152.68L311.566 1155.66ZM347.363 1159.2L347.595 1156.21L347.479 1156.2H347.363V1159.2ZM1090.97 1162.4V1165.4H1093.4L1093.91 1163.03L1090.97 1162.4ZM1092.22 1156.52L1092.01 1153.53L1089.76 1153.69L1089.29 1155.89L1092.22 1156.52ZM1251.39 1126.43L1250.39 1123.6L1250.39 1123.6L1251.39 1126.43ZM1397.2 1034.26L1399.43 1036.27L1399.45 1036.25L1399.47 1036.23L1397.2 1034.26ZM1479.35 888.849L1476.53 887.815L1476.52 887.846L1476.51 887.877L1479.35 888.849ZM1530.69 704.518L1527.76 703.888L1527.75 703.903L1527.75 703.917L1530.69 704.518ZM1549.17 595.968L1546.21 595.493L1546.2 595.551L1546.19 595.61L1549.17 595.968ZM1522.47 346.099L1519.79 347.443L1519.82 347.494L1519.85 347.544L1522.47 346.099ZM1405.42 247.789L1406.5 244.994L1406.5 244.994L1405.42 247.789ZM1290.9 221.563L1287.97 220.94L1287.29 224.153L1290.55 224.542L1290.9 221.563ZM1291.96 216.616L1294.89 217.24L1295.66 213.616H1291.96V216.616ZM1231.78 216.616L1231.62 219.612L1231.7 219.616H1231.78V216.616ZM512.07 215.02V212.02H509.642L509.136 214.394L512.07 215.02ZM511.151 219.332L511.368 222.324L513.615 222.161L514.085 219.958L511.151 219.332ZM352.595 249.442L353.6 252.268L353.6 252.268L352.595 249.442ZM206.971 341.764L204.737 339.761L204.72 339.78L204.703 339.799L206.971 341.764ZM124.929 487.428L127.746 488.458L127.757 488.427L127.768 488.397L124.929 487.428ZM73.6525 672.072L76.5859 672.7L76.589 672.686L76.5919 672.671L73.6525 672.072ZM55.1931 780.807L58.1554 781.281L58.1647 781.222L58.1717 781.164L55.1931 780.807ZM81.8568 1031.1L84.5402 1029.76L84.5148 1029.71L84.4874 1029.66L81.8568 1031.1ZM198.766 1129.58L197.676 1132.37L197.676 1132.37L198.766 1129.58ZM313.746 1159.83L314.5 1156.29L308.632 1155.04L307.878 1158.57L313.746 1159.83ZM347.363 1156.2H310.812V1162.2H347.363V1156.2ZM436.688 1159.4C404.709 1159.4 375.012 1158.34 347.595 1156.21L347.131 1162.19C374.724 1164.33 404.578 1165.4 436.688 1165.4V1159.4ZM1090.97 1159.4H436.688V1165.4H1090.97V1159.4ZM1089.29 1155.89L1088.04 1161.78L1093.91 1163.03L1095.16 1157.14L1089.29 1155.89ZM1250.39 1123.6C1206.73 1139.08 1153.95 1149.08 1092.01 1153.53L1092.44 1159.51C1154.75 1155.03 1208.09 1144.97 1252.39 1129.26L1250.39 1123.6ZM1394.97 1032.26C1359.78 1071.41 1311.63 1101.89 1250.39 1123.6L1252.39 1129.26C1314.37 1107.28 1363.43 1076.31 1399.43 1036.27L1394.97 1032.26ZM1476.51 887.877C1457.46 943.526 1430.26 991.652 1394.94 1032.3L1399.47 1036.23C1435.34 994.953 1462.9 946.135 1482.19 889.82L1476.51 887.877ZM1527.75 703.917C1514.09 770.696 1497.01 831.993 1476.53 887.815L1482.16 889.882C1502.76 833.741 1519.91 772.151 1533.63 705.12L1527.75 703.917ZM1546.19 595.61C1542.1 629.643 1535.95 665.735 1527.76 703.888L1533.62 705.149C1541.85 666.839 1548.03 630.565 1552.15 596.327L1546.19 595.61ZM1554.39 501.755C1554.39 530.241 1551.67 561.484 1546.21 595.493L1552.13 596.444C1557.63 562.182 1560.39 530.616 1560.39 501.755H1554.39ZM1519.85 347.544C1542.82 389.324 1554.39 440.683 1554.39 501.755H1560.39C1560.39 439.941 1548.68 387.528 1525.1 344.653L1519.85 347.544ZM1404.33 250.585C1459.94 272.227 1498.29 304.56 1519.79 347.443L1525.16 344.754C1502.84 300.251 1463.16 267.044 1406.5 244.994L1404.33 250.585ZM1290.55 224.542C1335.68 229.922 1373.58 238.619 1404.33 250.585L1406.5 244.994C1375.15 232.791 1336.72 224.004 1291.26 218.584L1290.55 224.542ZM1289.02 215.992L1287.97 220.94L1293.84 222.187L1294.89 217.24L1289.02 215.992ZM1231.78 219.616H1291.96V213.616H1231.78V219.616ZM1167.19 218.02C1189.81 218.02 1211.29 218.551 1231.62 219.612L1231.94 213.62C1211.48 212.553 1189.9 212.02 1167.19 212.02V218.02ZM512.07 218.02H1167.19V212.02H512.07V218.02ZM514.085 219.958L515.004 215.645L509.136 214.394L508.217 218.707L514.085 219.958ZM353.6 252.268C397.109 236.794 449.681 226.795 511.368 222.324L510.934 216.34C448.876 220.838 395.744 230.912 351.59 246.615L353.6 252.268ZM209.205 343.766C244.354 304.55 292.435 274.022 353.6 252.268L351.59 246.615C289.692 268.629 240.69 299.649 204.737 339.761L209.205 343.766ZM127.768 488.397C146.798 432.651 173.962 384.443 209.238 343.728L204.703 339.799C168.877 381.149 141.346 430.049 122.09 486.458L127.768 488.397ZM76.5919 672.671C90.2399 605.778 107.294 544.376 127.746 488.458L122.111 486.397C101.543 542.633 84.4123 604.327 70.713 671.472L76.5919 672.671ZM58.1717 781.164C62.2616 747.073 68.3984 710.919 76.5859 672.7L70.719 671.443C62.4982 709.818 56.3289 746.154 52.2145 780.449L58.1717 781.164ZM49.9888 875.18C49.9888 846.645 52.7061 815.348 58.1554 781.281L52.2308 780.333C46.7411 814.652 43.9888 846.271 43.9888 875.18H49.9888ZM84.4874 1029.66C61.5419 987.807 49.9888 936.359 49.9888 875.18H43.9888C43.9888 937.098 55.6812 989.598 79.2262 1032.54L84.4874 1029.66ZM199.857 1126.78C144.321 1105.11 106.014 1072.72 84.5402 1029.76L79.1734 1032.44C101.456 1077.02 141.088 1110.28 197.676 1132.37L199.857 1126.78ZM311.929 1152.68C267.546 1147.28 230.207 1138.63 199.857 1126.78L197.676 1132.37C228.628 1144.46 266.489 1153.2 311.204 1158.64L311.929 1152.68Z" fill="url(#paint7_linear_256_2591)" mask="url(#path-13-outside-6_256_2591)"/>
</g>
</g>
<defs>
<filter id="filter0_ddi_256_2591" x="0" y="0" width="1605" height="1605" filterUnits="userSpaceOnUse" color-interpolation-filters="sRGB">
<feFlood flood-opacity="0" result="BackgroundImageFix"/>
<feColorMatrix in="SourceAlpha" type="matrix" values="0 0 0 0 0 0 0 0 0 0 0 0 0 0 0 0 0 0 127 0" result="hardAlpha"/>
<feOffset dy="4"/>
<feGaussianBlur stdDeviation="21.5"/>
<feComposite in2="hardAlpha" operator="out"/>
<feColorMatrix type="matrix" values="0 0 0 0 0 0 0 0 0 0 0 0 0 0 0 0 0 0 0.1 0"/>
<feBlend mode="normal" in2="BackgroundImageFix" result="effect1_dropShadow_256_2591"/>
<feColorMatrix in="SourceAlpha" type="matrix" values="0 0 0 0 0 0 0 0 0 0 0 0 0 0 0 0 0 0 127 0" result="hardAlpha"/>
<feOffset dy="4"/>
<feGaussianBlur stdDeviation="15"/>
<feComposite in2="hardAlpha" operator="out"/>
<feColorMatrix type="matrix" values="0 0 0 0 0.248615 0 0 0 0 0.039375 0 0 0 0 0.35 0 0 0 1 0"/>
<feBlend mode="normal" in2="effect1_dropShadow_256_2591" result="effect2_dropShadow_256_2591"/>
<feBlend mode="normal" in="SourceGraphic" in2="effect2_dropShadow_256_2591" result="shape"/>
<feColorMatrix in="SourceAlpha" type="matrix" values="0 0 0 0 0 0 0 0 0 0 0 0 0 0 0 0 0 0 127 0" result="hardAlpha"/>
<feOffset dy="-6"/>
<feGaussianBlur stdDeviation="7.5"/>
<feComposite in2="hardAlpha" operator="arithmetic" k2="-1" k3="1"/>
<feColorMatrix type="matrix" values="0 0 0 0 0 0 0 0 0 0 0 0 0 0 0 0 0 0 0.15 0"/>
<feBlend mode="normal" in2="shape" result="effect3_innerShadow_256_2591"/>
</filter>
<radialGradient id="paint0_radial_256_2591" cx="0" cy="0" r="1" gradientUnits="userSpaceOnUse" gradientTransform="translate(802.5 798.5) scale(759.5)">
<stop stop-color="#9142B6"/>
<stop offset="0.255208" stop-color="#1392A4"/>
<stop offset="1" stop-color="#F7AD3F"/>
</radialGradient>
<radialGradient id="paint1_radial_256_2591" cx="0" cy="0" r="1" gradientUnits="userSpaceOnUse" gradientTransform="translate(802.5 798.5) scale(759.5)">
<stop stop-color="#9142B6"/>
<stop offset="0.255208" stop-color="#1392A4"/>
<stop offset="1" stop-color="#F7AD3F"/>
</radialGradient>
<linearGradient id="paint2_linear_256_2591" x1="802.188" y1="383.148" x2="802.188" y2="1330.54" gradientUnits="userSpaceOnUse">
<stop stop-color="#FFF964"/>
<stop offset="1" stop-color="white" stop-opacity="0"/>
</linearGradient>
<linearGradient id="paint3_linear_256_2591" x1="802.188" y1="650.16" x2="802.188" y2="1597.55" gradientUnits="userSpaceOnUse">
<stop stop-color="#FFF964"/>
<stop offset="1" stop-color="white" stop-opacity="0"/>
</linearGradient>
<linearGradient id="paint4_linear_256_2591" x1="802.188" y1="966.632" x2="802.188" y2="1914.02" gradientUnits="userSpaceOnUse">
<stop stop-color="#FFF964"/>
<stop offset="1" stop-color="white" stop-opacity="0"/>
</linearGradient>
<linearGradient id="paint5_linear_256_2591" x1="802.188" y1="1263.31" x2="802.188" y2="2210.7" gradientUnits="userSpaceOnUse">
<stop stop-color="#FFF964"/>
<stop offset="1" stop-color="white" stop-opacity="0"/>
</linearGradient>
<linearGradient id="paint6_linear_256_2591" x1="802.188" y1="1470.99" x2="802.188" y2="2418.38" gradientUnits="userSpaceOnUse">
<stop stop-color="#FFF964"/>
<stop offset="1" stop-color="white" stop-opacity="0"/>
</linearGradient>
<linearGradient id="paint7_linear_256_2591" x1="802.188" y1="215.02" x2="802.188" y2="1162.4" gradientUnits="userSpaceOnUse">
<stop stop-color="#FFF964"/>
<stop offset="1" stop-color="white" stop-opacity="0"/>
</linearGradient>
</defs>
</svg>
