<svg width="375" height="546" viewBox="0 0 375 546" fill="none" xmlns="http://www.w3.org/2000/svg">
<g filter="url(#filter0_ddi_55_1969)">
<rect x="95" y="174" width="178" height="178" rx="89" fill="url(#paint0_radial_55_1969)"/>
<mask id="mask0_55_1969" style="mask-type:alpha" maskUnits="userSpaceOnUse" x="95" y="174" width="178" height="178">
<rect x="95" y="174" width="178" height="178" rx="89" fill="url(#paint1_radial_55_1969)"/>
</mask>
<g mask="url(#mask0_55_1969)">
<mask id="path-3-outside-1_55_1969" maskUnits="userSpaceOnUse" x="92.4673" y="211.328" width="183" height="118" fill="black">
<rect fill="white" x="92.4673" y="211.328" width="183" height="118"/>
<path fill-rule="evenodd" clip-rule="evenodd" d="M126.471 324.555L126.382 324.969H130.659C133.884 325.22 137.375 325.345 141.133 325.345H217.804L217.95 324.655C225.23 324.132 231.447 322.957 236.602 321.129C243.821 318.569 249.517 314.969 253.688 310.329C257.859 305.529 261.068 299.849 263.314 293.289C265.721 286.729 267.726 279.529 269.33 271.689C270.293 267.209 271.015 262.969 271.496 258.969C272.138 254.969 272.459 251.289 272.459 247.928C272.459 240.728 271.095 234.648 268.368 229.688C265.801 224.568 261.228 220.728 254.651 218.168C251.012 216.752 246.54 215.728 241.232 215.095L241.355 214.516L234.314 214.516C231.921 214.391 229.394 214.328 226.735 214.328H149.966L149.858 214.834C142.608 215.36 136.415 216.536 131.279 218.362C124.069 220.927 118.38 224.533 114.214 229.181C110.048 233.989 106.844 239.679 104.6 246.25C102.197 252.821 100.194 260.034 98.5918 267.887C97.6304 272.375 96.9094 276.622 96.4287 280.629C95.7878 284.636 95.4673 288.322 95.4673 291.688C95.4673 298.9 96.8293 304.991 99.5532 309.959C102.117 315.088 106.683 318.934 113.253 321.499C116.845 322.901 121.251 323.92 126.471 324.555Z"/>
</mask>
<path d="M126.382 324.969L123.448 324.344L122.675 327.969H126.382V324.969ZM126.471 324.555L129.405 325.181L130.088 321.973L126.833 321.577L126.471 324.555ZM130.659 324.969L130.892 321.978L130.776 321.969H130.659V324.969ZM217.804 325.345V328.345H220.233L220.738 325.969L217.804 325.345ZM217.95 324.655L217.735 321.663L215.485 321.824L215.016 324.031L217.95 324.655ZM236.602 321.129L235.599 318.302H235.599L236.602 321.129ZM253.688 310.329L255.919 312.335L255.936 312.316L255.952 312.297L253.688 310.329ZM263.314 293.289L260.498 292.256L260.486 292.286L260.476 292.317L263.314 293.289ZM269.33 271.689L266.397 271.059L266.394 271.073L266.391 271.087L269.33 271.689ZM271.496 258.969L268.534 258.493L268.525 258.552L268.518 258.61L271.496 258.969ZM268.368 229.688L265.686 231.033L265.712 231.084L265.739 231.134L268.368 229.688ZM254.651 218.168L255.739 215.372L255.739 215.372L254.651 218.168ZM241.232 215.095L238.298 214.471L237.615 217.685L240.877 218.074L241.232 215.095ZM241.355 214.516L244.29 215.139L245.06 211.516H241.355V214.516ZM234.314 214.516L234.157 217.512L234.236 217.516H234.314V214.516ZM149.966 214.328V211.328H147.538L147.032 213.703L149.966 214.328ZM149.858 214.834L150.075 217.826L152.323 217.663L152.792 215.459L149.858 214.834ZM131.279 218.362L132.284 221.189V221.189L131.279 218.362ZM114.214 229.181L111.98 227.179L111.964 227.197L111.947 227.216L114.214 229.181ZM104.6 246.25L107.418 247.281L107.429 247.25L107.44 247.219L104.6 246.25ZM98.5918 267.887L101.525 268.516L101.528 268.501L101.531 268.487L98.5918 267.887ZM96.4287 280.629L99.391 281.103L99.4003 281.045L99.4073 280.986L96.4287 280.629ZM99.5532 309.959L102.237 308.618L102.211 308.567L102.184 308.517L99.5532 309.959ZM113.253 321.499L112.162 324.294H112.162L113.253 321.499ZM129.316 325.595L129.405 325.181L123.537 323.93L123.448 324.344L129.316 325.595ZM130.659 321.969H126.382V327.969H130.659V321.969ZM141.133 322.345C137.441 322.345 134.028 322.222 130.892 321.978L130.427 327.96C133.74 328.218 137.31 328.345 141.133 328.345V322.345ZM217.804 322.345H141.133V328.345H217.804V322.345ZM215.016 324.031L214.869 324.722L220.738 325.969L220.885 325.279L215.016 324.031ZM235.599 318.302C230.767 320.015 224.83 321.153 217.735 321.663L218.165 327.647C225.63 327.111 232.128 325.899 237.604 323.957L235.599 318.302ZM251.457 308.324C247.688 312.516 242.453 315.871 235.599 318.302L237.604 323.957C245.189 321.267 251.345 317.423 255.919 312.335L251.457 308.324ZM260.476 292.317C258.344 298.545 255.319 303.879 251.424 308.361L255.952 312.297C260.399 307.18 263.792 301.154 266.152 294.261L260.476 292.317ZM266.391 271.087C264.813 278.801 262.846 285.855 260.498 292.256L266.131 294.322C268.596 287.603 270.639 280.256 272.27 272.29L266.391 271.087ZM268.518 258.61C268.049 262.508 267.343 266.656 266.397 271.059L272.264 272.319C273.243 267.761 273.981 263.43 274.475 259.327L268.518 258.61ZM269.459 247.928C269.459 251.101 269.156 254.62 268.534 258.493L274.458 259.444C275.12 255.317 275.459 251.476 275.459 247.928H269.459ZM265.739 231.134C268.165 235.546 269.459 241.099 269.459 247.928H275.459C275.459 240.357 274.025 233.75 270.997 228.243L265.739 231.134ZM253.563 220.964C259.616 223.32 263.525 226.723 265.686 231.033L271.05 228.344C268.077 222.414 262.841 218.137 255.739 215.372L253.563 220.964ZM240.877 218.074C246.019 218.687 250.228 219.666 253.563 220.964L255.739 215.372C251.796 213.838 247.06 212.769 241.588 212.116L240.877 218.074ZM238.421 213.892L238.298 214.471L244.167 215.719L244.29 215.139L238.421 213.892ZM234.314 217.516L241.355 217.516V211.516L234.314 211.516V217.516ZM226.735 217.328C229.348 217.328 231.822 217.39 234.157 217.512L234.47 211.52C232.02 211.392 229.441 211.328 226.735 211.328V217.328ZM149.966 217.328H226.735V211.328H149.966V217.328ZM152.792 215.459L152.9 214.954L147.032 213.703L146.924 214.209L152.792 215.459ZM132.284 221.189C137.098 219.477 143.011 218.338 150.075 217.826L149.642 211.842C142.206 212.381 135.732 213.594 130.274 215.536L132.284 221.189ZM116.448 231.183C120.212 226.984 125.44 223.623 132.284 221.189L130.274 215.536C122.697 218.23 116.548 222.082 111.98 227.179L116.448 231.183ZM107.44 247.219C109.57 240.98 112.591 235.636 116.482 231.145L111.947 227.216C107.506 232.342 104.118 238.378 101.761 245.281L107.44 247.219ZM101.531 268.487C103.108 260.759 105.073 253.693 107.418 247.281L101.783 245.22C99.3214 251.95 97.2803 259.308 95.6524 267.287L101.531 268.487ZM99.4073 280.986C99.8757 277.082 100.581 272.925 101.525 268.516L95.6584 267.259C94.6803 271.824 93.943 276.162 93.45 280.272L99.4073 280.986ZM98.4673 291.688C98.4673 288.509 98.7703 284.984 99.391 281.103L93.4663 280.155C92.8053 284.288 92.4673 288.135 92.4673 291.688H98.4673ZM102.184 308.517C99.7596 304.095 98.4673 298.531 98.4673 291.688H92.4673C92.4673 299.27 93.899 305.886 96.9226 311.401L102.184 308.517ZM114.344 318.704C108.3 316.345 104.396 312.937 102.237 308.618L96.8698 311.3C99.838 317.239 105.067 321.524 112.162 324.294L114.344 318.704ZM126.833 321.577C121.779 320.962 117.634 319.989 114.344 318.704L112.162 324.294C116.055 325.813 120.722 326.877 126.108 327.533L126.833 321.577Z" fill="url(#paint2_linear_55_1969)" mask="url(#path-3-outside-1_55_1969)"/>
<mask id="path-5-outside-2_55_1969" maskUnits="userSpaceOnUse" x="92.4673" y="242.617" width="183" height="118" fill="black">
<rect fill="white" x="92.4673" y="242.617" width="183" height="118"/>
<path fill-rule="evenodd" clip-rule="evenodd" d="M126.471 355.844L126.382 356.258H130.659C133.884 356.509 137.375 356.635 141.133 356.635H217.804L217.95 355.944C225.23 355.421 231.447 354.246 236.602 352.418C243.821 349.858 249.517 346.258 253.688 341.618C257.859 336.818 261.068 331.138 263.314 324.578C265.721 318.018 267.726 310.818 269.33 302.978C270.293 298.498 271.015 294.258 271.496 290.258C272.138 286.258 272.459 282.578 272.459 279.218C272.459 272.017 271.095 265.937 268.368 260.977C265.801 255.857 261.228 252.017 254.651 249.457C251.012 248.041 246.54 247.017 241.232 246.384L241.355 245.805L234.314 245.805C231.921 245.68 229.394 245.617 226.735 245.617H149.966L149.858 246.123C142.608 246.649 136.415 247.825 131.279 249.651C124.069 252.216 118.38 255.822 114.214 260.47C110.048 265.278 106.844 270.968 104.6 277.539C102.197 284.11 100.194 291.323 98.5918 299.176C97.6304 303.664 96.9094 307.911 96.4287 311.918C95.7878 315.925 95.4673 319.611 95.4673 322.977C95.4673 330.189 96.8293 336.28 99.5532 341.248C102.117 346.377 106.683 350.224 113.253 352.788C116.845 354.19 121.251 355.209 126.471 355.844Z"/>
</mask>
<path d="M126.382 356.258L123.448 355.633L122.675 359.258H126.382V356.258ZM126.471 355.844L129.405 356.47L130.088 353.262L126.833 352.866L126.471 355.844ZM130.659 356.258L130.892 353.267L130.776 353.258H130.659V356.258ZM217.804 356.635V359.635H220.233L220.738 357.258L217.804 356.635ZM217.95 355.944L217.735 352.952L215.485 353.113L215.016 355.321L217.95 355.944ZM236.602 352.418L235.599 349.591H235.599L236.602 352.418ZM253.688 341.618L255.919 343.624L255.936 343.605L255.952 343.586L253.688 341.618ZM263.314 324.578L260.498 323.545L260.486 323.575L260.476 323.606L263.314 324.578ZM269.33 302.978L266.397 302.348L266.394 302.362L266.391 302.376L269.33 302.978ZM271.496 290.258L268.534 289.782L268.525 289.841L268.518 289.899L271.496 290.258ZM268.368 260.977L265.686 262.322L265.712 262.373L265.739 262.423L268.368 260.977ZM254.651 249.457L255.739 246.661L255.739 246.661L254.651 249.457ZM241.232 246.384L238.298 245.76L237.615 248.974L240.877 249.363L241.232 246.384ZM241.355 245.805L244.29 246.428L245.06 242.805H241.355V245.805ZM234.314 245.805L234.157 248.801L234.236 248.805H234.314V245.805ZM149.966 245.617V242.617H147.538L147.032 244.992L149.966 245.617ZM149.858 246.123L150.075 249.115L152.323 248.952L152.792 246.749L149.858 246.123ZM131.279 249.651L132.284 252.478V252.478L131.279 249.651ZM114.214 260.47L111.98 258.468L111.964 258.486L111.947 258.505L114.214 260.47ZM104.6 277.539L107.418 278.57L107.429 278.539L107.44 278.508L104.6 277.539ZM98.5918 299.176L101.525 299.805L101.528 299.79L101.531 299.776L98.5918 299.176ZM96.4287 311.918L99.391 312.392L99.4003 312.334L99.4073 312.275L96.4287 311.918ZM99.5532 341.248L102.237 339.907L102.211 339.856L102.184 339.806L99.5532 341.248ZM113.253 352.788L112.162 355.583H112.162L113.253 352.788ZM129.316 356.884L129.405 356.47L123.537 355.219L123.448 355.633L129.316 356.884ZM130.659 353.258H126.382V359.258H130.659V353.258ZM141.133 353.635C137.441 353.635 134.028 353.511 130.892 353.267L130.427 359.249C133.74 359.507 137.31 359.635 141.133 359.635V353.635ZM217.804 353.635H141.133V359.635H217.804V353.635ZM215.016 355.321L214.869 356.011L220.738 357.258L220.885 356.568L215.016 355.321ZM235.599 349.591C230.767 351.304 224.83 352.442 217.735 352.952L218.165 358.936C225.63 358.4 232.128 357.188 237.604 355.246L235.599 349.591ZM251.457 339.613C247.688 343.805 242.453 347.16 235.599 349.591L237.604 355.246C245.189 352.556 251.345 348.712 255.919 343.624L251.457 339.613ZM260.476 323.606C258.344 329.834 255.319 335.168 251.424 339.65L255.952 343.586C260.399 338.469 263.792 332.443 266.152 325.55L260.476 323.606ZM266.391 302.376C264.813 310.09 262.846 317.144 260.498 323.545L266.131 325.611C268.596 318.892 270.639 311.546 272.27 303.579L266.391 302.376ZM268.518 289.899C268.049 293.797 267.343 297.945 266.397 302.348L272.264 303.608C273.243 299.05 273.981 294.719 274.475 290.616L268.518 289.899ZM269.459 279.218C269.459 282.39 269.156 285.909 268.534 289.782L274.458 290.733C275.12 286.607 275.459 282.765 275.459 279.218H269.459ZM265.739 262.423C268.165 266.835 269.459 272.388 269.459 279.218H275.459C275.459 271.647 274.025 265.039 270.997 259.532L265.739 262.423ZM253.563 252.253C259.616 254.609 263.525 258.012 265.686 262.322L271.05 259.633C268.077 253.703 262.841 249.426 255.739 246.661L253.563 252.253ZM240.877 249.363C246.019 249.976 250.228 250.955 253.563 252.253L255.739 246.661C251.796 245.127 247.06 244.058 241.588 243.405L240.877 249.363ZM238.421 245.181L238.298 245.76L244.167 247.008L244.29 246.428L238.421 245.181ZM234.314 248.805L241.355 248.805V242.805L234.314 242.805V248.805ZM226.735 248.617C229.348 248.617 231.822 248.679 234.157 248.801L234.47 242.809C232.02 242.681 229.441 242.617 226.735 242.617V248.617ZM149.966 248.617H226.735V242.617H149.966V248.617ZM152.792 246.749L152.9 246.243L147.032 244.992L146.924 245.498L152.792 246.749ZM132.284 252.478C137.098 250.766 143.011 249.627 150.075 249.115L149.642 243.131C142.206 243.67 135.732 244.883 130.274 246.825L132.284 252.478ZM116.448 262.472C120.212 258.273 125.44 254.912 132.284 252.478L130.274 246.825C122.697 249.52 116.548 253.371 111.98 258.468L116.448 262.472ZM107.44 278.508C109.57 272.269 112.591 266.925 116.482 262.434L111.947 258.505C107.506 263.631 104.118 269.667 101.761 276.57L107.44 278.508ZM101.531 299.776C103.108 292.048 105.073 284.982 107.418 278.57L101.783 276.509C99.3214 283.239 97.2803 290.597 95.6524 298.576L101.531 299.776ZM99.4073 312.275C99.8757 308.371 100.581 304.215 101.525 299.805L95.6584 298.548C94.6803 303.113 93.943 307.451 93.45 311.561L99.4073 312.275ZM98.4673 322.977C98.4673 319.798 98.7703 316.273 99.391 312.392L93.4663 311.444C92.8053 315.577 92.4673 319.424 92.4673 322.977H98.4673ZM102.184 339.806C99.7596 335.384 98.4673 329.82 98.4673 322.977H92.4673C92.4673 330.559 93.899 337.175 96.9226 342.69L102.184 339.806ZM114.344 349.993C108.3 347.634 104.396 344.226 102.237 339.907L96.8698 342.59C99.838 348.528 105.067 352.813 112.162 355.583L114.344 349.993ZM126.833 352.866C121.779 352.251 117.634 351.278 114.344 349.993L112.162 355.583C116.055 357.102 120.722 358.167 126.108 358.822L126.833 352.866Z" fill="url(#paint3_linear_55_1969)" mask="url(#path-5-outside-2_55_1969)"/>
<mask id="path-7-outside-3_55_1969" maskUnits="userSpaceOnUse" x="92.4673" y="279.701" width="183" height="118" fill="black">
<rect fill="white" x="92.4673" y="279.701" width="183" height="118"/>
<path fill-rule="evenodd" clip-rule="evenodd" d="M126.471 392.928L126.382 393.342H130.659C133.884 393.593 137.375 393.718 141.133 393.718H217.804L217.95 393.028C225.23 392.505 231.447 391.33 236.602 389.502C243.821 386.942 249.517 383.342 253.688 378.702C257.859 373.902 261.068 368.222 263.314 361.662C265.721 355.102 267.726 347.902 269.33 340.062C270.293 335.582 271.015 331.341 271.496 327.341C272.138 323.341 272.459 319.661 272.459 316.301C272.459 309.101 271.095 303.021 268.368 298.061C265.801 292.941 261.228 289.101 254.651 286.541C251.012 285.125 246.54 284.101 241.232 283.468L241.355 282.889L234.314 282.889C231.921 282.763 229.394 282.701 226.735 282.701H149.966L149.858 283.207C142.608 283.732 136.415 284.908 131.279 286.735C124.069 289.3 118.38 292.906 114.214 297.554C110.048 302.362 106.844 308.052 104.6 314.623C102.197 321.194 100.194 328.406 98.5918 336.26C97.6304 340.748 96.9094 344.995 96.4287 349.002C95.7878 353.009 95.4673 356.695 95.4673 360.061C95.4673 367.273 96.8293 373.363 99.5532 378.332C102.117 383.461 106.683 387.307 113.253 389.872C116.845 391.274 121.251 392.292 126.471 392.928Z"/>
</mask>
<path d="M126.382 393.342L123.448 392.717L122.675 396.342H126.382V393.342ZM126.471 392.928L129.405 393.553L130.088 390.346L126.833 389.95L126.471 392.928ZM130.659 393.342L130.892 390.351L130.775 390.342H130.659V393.342ZM217.804 393.718V396.718H220.233L220.738 394.342L217.804 393.718ZM217.95 393.028L217.735 390.036L215.485 390.197L215.016 392.404L217.95 393.028ZM236.602 389.502L235.599 386.675H235.599L236.602 389.502ZM253.688 378.702L255.919 380.708L255.936 380.689L255.952 380.67L253.688 378.702ZM263.314 361.662L260.498 360.629L260.486 360.659L260.476 360.69L263.314 361.662ZM269.33 340.062L266.397 339.431L266.394 339.446L266.391 339.46L269.33 340.062ZM271.496 327.341L268.534 326.866L268.525 326.924L268.518 326.983L271.496 327.341ZM268.368 298.061L265.686 299.406L265.712 299.457L265.739 299.507L268.368 298.061ZM254.651 286.541L255.739 283.745L255.739 283.745L254.651 286.541ZM241.232 283.468L238.298 282.844L237.615 286.058L240.877 286.447L241.232 283.468ZM241.355 282.889L244.29 283.512L245.06 279.889H241.355V282.889ZM234.314 282.889L234.157 285.884L234.236 285.889H234.314V282.889ZM149.966 282.701V279.701H147.538L147.032 282.076L149.966 282.701ZM149.858 283.207L150.075 286.199L152.323 286.036L152.792 283.832L149.858 283.207ZM131.279 286.735L132.284 289.562V289.562L131.279 286.735ZM114.214 297.554L111.98 295.551L111.964 295.57L111.947 295.589L114.214 297.554ZM104.6 314.623L107.418 315.653L107.429 315.623L107.44 315.592L104.6 314.623ZM98.5918 336.26L101.525 336.888L101.528 336.874L101.531 336.86L98.5918 336.26ZM96.4287 349.002L99.391 349.476L99.4003 349.417L99.4073 349.359L96.4287 349.002ZM99.5532 378.332L102.237 376.991L102.211 376.94L102.184 376.89L99.5532 378.332ZM113.253 389.872L112.162 392.666H112.162L113.253 389.872ZM129.316 393.968L129.405 393.553L123.537 392.303L123.448 392.717L129.316 393.968ZM130.659 390.342H126.382V396.342H130.659V390.342ZM141.133 390.718C137.441 390.718 134.028 390.595 130.892 390.351L130.426 396.333C133.74 396.591 137.31 396.718 141.133 396.718V390.718ZM217.804 390.718H141.133V396.718H217.804V390.718ZM215.016 392.404L214.869 393.095L220.738 394.342L220.885 393.651L215.016 392.404ZM235.599 386.675C230.767 388.388 224.83 389.526 217.735 390.036L218.165 396.02C225.63 395.484 232.128 394.272 237.604 392.33L235.599 386.675ZM251.457 376.696C247.688 380.889 242.453 384.244 235.599 386.675L237.604 392.33C245.189 389.64 251.345 385.795 255.919 380.708L251.457 376.696ZM260.476 360.69C258.344 366.917 255.319 372.251 251.424 376.734L255.952 380.67C260.399 375.552 263.792 369.526 266.152 362.634L260.476 360.69ZM266.391 339.46C264.813 347.174 262.846 354.228 260.498 360.629L266.131 362.695C268.596 355.976 270.639 348.629 272.27 340.663L266.391 339.46ZM268.518 326.983C268.049 330.88 267.343 335.029 266.397 339.431L272.264 340.692C273.243 336.134 273.981 331.802 274.475 327.7L268.518 326.983ZM269.459 316.301C269.459 319.474 269.156 322.992 268.534 326.866L274.458 327.817C275.12 323.69 275.459 319.849 275.459 316.301H269.459ZM265.739 299.507C268.165 303.919 269.459 309.472 269.459 316.301H275.459C275.459 308.73 274.025 302.123 270.997 296.616L265.739 299.507ZM253.563 289.337C259.616 291.693 263.525 295.095 265.686 299.406L271.05 296.717C268.077 290.787 262.841 286.509 255.739 283.745L253.563 289.337ZM240.877 286.447C246.019 287.06 250.228 288.039 253.563 289.337L255.739 283.745C251.796 282.211 247.06 281.141 241.588 280.489L240.877 286.447ZM238.421 282.265L238.298 282.844L244.167 284.091L244.29 283.512L238.421 282.265ZM234.314 285.889H241.355V279.889H234.314V285.889ZM226.735 285.701C229.348 285.701 231.822 285.762 234.157 285.884L234.471 279.893C232.02 279.765 229.441 279.701 226.735 279.701V285.701ZM149.966 285.701H226.735V279.701H149.966V285.701ZM152.792 283.832L152.9 283.326L147.032 282.076L146.924 282.581L152.792 283.832ZM132.284 289.562C137.098 287.85 143.011 286.711 150.075 286.199L149.642 280.215C142.206 280.754 135.732 281.967 130.274 283.909L132.284 289.562ZM116.448 299.556C120.212 295.356 125.44 291.996 132.284 289.562L130.274 283.909C122.697 286.603 116.548 290.455 111.98 295.551L116.448 299.556ZM107.44 315.592C109.57 309.353 112.591 304.009 116.482 299.518L111.947 295.589C107.506 300.715 104.118 306.751 101.761 313.654L107.44 315.592ZM101.531 336.86C103.108 329.132 105.073 322.066 107.418 315.653L101.783 313.592C99.3214 320.322 97.2803 327.681 95.6524 335.66L101.531 336.86ZM99.4073 349.359C99.8757 345.455 100.581 341.298 101.525 336.888L95.6584 335.631C94.6803 340.197 93.943 344.535 93.45 348.644L99.4073 349.359ZM98.4673 360.061C98.4673 356.882 98.7703 353.356 99.391 349.476L93.4663 348.528C92.8053 352.661 92.4673 356.508 92.4673 360.061H98.4673ZM102.184 376.89C99.7596 372.468 98.4673 366.903 98.4673 360.061H92.4673C92.4673 367.643 93.899 374.259 96.9226 379.774L102.184 376.89ZM114.344 387.077C108.3 384.718 104.396 381.31 102.237 376.991L96.8698 379.673C99.838 385.611 105.067 389.897 112.162 392.666L114.344 387.077ZM126.833 389.95C121.779 389.335 117.634 388.361 114.344 387.077L112.162 392.666C116.055 394.186 120.722 395.25 126.108 395.906L126.833 389.95Z" fill="url(#paint4_linear_55_1969)" mask="url(#path-7-outside-3_55_1969)"/>
<mask id="path-9-outside-4_55_1969" maskUnits="userSpaceOnUse" x="92.4673" y="314.467" width="183" height="118" fill="black">
<rect fill="white" x="92.4673" y="314.467" width="183" height="118"/>
<path fill-rule="evenodd" clip-rule="evenodd" d="M126.471 427.694L126.382 428.108H130.659C133.884 428.359 137.375 428.484 141.133 428.484H217.804L217.95 427.793C225.23 427.271 231.447 426.095 236.602 424.268C243.821 421.708 249.517 418.108 253.688 413.468C257.859 408.668 261.068 402.988 263.314 396.427C265.721 389.867 267.726 382.667 269.33 374.827C270.293 370.347 271.015 366.107 271.496 362.107C272.138 358.107 272.459 354.427 272.459 351.067C272.459 343.867 271.095 337.787 268.368 332.827C265.801 327.707 261.228 323.867 254.651 321.307C251.012 319.891 246.54 318.866 241.232 318.233L241.355 317.654L234.314 317.654C231.921 317.529 229.394 317.467 226.735 317.467H149.966L149.858 317.972C142.608 318.498 136.415 319.674 131.279 321.501C124.069 324.065 118.38 327.671 114.214 332.319C110.048 337.128 106.844 342.817 104.6 349.388C102.197 355.96 100.194 363.172 98.5918 371.026C97.6304 375.513 96.9094 379.76 96.4287 383.767C95.7878 387.774 95.4673 391.461 95.4673 394.826C95.4673 402.039 96.8293 408.129 99.5532 413.098C102.117 418.226 106.683 422.073 113.253 424.637C116.845 426.039 121.251 427.058 126.471 427.694Z"/>
</mask>
<path d="M126.382 428.108L123.448 427.482L122.675 431.108H126.382V428.108ZM126.471 427.694L129.405 428.319L130.088 425.112L126.833 424.716L126.471 427.694ZM130.659 428.108L130.892 425.117L130.776 425.108H130.659V428.108ZM217.804 428.484V431.484H220.233L220.738 429.107L217.804 428.484ZM217.95 427.793L217.735 424.801L215.485 424.963L215.016 427.17L217.95 427.793ZM236.602 424.268L235.599 421.44H235.599L236.602 424.268ZM253.688 413.468L255.919 415.473L255.936 415.455L255.952 415.435L253.688 413.468ZM263.314 396.427L260.498 395.394L260.486 395.425L260.476 395.456L263.314 396.427ZM269.33 374.827L266.397 374.197L266.394 374.211L266.391 374.226L269.33 374.827ZM271.496 362.107L268.534 361.632L268.525 361.69L268.518 361.749L271.496 362.107ZM268.368 332.827L265.686 334.171L265.712 334.222L265.739 334.272L268.368 332.827ZM254.651 321.307L255.739 318.511L255.739 318.511L254.651 321.307ZM241.232 318.233L238.298 317.61L237.615 320.823L240.877 321.212L241.232 318.233ZM241.355 317.654L244.29 318.278L245.06 314.654H241.355V317.654ZM234.314 317.654L234.157 320.65L234.236 320.654H234.314V317.654ZM149.966 317.467V314.467H147.538L147.032 316.841L149.966 317.467ZM149.858 317.972L150.075 320.965L152.323 320.802L152.792 318.598L149.858 317.972ZM131.279 321.501L132.284 324.327V324.327L131.279 321.501ZM114.214 332.319L111.98 330.317L111.964 330.336L111.947 330.355L114.214 332.319ZM104.6 349.388L107.418 350.419L107.429 350.388L107.44 350.358L104.6 349.388ZM98.5918 371.026L101.525 371.654L101.528 371.64L101.531 371.625L98.5918 371.026ZM96.4287 383.767L99.391 384.241L99.4003 384.183L99.4073 384.125L96.4287 383.767ZM99.5532 413.098L102.237 411.756L102.211 411.705L102.184 411.655L99.5532 413.098ZM113.253 424.637L112.162 427.432H112.162L113.253 424.637ZM129.316 428.733L129.405 428.319L123.537 427.068L123.448 427.482L129.316 428.733ZM130.659 425.108H126.382V431.108H130.659V425.108ZM141.133 425.484C137.441 425.484 134.028 425.361 130.892 425.117L130.427 431.099C133.74 431.356 137.31 431.484 141.133 431.484V425.484ZM217.804 425.484H141.133V431.484H217.804V425.484ZM215.016 427.17L214.869 427.86L220.738 429.107L220.885 428.417L215.016 427.17ZM235.599 421.44C230.767 423.154 224.83 424.292 217.735 424.801L218.165 430.786C225.63 430.25 232.128 429.037 237.604 427.095L235.599 421.44ZM251.457 411.462C247.688 415.654 242.453 419.01 235.599 421.44L237.604 427.095C245.189 424.406 251.345 420.561 255.919 415.473L251.457 411.462ZM260.476 395.456C258.344 401.683 255.319 407.017 251.424 411.5L255.952 415.435C260.399 410.318 263.792 404.292 266.152 397.399L260.476 395.456ZM266.391 374.226C264.813 381.94 262.846 388.993 260.498 395.394L266.131 397.461C268.596 390.741 270.639 383.395 272.27 375.429L266.391 374.226ZM268.518 361.749C268.049 365.646 267.343 369.795 266.397 374.197L272.264 375.457C273.243 370.899 273.981 366.568 274.475 362.465L268.518 361.749ZM269.459 351.067C269.459 354.239 269.156 357.758 268.534 361.632L274.458 362.582C275.12 358.456 275.459 354.615 275.459 351.067H269.459ZM265.739 334.272C268.165 338.685 269.459 344.238 269.459 351.067H275.459C275.459 343.496 274.025 336.889 270.997 331.381L265.739 334.272ZM253.563 324.102C259.616 326.458 263.525 329.861 265.686 334.171L271.05 331.482C268.077 325.552 262.841 321.275 255.739 318.511L253.563 324.102ZM240.877 321.212C246.019 321.825 250.228 322.805 253.563 324.102L255.739 318.511C251.796 316.977 247.06 315.907 241.588 315.255L240.877 321.212ZM238.421 317.031L238.298 317.61L244.167 318.857L244.29 318.278L238.421 317.031ZM234.314 320.654L241.355 320.654V314.654L234.314 314.654V320.654ZM226.735 320.467C229.348 320.467 231.822 320.528 234.157 320.65L234.47 314.658C232.02 314.53 229.441 314.467 226.735 314.467V320.467ZM149.966 320.467H226.735V314.467H149.966V320.467ZM152.792 318.598L152.9 318.092L147.032 316.841L146.924 317.347L152.792 318.598ZM132.284 324.327C137.098 322.615 143.011 321.477 150.075 320.965L149.642 314.98C142.206 315.519 135.732 316.733 130.274 318.674L132.284 324.327ZM116.448 334.322C120.212 330.122 125.44 326.761 132.284 324.327L130.274 318.674C122.697 321.369 116.548 325.221 111.98 330.317L116.448 334.322ZM107.44 350.358C109.57 344.118 112.591 338.774 116.482 334.284L111.947 330.355C107.506 335.481 104.118 341.516 101.761 348.419L107.44 350.358ZM101.531 371.625C103.108 363.898 105.073 356.831 107.418 350.419L101.783 348.358C99.3214 355.088 97.2803 362.447 95.6524 370.426L101.531 371.625ZM99.4073 384.125C99.8757 380.22 100.581 376.064 101.525 371.654L95.6584 370.397C94.6803 374.963 93.943 379.301 93.45 383.41L99.4073 384.125ZM98.4673 394.826C98.4673 391.648 98.7703 388.122 99.391 384.241L93.4663 383.294C92.8053 387.426 92.4673 391.273 92.4673 394.826H98.4673ZM102.184 411.655C99.7596 407.234 98.4673 401.669 98.4673 394.826H92.4673C92.4673 402.408 93.899 409.025 96.9226 414.54L102.184 411.655ZM114.344 421.843C108.3 419.484 104.396 416.076 102.237 411.756L96.8698 414.439C99.838 420.377 105.067 424.662 112.162 427.432L114.344 421.843ZM126.833 424.716C121.779 424.1 117.634 423.127 114.344 421.843L112.162 427.432C116.055 428.952 120.722 430.016 126.108 430.672L126.833 424.716Z" fill="url(#paint5_linear_55_1969)" mask="url(#path-9-outside-4_55_1969)"/>
<mask id="path-11-outside-5_55_1969" maskUnits="userSpaceOnUse" x="92.4673" y="338.802" width="183" height="118" fill="black">
<rect fill="white" x="92.4673" y="338.802" width="183" height="118"/>
<path fill-rule="evenodd" clip-rule="evenodd" d="M126.471 452.03L126.382 452.444H130.659C133.884 452.694 137.375 452.82 141.133 452.82H217.804L217.95 452.129C225.23 451.607 231.447 450.431 236.602 448.604C243.821 446.044 249.517 442.444 253.688 437.804C257.859 433.004 261.068 427.323 263.314 420.763C265.721 414.203 267.726 407.003 269.33 399.163C270.293 394.683 271.015 390.443 271.496 386.443C272.138 382.443 272.459 378.763 272.459 375.403C272.459 368.203 271.095 362.123 268.368 357.163C265.801 352.043 261.228 348.203 254.651 345.643C251.012 344.227 246.54 343.202 241.232 342.569L241.355 341.99L234.314 341.99C231.921 341.865 229.394 341.802 226.735 341.802H149.966L149.858 342.308C142.608 342.834 136.415 344.01 131.279 345.837C124.069 348.401 118.38 352.007 114.214 356.655C110.048 361.463 106.844 367.153 104.6 373.724C102.197 380.296 100.194 387.508 98.5918 395.361C97.6304 399.849 96.9094 404.096 96.4287 408.103C95.7878 412.11 95.4673 415.796 95.4673 419.162C95.4673 426.375 96.8293 432.465 99.5532 437.433C102.117 442.562 106.683 446.409 113.253 448.973C116.845 450.375 121.251 451.394 126.471 452.03Z"/>
</mask>
<path d="M126.382 452.444L123.448 451.818L122.675 455.444H126.382V452.444ZM126.471 452.03L129.405 452.655L130.088 449.448L126.833 449.052L126.471 452.03ZM130.659 452.444L130.892 449.453L130.776 449.444H130.659V452.444ZM217.804 452.82V455.82H220.233L220.738 453.443L217.804 452.82ZM217.95 452.129L217.735 449.137L215.485 449.299L215.016 451.506L217.95 452.129ZM236.602 448.604L235.599 445.776H235.599L236.602 448.604ZM253.688 437.804L255.919 439.809L255.936 439.79L255.952 439.771L253.688 437.804ZM263.314 420.763L260.498 419.73L260.486 419.761L260.476 419.792L263.314 420.763ZM269.33 399.163L266.397 398.533L266.394 398.547L266.391 398.562L269.33 399.163ZM271.496 386.443L268.534 385.968L268.525 386.026L268.518 386.085L271.496 386.443ZM268.368 357.163L265.686 358.507L265.712 358.558L265.739 358.608L268.368 357.163ZM254.651 345.643L255.739 342.847L255.739 342.847L254.651 345.643ZM241.232 342.569L238.298 341.946L237.615 345.159L240.877 345.548L241.232 342.569ZM241.355 341.99L244.29 342.614L245.06 338.99H241.355V341.99ZM234.314 341.99L234.157 344.986L234.236 344.99H234.314V341.99ZM149.966 341.802V338.802H147.538L147.032 341.177L149.966 341.802ZM149.858 342.308L150.075 345.301L152.323 345.138L152.792 342.934L149.858 342.308ZM131.279 345.837L132.284 348.663V348.663L131.279 345.837ZM114.214 356.655L111.98 354.653L111.964 354.672L111.947 354.691L114.214 356.655ZM104.6 373.724L107.418 374.755L107.429 374.724L107.44 374.694L104.6 373.724ZM98.5918 395.361L101.525 395.99L101.528 395.976L101.531 395.961L98.5918 395.361ZM96.4287 408.103L99.391 408.577L99.4003 408.519L99.4073 408.461L96.4287 408.103ZM99.5532 437.433L102.237 436.092L102.211 436.041L102.184 435.991L99.5532 437.433ZM113.253 448.973L112.162 451.768H112.162L113.253 448.973ZM129.316 453.069L129.405 452.655L123.537 451.404L123.448 451.818L129.316 453.069ZM130.659 449.444H126.382V455.444H130.659V449.444ZM141.133 449.82C137.441 449.82 134.028 449.697 130.892 449.453L130.427 455.435C133.74 455.692 137.31 455.82 141.133 455.82V449.82ZM217.804 449.82H141.133V455.82H217.804V449.82ZM215.016 451.506L214.869 452.196L220.738 453.443L220.885 452.753L215.016 451.506ZM235.599 445.776C230.767 447.489 224.83 448.628 217.735 449.137L218.165 455.122C225.63 454.586 232.128 453.373 237.604 451.431L235.599 445.776ZM251.457 435.798C247.688 439.99 242.453 443.346 235.599 445.776L237.604 451.431C245.189 448.742 251.345 444.897 255.919 439.809L251.457 435.798ZM260.476 419.792C258.344 426.019 255.319 431.353 251.424 435.836L255.952 439.771C260.399 434.654 263.792 428.628 266.152 421.735L260.476 419.792ZM266.391 398.562C264.813 406.276 262.846 413.329 260.498 419.73L266.131 421.797C268.596 415.077 270.639 407.731 272.27 399.765L266.391 398.562ZM268.518 386.085C268.049 389.982 267.343 394.131 266.397 398.533L272.264 399.793C273.243 395.235 273.981 390.904 274.475 386.801L268.518 386.085ZM269.459 375.403C269.459 378.575 269.156 382.094 268.534 385.968L274.458 386.918C275.12 382.792 275.459 378.951 275.459 375.403H269.459ZM265.739 358.608C268.165 363.021 269.459 368.574 269.459 375.403H275.459C275.459 367.832 274.025 361.225 270.997 355.717L265.739 358.608ZM253.563 348.438C259.616 350.794 263.525 354.197 265.686 358.507L271.05 355.818C268.077 349.888 262.841 345.611 255.739 342.847L253.563 348.438ZM240.877 345.548C246.019 346.161 250.228 347.141 253.563 348.438L255.739 342.847C251.796 341.312 247.06 340.243 241.588 339.59L240.877 345.548ZM238.421 341.367L238.298 341.946L244.167 343.193L244.29 342.614L238.421 341.367ZM234.314 344.99L241.355 344.99V338.99L234.314 338.99V344.99ZM226.735 344.802C229.348 344.802 231.822 344.864 234.157 344.986L234.47 338.994C232.02 338.866 229.441 338.802 226.735 338.802V344.802ZM149.966 344.802H226.735V338.802H149.966V344.802ZM152.792 342.934L152.9 342.428L147.032 341.177L146.924 341.683L152.792 342.934ZM132.284 348.663C137.098 346.951 143.011 345.813 150.075 345.301L149.642 339.316C142.206 339.855 135.732 341.069 130.274 343.01L132.284 348.663ZM116.448 358.658C120.212 354.458 125.44 351.097 132.284 348.663L130.274 343.01C122.697 345.705 116.548 349.557 111.98 354.653L116.448 358.658ZM107.44 374.694C109.57 368.454 112.591 363.11 116.482 358.62L111.947 354.691C107.506 359.816 104.118 365.852 101.761 372.755L107.44 374.694ZM101.531 395.961C103.108 388.234 105.073 381.167 107.418 374.755L101.783 372.694C99.3214 379.424 97.2803 386.782 95.6524 394.762L101.531 395.961ZM99.4073 408.461C99.8757 404.556 100.581 400.4 101.525 395.99L95.6584 394.733C94.6803 399.298 93.943 403.637 93.45 407.746L99.4073 408.461ZM98.4673 419.162C98.4673 415.983 98.7703 412.458 99.391 408.577L93.4663 407.629C92.8053 411.762 92.4673 415.609 92.4673 419.162H98.4673ZM102.184 435.991C99.7596 431.569 98.4673 426.005 98.4673 419.162H92.4673C92.4673 426.744 93.899 433.361 96.9226 438.876L102.184 435.991ZM114.344 446.179C108.3 443.82 104.396 440.412 102.237 436.092L96.8698 438.775C99.838 444.713 105.067 448.998 112.162 451.768L114.344 446.179ZM126.833 449.052C121.779 448.436 117.634 447.463 114.344 446.179L112.162 451.768C116.055 453.288 120.722 454.352 126.108 455.008L126.833 449.052Z" fill="url(#paint6_linear_55_1969)" mask="url(#path-11-outside-5_55_1969)"/>
<mask id="path-13-outside-6_55_1969" maskUnits="userSpaceOnUse" x="92.4673" y="191.627" width="183" height="118" fill="black">
<rect fill="white" x="92.4673" y="191.627" width="183" height="118"/>
<path fill-rule="evenodd" clip-rule="evenodd" d="M126.471 304.854L126.382 305.268H130.659C133.884 305.519 137.375 305.645 141.133 305.645H217.804L217.95 304.954C225.23 304.431 231.447 303.256 236.602 301.428C243.821 298.868 249.517 295.268 253.688 290.628C257.859 285.828 261.068 280.148 263.314 273.588C265.721 267.028 267.726 259.828 269.33 251.988C270.293 247.508 271.015 243.268 271.496 239.268C272.138 235.268 272.459 231.588 272.459 228.228C272.459 221.027 271.095 214.947 268.368 209.987C265.801 204.867 261.228 201.027 254.651 198.467C251.012 197.051 246.54 196.027 241.232 195.394L241.355 194.815L234.314 194.815C231.921 194.69 229.394 194.627 226.735 194.627H149.966L149.858 195.133C142.608 195.659 136.415 196.835 131.279 198.661C124.069 201.226 118.38 204.832 114.214 209.48C110.048 214.288 106.844 219.978 104.6 226.549C102.197 233.12 100.194 240.333 98.5918 248.186C97.6304 252.674 96.9094 256.921 96.4287 260.928C95.7878 264.935 95.4673 268.621 95.4673 271.987C95.4673 279.199 96.8293 285.29 99.5532 290.258C102.117 295.387 106.683 299.234 113.253 301.798C116.845 303.2 121.251 304.219 126.471 304.854Z"/>
</mask>
<path d="M126.382 305.268L123.448 304.643L122.675 308.268H126.382V305.268ZM126.471 304.854L129.405 305.48L130.088 302.272L126.833 301.876L126.471 304.854ZM130.659 305.268L130.892 302.277L130.776 302.268H130.659V305.268ZM217.804 305.645V308.645H220.233L220.738 306.268L217.804 305.645ZM217.95 304.954L217.735 301.962L215.485 302.123L215.016 304.331L217.95 304.954ZM236.602 301.428L235.599 298.601L236.602 301.428ZM253.688 290.628L255.919 292.634L255.936 292.615L255.952 292.596L253.688 290.628ZM263.314 273.588L260.498 272.555L260.486 272.585L260.476 272.616L263.314 273.588ZM269.33 251.988L266.397 251.358L266.394 251.372L266.391 251.386L269.33 251.988ZM271.496 239.268L268.534 238.792L268.525 238.851L268.518 238.909L271.496 239.268ZM268.368 209.987L265.686 211.332L265.712 211.383L265.739 211.433L268.368 209.987ZM254.651 198.467L255.739 195.672L255.739 195.672L254.651 198.467ZM241.232 195.394L238.298 194.77L237.615 197.984L240.877 198.373L241.232 195.394ZM241.355 194.815L244.29 195.438L245.06 191.815H241.355V194.815ZM234.314 194.815L234.157 197.811L234.236 197.815H234.314V194.815ZM149.966 194.627V191.627H147.538L147.032 194.002L149.966 194.627ZM149.858 195.133L150.075 198.125L152.323 197.962L152.792 195.759L149.858 195.133ZM131.279 198.661L132.284 201.488V201.488L131.279 198.661ZM114.214 209.48L111.98 207.478L111.964 207.496L111.947 207.515L114.214 209.48ZM104.6 226.549L107.418 227.58L107.429 227.549L107.44 227.518L104.6 226.549ZM98.5918 248.186L101.525 248.815L101.528 248.8L101.531 248.786L98.5918 248.186ZM96.4287 260.928L99.391 261.402L99.4003 261.344L99.4073 261.285L96.4287 260.928ZM99.5532 290.258L102.237 288.917L102.211 288.866L102.184 288.816L99.5532 290.258ZM113.253 301.798L112.162 304.593H112.162L113.253 301.798ZM129.316 305.894L129.405 305.48L123.537 304.229L123.448 304.643L129.316 305.894ZM130.659 302.268H126.382V308.268H130.659V302.268ZM141.133 302.645C137.441 302.645 134.028 302.521 130.892 302.277L130.427 308.259C133.74 308.517 137.31 308.645 141.133 308.645V302.645ZM217.804 302.645H141.133V308.645H217.804V302.645ZM215.016 304.331L214.869 305.021L220.738 306.268L220.885 305.578L215.016 304.331ZM235.599 298.601C230.767 300.314 224.83 301.452 217.735 301.962L218.165 307.946C225.63 307.41 232.128 306.198 237.604 304.256L235.599 298.601ZM251.457 288.623C247.688 292.815 242.453 296.17 235.599 298.601L237.604 304.256C245.189 301.566 251.345 297.722 255.919 292.634L251.457 288.623ZM260.476 272.616C258.344 278.844 255.319 284.178 251.424 288.66L255.952 292.596C260.399 287.479 263.792 281.453 266.152 274.56L260.476 272.616ZM266.391 251.386C264.813 259.1 262.846 266.154 260.498 272.555L266.131 274.621C268.596 267.902 270.639 260.556 272.27 252.589L266.391 251.386ZM268.518 238.909C268.049 242.807 267.343 246.956 266.397 251.358L272.264 252.618C273.243 248.06 273.981 243.729 274.475 239.626L268.518 238.909ZM269.459 228.228C269.459 231.4 269.156 234.919 268.534 238.792L274.458 239.743C275.12 235.617 275.459 231.775 275.459 228.228H269.459ZM265.739 211.433C268.165 215.846 269.459 221.398 269.459 228.228H275.459C275.459 220.657 274.025 214.049 270.997 208.542L265.739 211.433ZM253.563 201.263C259.616 203.619 263.525 207.022 265.686 211.332L271.05 208.643C268.077 202.713 262.841 198.436 255.739 195.672L253.563 201.263ZM240.877 198.373C246.019 198.986 250.228 199.965 253.563 201.263L255.739 195.672C251.796 194.137 247.06 193.068 241.588 192.415L240.877 198.373ZM238.421 194.191L238.298 194.77L244.167 196.018L244.29 195.438L238.421 194.191ZM234.314 197.815H241.355V191.815H234.314V197.815ZM226.735 197.627C229.348 197.627 231.822 197.689 234.157 197.811L234.47 191.819C232.02 191.691 229.441 191.627 226.735 191.627V197.627ZM149.966 197.627H226.735V191.627H149.966V197.627ZM152.792 195.759L152.9 195.253L147.032 194.002L146.924 194.508L152.792 195.759ZM132.284 201.488C137.098 199.776 143.011 198.637 150.075 198.125L149.642 192.141C142.206 192.68 135.732 193.893 130.274 195.835L132.284 201.488ZM116.448 211.482C120.212 207.283 125.44 203.922 132.284 201.488L130.274 195.835C122.697 198.53 116.548 202.381 111.98 207.478L116.448 211.482ZM107.44 227.518C109.57 221.279 112.591 215.935 116.482 211.444L111.947 207.515C107.506 212.641 104.118 218.677 101.761 225.58L107.44 227.518ZM101.531 248.786C103.108 241.058 105.073 233.992 107.418 227.58L101.783 225.519C99.3214 232.249 97.2803 239.607 95.6524 247.586L101.531 248.786ZM99.4073 261.285C99.8757 257.381 100.581 253.225 101.525 248.815L95.6584 247.558C94.6803 252.123 93.943 256.461 93.45 260.571L99.4073 261.285ZM98.4673 271.987C98.4673 268.808 98.7703 265.283 99.391 261.402L93.4663 260.454C92.8053 264.587 92.4673 268.434 92.4673 271.987H98.4673ZM102.184 288.816C99.7596 284.394 98.4673 278.83 98.4673 271.987H92.4673C92.4673 279.569 93.899 286.185 96.9226 291.7L102.184 288.816ZM114.344 299.003C108.3 296.644 104.396 293.236 102.237 288.917L96.8698 291.6C99.838 297.538 105.067 301.823 112.162 304.593L114.344 299.003ZM126.833 301.876C121.779 301.261 117.634 300.288 114.344 299.003L112.162 304.593C116.055 306.112 120.722 307.177 126.108 307.832L126.833 301.876Z" fill="url(#paint7_linear_55_1969)" mask="url(#path-13-outside-6_55_1969)"/>
</g>
</g>
<defs>
<filter id="filter0_ddi_55_1969" x="-95" y="-12" width="558" height="558" filterUnits="userSpaceOnUse" color-interpolation-filters="sRGB">
<feFlood flood-opacity="0" result="BackgroundImageFix"/>
<feColorMatrix in="SourceAlpha" type="matrix" values="0 0 0 0 0 0 0 0 0 0 0 0 0 0 0 0 0 0 127 0" result="hardAlpha"/>
<feOffset dy="34"/>
<feGaussianBlur stdDeviation="21.5"/>
<feComposite in2="hardAlpha" operator="out"/>
<feColorMatrix type="matrix" values="0 0 0 0 0 0 0 0 0 0 0 0 0 0 0 0 0 0 0.5 0"/>
<feBlend mode="normal" in2="BackgroundImageFix" result="effect1_dropShadow_55_1969"/>
<feColorMatrix in="SourceAlpha" type="matrix" values="0 0 0 0 0 0 0 0 0 0 0 0 0 0 0 0 0 0 127 0" result="hardAlpha"/>
<feOffset dy="4"/>
<feGaussianBlur stdDeviation="95"/>
<feComposite in2="hardAlpha" operator="out"/>
<feColorMatrix type="matrix" values="0 0 0 0 0.7119 0 0 0 0 0.405 0 0 0 0 0.9 0 0 0 1 0"/>
<feBlend mode="normal" in2="effect1_dropShadow_55_1969" result="effect2_dropShadow_55_1969"/>
<feBlend mode="normal" in="SourceGraphic" in2="effect2_dropShadow_55_1969" result="shape"/>
<feColorMatrix in="SourceAlpha" type="matrix" values="0 0 0 0 0 0 0 0 0 0 0 0 0 0 0 0 0 0 127 0" result="hardAlpha"/>
<feOffset dy="-6"/>
<feGaussianBlur stdDeviation="7.5"/>
<feComposite in2="hardAlpha" operator="arithmetic" k2="-1" k3="1"/>
<feColorMatrix type="matrix" values="0 0 0 0 0 0 0 0 0 0 0 0 0 0 0 0 0 0 0.15 0"/>
<feBlend mode="normal" in2="shape" result="effect3_innerShadow_55_1969"/>
</filter>
<radialGradient id="paint0_radial_55_1969" cx="0" cy="0" r="1" gradientUnits="userSpaceOnUse" gradientTransform="translate(184 263) scale(89)">
<stop stop-color="#9142B6"/>
<stop offset="0.255208" stop-color="#1392A4"/>
<stop offset="1" stop-color="#F7AD3F"/>
</radialGradient>
<radialGradient id="paint1_radial_55_1969" cx="0" cy="0" r="1" gradientUnits="userSpaceOnUse" gradientTransform="translate(184 263) scale(89)">
<stop stop-color="#9142B6"/>
<stop offset="0.255208" stop-color="#1392A4"/>
<stop offset="1" stop-color="#F7AD3F"/>
</radialGradient>
<linearGradient id="paint2_linear_55_1969" x1="183.963" y1="214.328" x2="183.963" y2="325.345" gradientUnits="userSpaceOnUse">
<stop stop-color="#67FF64"/>
<stop offset="1" stop-color="white" stop-opacity="0"/>
</linearGradient>
<linearGradient id="paint3_linear_55_1969" x1="183.963" y1="245.617" x2="183.963" y2="356.635" gradientUnits="userSpaceOnUse">
<stop stop-color="#67FF64"/>
<stop offset="1" stop-color="white" stop-opacity="0"/>
</linearGradient>
<linearGradient id="paint4_linear_55_1969" x1="183.963" y1="282.701" x2="183.963" y2="393.718" gradientUnits="userSpaceOnUse">
<stop stop-color="#67FF64"/>
<stop offset="1" stop-color="white" stop-opacity="0"/>
</linearGradient>
<linearGradient id="paint5_linear_55_1969" x1="183.963" y1="317.467" x2="183.963" y2="428.484" gradientUnits="userSpaceOnUse">
<stop stop-color="#67FF64"/>
<stop offset="1" stop-color="white" stop-opacity="0"/>
</linearGradient>
<linearGradient id="paint6_linear_55_1969" x1="183.963" y1="341.802" x2="183.963" y2="452.82" gradientUnits="userSpaceOnUse">
<stop stop-color="#67FF64"/>
<stop offset="1" stop-color="white" stop-opacity="0"/>
</linearGradient>
<linearGradient id="paint7_linear_55_1969" x1="183.963" y1="194.627" x2="183.963" y2="305.645" gradientUnits="userSpaceOnUse">
<stop stop-color="#67FF64"/>
<stop offset="1" stop-color="white" stop-opacity="0"/>
</linearGradient>
</defs>
</svg>
