<?xml version="1.0" encoding="UTF-8"?>
<!DOCTYPE svg PUBLIC "-//W3C//DTD SVG 1.1//EN" "http://www.w3.org/Graphics/SVG/1.1/DTD/svg11.dtd">
<svg xmlns="http://www.w3.org/2000/svg" version="1.1" width="800px" height="400px" style="shape-rendering:geometricPrecision; text-rendering:geometricPrecision; image-rendering:optimizeQuality; fill-rule:evenodd; clip-rule:evenodd" xmlns:xlink="http://www.w3.org/1999/xlink">
<g><path style="opacity:1" fill="#0173cf" d="M -0.5,-0.5 C 266.167,-0.5 532.833,-0.5 799.5,-0.5C 799.5,132.833 799.5,266.167 799.5,399.5C 532.833,399.5 266.167,399.5 -0.5,399.5C -0.5,266.167 -0.5,132.833 -0.5,-0.5 Z"/></g>
<g><path style="opacity:1" fill="#f9fbfd" d="M 357.5,68.5 C 370.126,67.4708 377.459,73.1375 379.5,85.5C 379.239,89.4499 378.072,93.1166 376,96.5C 365.573,103.592 357.24,112.592 351,123.5C 342.319,146.424 346.153,166.924 362.5,185C 370.396,192.448 379.729,196.948 390.5,198.5C 390.5,240.167 390.5,281.833 390.5,323.5C 386.833,323.5 383.167,323.5 379.5,323.5C 379.833,282.495 379.5,241.495 378.5,200.5C 341.278,186.423 323.445,159.423 325,119.5C 327.874,100.582 336.374,84.7486 350.5,72C 352.713,70.3838 355.047,69.2172 357.5,68.5 Z"/></g>
<g><path style="opacity:1" fill="#f9fbfd" d="M 432.5,68.5 C 442.928,67.7971 451.095,71.7971 457,80.5C 480.574,113.077 480.241,145.411 456,177.5C 446.192,188.818 434.025,196.151 419.5,199.5C 419.5,240.833 419.5,282.167 419.5,323.5C 415.833,323.5 412.167,323.5 408.5,323.5C 408.5,281.833 408.5,240.167 408.5,198.5C 430.004,194.004 444.171,181.337 451,160.5C 455.371,143.336 452.371,127.669 442,113.5C 436.262,107.092 429.929,101.425 423,96.5C 416.796,83.9208 419.963,74.5875 432.5,68.5 Z"/></g>
<g><path style="opacity:1" fill="#f9fcfe" d="M 302.5,103.5 C 310.933,102.797 317.099,106.131 321,113.5C 318.059,147.096 329.892,173.93 356.5,194C 362.655,198.105 369.322,200.938 376.5,202.5C 376.5,242.833 376.5,283.167 376.5,323.5C 372.833,323.5 369.167,323.5 365.5,323.5C 365.5,283.833 365.5,244.167 365.5,204.5C 324.672,190.025 300.006,161.525 291.5,119C 291.86,111.435 295.527,106.268 302.5,103.5 Z"/></g>
<g><path style="opacity:1" fill="#f9fcfe" d="M 488.5,103.5 C 503.018,103.224 509.185,110.224 507,124.5C 496.823,163.859 472.657,190.526 434.5,204.5C 433.5,244.161 433.167,283.828 433.5,323.5C 429.833,323.5 426.167,323.5 422.5,323.5C 422.5,283.167 422.5,242.833 422.5,202.5C 451.192,193.304 469.025,173.971 476,144.5C 477.204,134.216 477.87,123.882 478,113.5C 480.081,108.584 483.581,105.25 488.5,103.5 Z"/></g>
<g><path style="opacity:1" fill="#fac907" d="M 394.5,124.5 C 417.317,125.814 424.817,137.148 417,158.5C 405.302,170.444 393.635,170.444 382,158.5C 374.684,142.818 378.851,131.485 394.5,124.5 Z"/></g>
<g><path style="opacity:1" fill="#f9fbfd" d="M 280.5,138.5 C 283.518,138.335 286.518,138.502 289.5,139C 290.931,139.465 292.097,140.299 293,141.5C 306.489,173.155 329.322,195.155 361.5,207.5C 362.5,246.161 362.833,284.828 362.5,323.5C 358.833,323.5 355.167,323.5 351.5,323.5C 351.833,285.494 351.5,247.494 350.5,209.5C 318.795,198.428 293.628,179.095 275,151.5C 273.831,145.853 275.665,141.519 280.5,138.5 Z"/></g>
<g><path style="opacity:1" fill="#f9fbfd" d="M 509.5,138.5 C 521.807,137.496 526.307,142.829 523,154.5C 503.695,180.454 478.695,198.787 448,209.5C 447.5,247.499 447.333,285.499 447.5,323.5C 443.833,323.5 440.167,323.5 436.5,323.5C 436.333,284.832 436.5,246.165 437,207.5C 468.39,196.109 490.724,175.109 504,144.5C 505.36,141.977 507.193,139.977 509.5,138.5 Z"/></g>
<g><path style="opacity:1" fill="#fcfdfe" d="M 271.5,164.5 C 274.607,164.351 277.607,164.851 280.5,166C 298.65,187.316 320.984,202.482 347.5,211.5C 347.5,248.833 347.5,286.167 347.5,323.5C 344.167,323.5 340.833,323.5 337.5,323.5C 337.5,287.167 337.5,250.833 337.5,214.5C 311.728,207.365 288.561,195.365 268,178.5C 265.267,172.722 266.434,168.056 271.5,164.5 Z"/></g>
<g><path style="opacity:1" fill="#fcfdfe" d="M 463.5,214.5 C 461.506,250.485 460.84,286.818 461.5,323.5C 458.167,323.5 454.833,323.5 451.5,323.5C 451.167,286.161 451.5,248.827 452.5,211.5C 478.854,201.299 501.521,185.799 520.5,165C 531.082,163.999 534.582,168.499 531,178.5C 510.904,194.801 488.404,206.801 463.5,214.5 Z"/></g>
<g><path style="opacity:1" fill="#fefefe" d="M 394.5,199.5 C 397.833,199.5 401.167,199.5 404.5,199.5C 404.5,240.833 404.5,282.167 404.5,323.5C 401.167,323.5 397.833,323.5 394.5,323.5C 394.5,282.167 394.5,240.833 394.5,199.5 Z"/></g>
<g><path style="opacity:1" fill="#3a92da" d="M 463.5,214.5 C 462.839,250.931 462.173,287.264 461.5,323.5C 460.84,286.818 461.506,250.485 463.5,214.5 Z"/></g>
</svg>
