<svg width="156" height="123" viewBox="0 0 156 123" fill="none" xmlns="http://www.w3.org/2000/svg">
<path d="M2 121C25.1836 107.936 51.3694 101.09 78 101.13C105.62 101.13 131.55 108.344 154 121M111.144 35.0433C111.144 43.8069 107.652 52.2116 101.437 58.4085C95.2208 64.6053 86.7904 68.0866 78 68.0866C69.2096 68.0866 60.7792 64.6053 54.5634 58.4085C48.3476 52.2116 44.8557 43.8069 44.8557 35.0433C44.8557 26.2797 48.3476 17.875 54.5634 11.6782C60.7792 5.48134 69.2096 2 78 2C86.7904 2 95.2208 5.48134 101.437 11.6782C107.652 17.875 111.144 26.2797 111.144 35.0433Z" stroke="#FF0000" stroke-width="4" stroke-linecap="round" stroke-linejoin="round"/>
</svg>
