<svg width="27" height="26" viewBox="0 0 27 26" fill="none" xmlns="http://www.w3.org/2000/svg">
<path fill-rule="evenodd" clip-rule="evenodd" d="M26.3399 13.2956C26.3399 12.3737 26.2571 11.4874 26.1035 10.6365H13.8599V15.6651H20.8562C20.5549 17.2901 19.639 18.6669 18.2621 19.5887V22.8506H22.4635C24.9217 20.5874 26.3399 17.2547 26.3399 13.2956Z" fill="#4285F4"/>
<path fill-rule="evenodd" clip-rule="evenodd" d="M13.8599 26C17.3699 26 20.3127 24.8359 22.4636 22.8504L18.2622 19.5886C17.0981 20.3686 15.609 20.8295 13.8599 20.8295C10.474 20.8295 7.60813 18.5427 6.58586 15.47H2.24268V18.8382C4.38177 23.0868 8.77813 26 13.8599 26Z" fill="#34A853"/>
<path fill-rule="evenodd" clip-rule="evenodd" d="M6.58577 15.47C6.32577 14.69 6.17804 13.8569 6.17804 13C6.17804 12.1432 6.32577 11.31 6.58577 10.53V7.16187H2.24259C1.36214 8.91686 0.859863 10.9023 0.859863 13C0.859863 15.0978 1.36214 17.0832 2.24259 18.8382L6.58577 15.47Z" fill="#FBBC05"/>
<path fill-rule="evenodd" clip-rule="evenodd" d="M13.8599 5.17045C15.7686 5.17045 17.4822 5.82636 18.8295 7.11454L22.5581 3.38591C20.3068 1.28818 17.364 0 13.8599 0C8.77813 0 4.38177 2.91318 2.24268 7.16182L6.58586 10.53C7.60813 7.45727 10.474 5.17045 13.8599 5.17045Z" fill="#EA4335"/>
</svg>
