<svg width="19" height="20" viewBox="0 0 19 20" fill="none" xmlns="http://www.w3.org/2000/svg">
<path fill-rule="evenodd" clip-rule="evenodd" d="M9.38079 18.4686C14.2165 18.4686 18.1366 14.5485 18.1366 9.71282C18.1366 4.87713 14.2165 0.957031 9.38079 0.957031C4.5451 0.957031 0.625 4.87713 0.625 9.71282C0.625 11.7982 1.35402 13.7133 2.57112 15.2171C3.93084 17.1817 6.20037 18.4686 8.77047 18.4686C8.86882 18.4686 8.96674 18.4667 9.06418 18.463C9.16925 18.4667 9.2748 18.4686 9.38079 18.4686ZM9.06418 18.463C13.089 18.3087 16.3045 14.9972 16.3045 10.9346C16.3045 6.77362 12.9314 3.40051 8.77047 3.40051C4.60952 3.40051 1.23641 6.77362 1.23641 10.9346C1.23641 12.5254 1.72947 14.0011 2.57112 15.2171C4.11445 17.1241 6.44257 18.3698 9.06418 18.463Z" fill="#F5990F"/>
<path d="M8.28903 10.2495L13.2538 5.64381L9.96489 11.4448L8.28903 10.2495Z" fill="#F5990F"/>
<circle cx="9" cy="11" r="1" fill="#F5990F"/>
</svg>
