<svg width="78" height="78" viewBox="0 0 78 78" fill="none" xmlns="http://www.w3.org/2000/svg">
<circle cx="39" cy="38.8945" r="21" fill="#1392A4"/>
<path opacity="0.2" d="M66.9997 38.6899C66.9997 54.1539 54.4638 66.6899 38.9999 66.6899C23.536 66.6899 11 54.1539 11 38.6899C11 23.226 23.536 10.6899 38.9999 10.6899C54.4638 10.6899 66.9997 23.226 66.9997 38.6899Z" stroke="#1392A4" stroke-width="2"/>
<circle opacity="0.1" cx="39" cy="39" r="38.5" stroke="#1392A4"/>
<path d="M32.6361 45.3642C31.8003 44.5285 31.1374 43.5363 30.6851 42.4444C30.2328 41.3525 30 40.1821 30 39.0002C30 37.8183 30.2328 36.648 30.6851 35.5561C31.1374 34.4641 31.8003 33.472 32.6361 32.6362M45.3641 32.6362C46.1998 33.472 46.8628 34.4641 47.3151 35.5561C47.7674 36.648 48.0002 37.8183 48.0002 39.0002C48.0002 40.1821 47.7674 41.3525 47.3151 42.4444C46.8628 43.5363 46.1998 44.5285 45.3641 45.3642M35.4641 42.5352C34.5267 41.5976 34.0001 40.3261 34.0001 39.0002C34.0001 37.6744 34.5267 36.4029 35.4641 35.4652M42.5361 35.4652C43.4734 36.4029 44 37.6744 44 39.0002C44 40.3261 43.4734 41.5976 42.5361 42.5352M40.0001 39.0002C40.0001 39.2654 39.8947 39.5198 39.7072 39.7073C39.5196 39.8949 39.2653 40.0002 39.0001 40.0002C38.7349 40.0002 38.4805 39.8949 38.293 39.7073C38.1054 39.5198 38.0001 39.2654 38.0001 39.0002C38.0001 38.735 38.1054 38.4807 38.293 38.2931C38.4805 38.1056 38.7349 38.0002 39.0001 38.0002C39.2653 38.0002 39.5196 38.1056 39.7072 38.2931C39.8947 38.4807 40.0001 38.735 40.0001 39.0002Z" stroke="white" stroke-width="2" stroke-linecap="round" stroke-linejoin="round"/>
</svg>
