<svg width="42" height="43" viewBox="0 0 42 43" fill="none" xmlns="http://www.w3.org/2000/svg">
<circle cx="21" cy="21.8945" r="21" fill="#1392A4"/>
<path d="M14.636 28.3642C13.8003 27.5285 13.1373 26.5363 12.685 25.4444C12.2327 24.3525 11.9999 23.1821 11.9999 22.0002C11.9999 20.8183 12.2327 19.648 12.685 18.5561C13.1373 17.4641 13.8003 16.472 14.636 15.6362M27.364 15.6362C28.1997 16.472 28.8627 17.4641 29.315 18.5561C29.7673 19.648 30.0001 20.8183 30.0001 22.0002C30.0001 23.1821 29.7673 24.3525 29.315 25.4444C28.8627 26.5363 28.1997 27.5285 27.364 28.3642M17.464 25.5352C16.5266 24.5976 16.0001 23.3261 16.0001 22.0002C16.0001 20.6744 16.5266 19.4029 17.464 18.4652M24.536 18.4652C25.4734 19.4029 25.9999 20.6744 25.9999 22.0002C25.9999 23.3261 25.4734 24.5976 24.536 25.5352M22 22.0002C22 22.2654 21.8946 22.5198 21.7071 22.7073C21.5196 22.8949 21.2652 23.0002 21 23.0002C20.7348 23.0002 20.4804 22.8949 20.2929 22.7073C20.1054 22.5198 20 22.2654 20 22.0002C20 21.735 20.1054 21.4807 20.2929 21.2931C20.4804 21.1056 20.7348 21.0002 21 21.0002C21.2652 21.0002 21.5196 21.1056 21.7071 21.2931C21.8946 21.4807 22 21.735 22 22.0002Z" stroke="white" stroke-width="2" stroke-linecap="round" stroke-linejoin="round"/>
</svg>
