<svg width="26" height="27" viewBox="0 0 26 27" fill="none" xmlns="http://www.w3.org/2000/svg">
<path fill-rule="evenodd" clip-rule="evenodd" d="M25.8401 13.4654C25.8401 12.5436 25.7574 11.6572 25.6037 10.8063H13.3601V15.835H20.3565C20.0551 17.46 19.1392 18.8368 17.7624 19.7586V23.0204H21.9637C24.4219 20.7572 25.8401 17.4245 25.8401 13.4654Z" fill="white"/>
<path fill-rule="evenodd" clip-rule="evenodd" d="M13.3602 26.17C16.8702 26.17 19.8129 25.0059 21.9638 23.0204L17.7625 19.7586C16.5984 20.5386 15.1093 20.9995 13.3602 20.9995C9.97428 20.9995 7.10837 18.7127 6.0861 15.64H1.74292V19.0081C3.88201 23.2568 8.27837 26.17 13.3602 26.17Z" fill="white"/>
<path fill-rule="evenodd" clip-rule="evenodd" d="M6.08601 15.64C5.82601 14.86 5.67829 14.0268 5.67829 13.17C5.67829 12.3131 5.82601 11.48 6.08601 10.7V7.33179H1.74283C0.86238 9.08679 0.360107 11.0722 0.360107 13.17C0.360107 15.2677 0.86238 17.2531 1.74283 19.0081L6.08601 15.64Z" fill="white"/>
<path fill-rule="evenodd" clip-rule="evenodd" d="M13.3602 5.34044C15.2688 5.34044 16.9825 5.99635 18.3297 7.28453L22.0584 3.55589C19.807 1.45816 16.8643 0.169983 13.3602 0.169983C8.27837 0.169983 3.88201 3.08316 1.74292 7.3318L6.0861 10.7C7.10837 7.62725 9.97428 5.34044 13.3602 5.34044Z" fill="white"/>
</svg>
