<svg width="23" height="29" viewBox="0 0 23 29" fill="none" xmlns="http://www.w3.org/2000/svg">
<path d="M5.70044 27.7895C5.14231 27.4166 4.64673 26.96 4.23256 26.4325C3.78063 25.8862 3.36174 25.3116 2.97707 24.7169C2.07321 23.3953 1.36641 21.9498 0.876719 20.4265C0.286733 18.6542 0 16.9574 0 15.2971C0 13.4446 0.40119 11.828 1.18233 10.4711C1.76052 9.40909 2.6219 8.52057 3.66027 7.89637C4.66325 7.27098 5.83142 6.92879 7.01139 6.90519C7.42438 6.90519 7.87277 6.96419 8.34476 7.08219C8.68695 7.17658 9.09994 7.32998 9.60733 7.51878C10.2563 7.76657 10.6103 7.91997 10.7283 7.95537C11.1059 8.09696 11.4245 8.15596 11.6723 8.15596C11.8611 8.15596 12.1325 8.09696 12.4334 8.00256C12.6045 7.94357 12.9289 7.83737 13.3891 7.63677C13.8446 7.47158 14.2057 7.32998 14.4924 7.22378C14.929 7.09399 15.3514 6.97599 15.7314 6.91699C16.1916 6.84619 16.6482 6.82259 17.086 6.85799C17.9238 6.91699 18.6907 7.09399 19.3751 7.35358C20.5787 7.83737 21.5498 8.59255 22.2743 9.66632C21.9675 9.85512 21.6843 10.0746 21.4188 10.3153C20.8442 10.8227 20.3569 11.4245 19.9675 12.0912C19.4601 12.9997 19.2005 14.0263 19.2076 15.0647C19.2253 16.3426 19.5498 17.4659 20.1987 18.4394C20.6554 19.1474 21.2654 19.7539 22.0088 20.2518C22.3746 20.4996 22.6956 20.6707 23 20.7828C22.8584 21.2253 22.7026 21.656 22.5221 22.0808C22.1127 23.033 21.6253 23.9452 21.0471 24.8065C20.5374 25.5499 20.1362 26.1045 19.8318 26.4703C19.3574 27.0367 18.8996 27.4615 18.4394 27.7647C17.932 28.101 17.3361 28.2792 16.7261 28.2792C16.3131 28.2969 15.9001 28.2438 15.506 28.1293C15.1638 28.0172 14.8263 27.891 14.4959 27.7482C14.1502 27.5901 13.7927 27.4556 13.4281 27.347C12.9797 27.229 12.5195 27.1724 12.0546 27.1736C11.5826 27.1736 11.1224 27.2326 10.6858 27.3447C10.32 27.4485 9.96604 27.5759 9.61559 27.7281C9.12 27.9346 8.79551 28.0703 8.60671 28.1293C8.2244 28.2426 7.83265 28.311 7.43854 28.3358C6.82495 28.3358 6.25385 28.1588 5.6851 27.8048L5.70044 27.7895ZM13.788 6.00723C12.9856 6.40842 12.2233 6.57834 11.4599 6.5217C11.3419 5.75944 11.4599 4.97594 11.7785 4.1181C12.0617 3.38652 12.4393 2.72573 12.9584 2.13575C13.5012 1.52216 14.1502 1.01478 14.8818 0.648984C15.6606 0.247794 16.404 0.0353991 17.1119 0C17.2063 0.80238 17.1119 1.59296 16.8169 2.44254C16.5479 3.19772 16.1467 3.8939 15.637 4.51929C15.1237 5.13287 14.4865 5.64026 13.7655 6.00605L13.788 6.00723Z" fill="white"/>
</svg>
