<svg width="27" height="27" viewBox="0 0 27 27" fill="none" xmlns="http://www.w3.org/2000/svg">
<path d="M17.0547 6.83343C17.7619 6.83343 18.4402 7.11439 18.9403 7.61448C19.4404 8.11458 19.7214 8.79286 19.7214 9.5001M25.0547 9.5001C25.0551 10.7497 24.7627 11.9819 24.2011 13.0982C23.6394 14.2144 22.8241 15.1835 21.8205 15.9279C20.8169 16.6723 19.6528 17.1713 18.4216 17.3848C17.1904 17.5983 15.9264 17.5204 14.7307 17.1574L11.7214 20.1668H9.05469V22.8334H6.38802V25.5001H2.38802C2.0344 25.5001 1.69526 25.3596 1.44521 25.1096C1.19516 24.8595 1.05469 24.5204 1.05469 24.1668V20.7188C1.05476 20.3652 1.19529 20.0261 1.44535 19.7761L9.39735 11.8241C9.06462 10.7241 8.97278 9.56536 9.12808 8.4267C9.28338 7.28803 9.68219 6.19619 10.2973 5.2255C10.9125 4.2548 11.7296 3.42803 12.6929 2.80146C13.6563 2.17489 14.7434 1.76323 15.8801 1.59451C17.0169 1.42578 18.1766 1.50395 19.2805 1.82368C20.3843 2.14342 21.4063 2.69722 22.2769 3.44739C23.1475 4.19756 23.8462 5.12649 24.3255 6.17095C24.8049 7.21542 25.0536 8.3509 25.0547 9.5001Z" stroke="#1392A4" stroke-width="2" stroke-linecap="round" stroke-linejoin="round"/>
</svg>
