<svg width="50" height="27" viewBox="0 0 50 27" fill="none" xmlns="http://www.w3.org/2000/svg">
<path d="M20.8605 26.2321V0.232056H11.7529C9.43509 0.232056 7.54555 0.358026 6.08431 0.609963C4.62307 0.836707 3.47675 1.23981 2.64536 1.81927C1.81396 2.37353 1.22191 3.15454 0.869196 4.16229C0.491289 5.14485 0.251947 6.37934 0.151173 7.86578C0.0503979 9.35221 9.53674e-06 11.141 9.53674e-06 13.2321C9.53674e-06 15.3231 0.0503979 17.1119 0.151173 18.5983C0.251947 20.0848 0.491289 21.3319 0.869196 22.3396C1.22191 23.3222 1.81396 24.1032 2.64536 24.6826C3.47675 25.2369 4.62307 25.64 6.08431 25.8919C7.54555 26.1187 9.43509 26.2321 11.7529 26.2321H20.8605ZM14.2849 21.1681H11.9041C10.8711 21.1681 10.0271 21.1429 9.3721 21.0925C8.71706 21.0169 8.20059 20.8658 7.82268 20.639C7.41958 20.3871 7.14245 19.984 6.99129 19.4297C6.81493 18.8503 6.71416 18.0693 6.68896 17.0867C6.63858 16.079 6.61338 14.7941 6.61338 13.2321C6.61338 11.67 6.63858 10.3978 6.68896 9.4152C6.71416 8.40744 6.81493 7.62644 6.99129 7.07217C7.16764 6.49271 7.44478 6.07702 7.82268 5.82508C8.20059 5.57314 8.71706 5.42198 9.3721 5.37159C10.0271 5.3212 10.8711 5.29601 11.9041 5.29601H14.2849V21.1681Z" fill="#1392A4"/>
<path d="M28.3982 26.2321V0.232056H37.5058C39.8236 0.232056 41.7131 0.358026 43.1744 0.609963C44.6356 0.836707 45.7819 1.23981 46.6133 1.81927C47.4447 2.37353 48.0368 3.15454 48.3895 4.16229C48.7674 5.14485 49.0067 6.37934 49.1075 7.86578C49.2083 9.35221 49.2587 11.141 49.2587 13.2321C49.2587 15.3231 49.2083 17.1119 49.1075 18.5983C49.0067 20.0848 48.7674 21.3319 48.3895 22.3396C48.0368 23.3222 47.4447 24.1032 46.6133 24.6826C45.7819 25.2369 44.6356 25.64 43.1744 25.8919C41.7131 26.1187 39.8236 26.2321 37.5058 26.2321H28.3982ZM34.9738 21.1681H37.3546C38.3875 21.1681 39.2315 21.1429 39.8866 21.0925C40.5416 21.0169 41.0581 20.8658 41.436 20.639C41.8391 20.3871 42.1162 19.984 42.2674 19.4297C42.4437 18.8503 42.5445 18.0693 42.5697 17.0867C42.6201 16.079 42.6453 14.7941 42.6453 13.2321C42.6453 11.67 42.6201 10.3978 42.5697 9.4152C42.5445 8.40744 42.4437 7.62644 42.2674 7.07217C42.091 6.49271 41.8139 6.07702 41.436 5.82508C41.0581 5.57314 40.5416 5.42198 39.8866 5.37159C39.2315 5.3212 38.3875 5.29601 37.3546 5.29601H34.9738V21.1681Z" fill="#7513A4"/>
<path d="M14.0431 26.2321V0.232056H23.1506C25.4685 0.232056 27.358 0.358026 28.8193 0.609963C30.2805 0.836707 31.4268 1.23981 32.2582 1.81927C33.0896 2.37353 33.6817 3.15454 34.0344 4.16229C34.4123 5.14485 34.6516 6.37934 34.7524 7.86578C34.8532 9.35221 34.9036 11.141 34.9036 13.2321C34.9036 15.3231 34.8532 17.1119 34.7524 18.5983C34.6516 20.0848 34.4123 21.3319 34.0344 22.3396C33.6817 23.3222 33.0896 24.1032 32.2582 24.6826C31.4268 25.2369 30.2805 25.64 28.8193 25.8919C27.358 26.1187 25.4685 26.2321 23.1506 26.2321H14.0431ZM20.6187 21.1681H22.9995C24.0324 21.1681 24.8764 21.1429 25.5315 21.0925C26.1865 21.0169 26.703 20.8658 27.0809 20.639C27.484 20.3871 27.7611 19.984 27.9123 19.4297C28.0886 18.8503 28.1894 18.0693 28.2146 17.0867C28.265 16.079 28.2902 14.7941 28.2902 13.2321C28.2902 11.67 28.265 10.3978 28.2146 9.4152C28.1894 8.40744 28.0886 7.62644 27.9123 7.07217C27.7359 6.49271 27.4588 6.07702 27.0809 5.82508C26.703 5.57314 26.1865 5.42198 25.5315 5.37159C24.8764 5.3212 24.0324 5.29601 22.9995 5.29601H20.6187V21.1681Z" fill="#F5990F"/>
</svg>
