<svg width="22" height="20" viewBox="0 0 22 20" fill="none" xmlns="http://www.w3.org/2000/svg">
<path d="M8.60282 16.75H4.47557C3.25901 16.75 2.65072 16.75 2.18606 16.5047C1.77732 16.2891 1.44501 15.9448 1.23676 15.5215C1 15.0402 1 14.4101 1 13.15V4.6C1 3.33989 1 2.70982 1.23676 2.22852C1.44501 1.80515 1.77732 1.46095 2.18606 1.24524C2.65072 1 3.25901 1 4.47557 1H17.0745C18.2911 1 18.8994 1 19.3641 1.24524C19.7728 1.46095 20.1051 1.80515 20.3133 2.22852C20.5501 2.70982 20.5501 3.33989 20.5501 4.6V6.625M20.1229 4.67008L14.6307 8.46269C13.2372 9.4249 12.5404 9.90606 11.7873 10.093C11.1217 10.2582 10.4279 10.2582 9.76246 10.093C9.00935 9.90606 8.3126 9.4249 6.91906 8.46269L1.16016 4.48596M12.9473 19L15.1467 18.5444C15.3384 18.5047 15.4343 18.4848 15.5237 18.4484C15.6031 18.4162 15.6785 18.3744 15.7484 18.3239C15.8272 18.267 15.8963 18.1954 16.0347 18.0521L20.5501 13.375C21.15 12.7537 21.15 11.7463 20.5501 11.125C19.9502 10.5037 18.9777 10.5037 18.3779 11.125L13.8624 15.8021C13.7241 15.9454 13.655 16.0169 13.6 16.0986C13.5513 16.171 13.5109 16.2491 13.4798 16.3314C13.4447 16.424 13.4255 16.5233 13.3872 16.7219L12.9473 19Z" stroke="#F6F6F6" stroke-width="2" stroke-linecap="round" stroke-linejoin="round"/>
</svg>
