<svg width="359" height="362" viewBox="0 0 359 362" fill="none" xmlns="http://www.w3.org/2000/svg">
<g filter="url(#filter0_dii_276_2256)">
<ellipse cx="179.5" cy="179" rx="79.5" ry="81" fill="url(#paint0_linear_276_2256)"/>
</g>
<path d="M204.236 154.591C203.252 153.622 201.669 153.634 200.7 154.618C199.732 155.602 199.744 157.185 200.728 158.154L204.236 154.591ZM212 179H209.5H212ZM194.021 189.787C193.037 188.819 191.454 188.831 190.486 189.815C189.517 190.798 189.529 192.381 190.513 193.35L194.021 189.787ZM207.759 210.44L209.526 212.208L213.062 208.672L211.294 206.904L207.759 210.44ZM194.024 164.646C193.04 163.677 191.458 163.69 190.489 164.674C189.52 165.658 189.533 167.24 190.517 168.209L194.024 164.646ZM192.271 191.572L190.516 193.354C191.489 194.312 193.051 194.312 194.024 193.354L192.271 191.572ZM164.984 193.356C165.969 194.323 167.551 194.309 168.519 193.324C169.486 192.339 169.472 190.756 168.487 189.789L164.984 193.356ZM164.104 181.156C163.909 179.789 162.642 178.84 161.275 179.035C159.909 179.231 158.959 180.497 159.155 181.864L164.104 181.156ZM154.77 203.409C155.754 204.378 157.337 204.365 158.306 203.381C159.274 202.397 159.262 200.814 158.278 199.846L154.77 203.409ZM151.065 169.59C151.512 168.284 150.815 166.863 149.508 166.416C148.202 165.969 146.781 166.666 146.334 167.972L151.065 169.59ZM176.95 176.486L175.182 178.254C175.187 178.258 175.191 178.263 175.196 178.267L176.95 176.486ZM156.232 152.232L154.464 150.464L150.928 154L152.696 155.768L156.232 152.232ZM200.728 158.154C203.511 160.895 205.717 164.147 207.222 167.723L211.831 165.785C210.069 161.596 207.487 157.793 204.236 154.591L200.728 158.154ZM207.222 167.723C208.726 171.3 209.5 175.131 209.5 179H214.5C214.5 174.464 213.593 169.973 211.831 165.785L207.222 167.723ZM209.5 179C209.5 182.869 208.726 186.7 207.222 190.277L211.831 192.215C213.593 188.027 214.5 183.536 214.5 179H209.5ZM207.222 190.277C205.717 193.853 203.511 197.105 200.728 199.846L204.236 203.409C207.487 200.207 210.069 196.404 211.831 192.215L207.222 190.277ZM204.236 199.846L194.021 189.787L190.513 193.35L200.728 203.409L204.236 199.846ZM200.714 203.395L207.759 210.44L211.294 206.904L204.25 199.86L200.714 203.395ZM190.517 168.209C191.96 169.63 193.102 171.314 193.881 173.165L198.49 171.226C197.453 168.763 195.935 166.527 194.024 164.646L190.517 168.209ZM193.881 173.165C194.66 175.016 195.06 176.999 195.06 179H200.06C200.06 176.331 199.526 173.689 198.49 171.226L193.881 173.165ZM195.06 179C195.06 181.001 194.66 182.984 193.881 184.835L198.49 186.774C199.526 184.31 200.06 181.669 200.06 179H195.06ZM193.881 184.835C193.102 186.686 191.96 188.37 190.517 189.791L194.024 193.354C195.935 191.473 197.453 189.237 198.49 186.774L193.881 184.835ZM194.025 189.791L183.81 179.732L180.302 183.295L190.516 193.354L194.025 189.791ZM168.487 189.789C166.107 187.452 164.572 184.42 164.104 181.156L159.155 181.864C159.779 186.223 161.828 190.257 164.984 193.356L168.487 189.789ZM158.278 199.846C154.328 195.958 151.564 191.066 150.291 185.723L145.427 186.882C146.919 193.145 150.157 198.869 154.77 203.409L158.278 199.846ZM150.291 185.723C149.018 180.38 149.286 174.793 151.065 169.59L146.334 167.972C144.249 174.068 143.935 180.618 145.427 186.882L150.291 185.723ZM178.735 178.237C178.835 178.134 178.958 178.05 179.096 177.992L177.148 173.387C176.405 173.701 175.731 174.159 175.165 174.736L178.735 178.237ZM179.096 177.992C179.234 177.933 179.384 177.902 179.537 177.901L179.494 172.901C178.688 172.908 177.891 173.073 177.148 173.387L179.096 177.992ZM179.537 177.901C179.69 177.899 179.841 177.928 179.98 177.984L181.849 173.347C181.101 173.045 180.301 172.894 179.494 172.901L179.537 177.901ZM179.98 177.984C180.12 178.04 180.244 178.122 180.346 178.223L183.855 174.661C183.279 174.094 182.597 173.648 181.849 173.347L179.98 177.984ZM180.346 178.223C180.449 178.324 180.528 178.442 180.58 178.569L185.198 176.651C184.887 175.904 184.43 175.227 183.855 174.661L180.346 178.223ZM180.58 178.569C180.633 178.696 180.659 178.83 180.658 178.965L185.658 179.009C185.665 178.2 185.508 177.398 185.198 176.651L180.58 178.569ZM180.658 178.965C180.657 179.1 180.628 179.234 180.573 179.36L185.156 181.359C185.48 180.618 185.651 179.819 185.658 179.009L180.658 178.965ZM180.573 179.36C180.518 179.486 180.437 179.603 180.333 179.702L183.779 183.325C184.364 182.769 184.833 182.101 185.156 181.359L180.573 179.36ZM183.81 179.732L178.704 174.705L175.196 178.267L180.302 183.295L183.81 179.732ZM178.718 174.718L156.232 152.232L152.696 155.768L175.182 178.254L178.718 174.718Z" fill="white"/>
<defs>
<filter id="filter0_dii_276_2256" x="0" y="0" width="359" height="362" filterUnits="userSpaceOnUse" color-interpolation-filters="sRGB">
<feFlood flood-opacity="0" result="BackgroundImageFix"/>
<feColorMatrix in="SourceAlpha" type="matrix" values="0 0 0 0 0 0 0 0 0 0 0 0 0 0 0 0 0 0 127 0" result="hardAlpha"/>
<feOffset dy="2"/>
<feGaussianBlur stdDeviation="50"/>
<feComposite in2="hardAlpha" operator="out"/>
<feColorMatrix type="matrix" values="0 0 0 0 0 0 0 0 0 0 0 0 0 0 0 0 0 0 0.35 0"/>
<feBlend mode="normal" in2="BackgroundImageFix" result="effect1_dropShadow_276_2256"/>
<feBlend mode="normal" in="SourceGraphic" in2="effect1_dropShadow_276_2256" result="shape"/>
<feColorMatrix in="SourceAlpha" type="matrix" values="0 0 0 0 0 0 0 0 0 0 0 0 0 0 0 0 0 0 127 0" result="hardAlpha"/>
<feMorphology radius="10" operator="erode" in="SourceAlpha" result="effect2_innerShadow_276_2256"/>
<feOffset dy="10"/>
<feGaussianBlur stdDeviation="15"/>
<feComposite in2="hardAlpha" operator="arithmetic" k2="-1" k3="1"/>
<feColorMatrix type="matrix" values="0 0 0 0 0.765 0 0 0 0 0.7599 0 0 0 0 0.7599 0 0 0 0.8 0"/>
<feBlend mode="normal" in2="shape" result="effect2_innerShadow_276_2256"/>
<feColorMatrix in="SourceAlpha" type="matrix" values="0 0 0 0 0 0 0 0 0 0 0 0 0 0 0 0 0 0 127 0" result="hardAlpha"/>
<feOffset dy="-6"/>
<feGaussianBlur stdDeviation="5"/>
<feComposite in2="hardAlpha" operator="arithmetic" k2="-1" k3="1"/>
<feColorMatrix type="matrix" values="0 0 0 0 0 0 0 0 0 0 0 0 0 0 0 0 0 0 0.35 0"/>
<feBlend mode="normal" in2="effect2_innerShadow_276_2256" result="effect3_innerShadow_276_2256"/>
</filter>
<linearGradient id="paint0_linear_276_2256" x1="179.5" y1="98" x2="179.5" y2="260" gradientUnits="userSpaceOnUse">
<stop stop-color="#8C8C8C"/>
<stop offset="1" stop-color="#9D9D9D"/>
</linearGradient>
</defs>
</svg>
