<svg width="20" height="20" viewBox="0 0 20 20" fill="none" xmlns="http://www.w3.org/2000/svg">
<circle cx="10.1791" cy="9.90075" r="7.83043" fill="#1392A4"/>
<path d="M10.4268 18.844C12.2709 18.844 13.7659 14.2251 13.7659 9.90051C13.7659 5.57588 12.2709 0.957031 10.4268 0.957031" stroke="white" stroke-width="1.5"/>
<path d="M19.0626 10.2076C19.0626 8.41235 14.4571 6.95703 10.149 6.95703C5.84084 6.95703 1.23535 8.41235 1.23535 10.2076" stroke="white" stroke-width="1.5"/>
<circle cx="10.1791" cy="9.90075" r="7.83043" stroke="#1392A4" stroke-width="2"/>
<path d="M19.0626 10.207C19.0626 12.0023 14.4571 13.4576 10.149 13.4576C5.84084 13.4576 1.23535 12.0023 1.23535 10.207" stroke="white" stroke-width="1.5"/>
<path d="M10.427 18.844C8.58287 18.844 7.08789 14.2251 7.08789 9.90051C7.08789 5.57588 8.58287 0.957031 10.427 0.957031" stroke="white" stroke-width="1.5"/>
</svg>
