<svg width="94" height="67" viewBox="0 0 94 67" fill="none" xmlns="http://www.w3.org/2000/svg">
<path d="M81.4648 51L85.4648 57.9282" stroke="url(#paint0_angular_224_6997)" stroke-width="4" stroke-linecap="round"/>
<path d="M86.9297 52.4639L80.0015 56.4639" stroke="url(#paint1_angular_224_6997)" stroke-width="4" stroke-linecap="round"/>
<path d="M72.5977 2.5L75.5977 7.69615" stroke="url(#paint2_angular_224_6997)" stroke-width="4" stroke-linecap="round"/>
<path d="M76.6953 3.59766L71.4992 6.59766" stroke="url(#paint3_angular_224_6997)" stroke-width="4" stroke-linecap="round"/>
<path d="M8.41797 26.2939L5.82978 35.9532" stroke="url(#paint4_angular_224_6997)" stroke-width="4" stroke-linecap="round"/>
<path d="M11.9531 32.418L2.29387 29.8298" stroke="url(#paint5_angular_224_6997)" stroke-width="4" stroke-linecap="round"/>
<circle cx="88" cy="31" r="4" stroke="url(#paint6_angular_224_6997)" stroke-width="4"/>
<circle cx="18" cy="59" r="2" stroke="url(#paint7_angular_224_6997)" stroke-width="4"/>
<circle cx="19" cy="6" r="3" stroke="url(#paint8_angular_224_6997)" stroke-width="4"/>
<path d="M69.9728 17L46.9728 8L23.9728 17C23.9728 17 23.3049 35.0132 26.4728 43.75C30.7375 55.5116 46.9728 64.5 46.9728 64.5C46.9728 64.5 63.2081 55.5116 67.4728 43.75C70.6408 35.0132 69.9728 17 69.9728 17Z" fill="url(#paint9_angular_224_6997)"/>
<path d="M36.8398 35.0213L44.4612 43.3627C44.872 43.8123 45.5859 43.7934 45.9723 43.3227L60.8398 25.2148" stroke="white" stroke-width="5" stroke-linecap="round"/>
<path d="M69.9728 17L46.9728 8L23.9728 17C23.9728 17 23.3049 35.0132 26.4728 43.75C30.7375 55.5116 46.9728 64.5 46.9728 64.5C46.9728 64.5 63.2081 55.5116 67.4728 43.75C70.6408 35.0132 69.9728 17 69.9728 17Z" stroke="url(#paint10_angular_224_6997)" stroke-width="4"/>
<defs>
<radialGradient id="paint0_angular_224_6997" cx="0" cy="0" r="1" gradientUnits="userSpaceOnUse" gradientTransform="translate(83.8979 54.2141) rotate(-30) scale(0.5 4)">
<stop offset="0.385417" stop-color="#F7AD3F"/>
<stop offset="0.880208" stop-color="#1392A4"/>
</radialGradient>
<radialGradient id="paint1_angular_224_6997" cx="0" cy="0" r="1" gradientUnits="userSpaceOnUse" gradientTransform="translate(83.7156 54.8969) rotate(60) scale(0.5 4)">
<stop offset="0.385417" stop-color="#F7AD3F"/>
<stop offset="0.880208" stop-color="#1392A4"/>
</radialGradient>
<radialGradient id="paint2_angular_224_6997" cx="0" cy="0" r="1" gradientUnits="userSpaceOnUse" gradientTransform="translate(74.5307 4.84808) rotate(-30) scale(0.5 3)">
<stop offset="0.385417" stop-color="#F7AD3F"/>
<stop offset="0.880208" stop-color="#1392A4"/>
</radialGradient>
<radialGradient id="paint3_angular_224_6997" cx="0" cy="0" r="1" gradientUnits="userSpaceOnUse" gradientTransform="translate(74.3472 5.53067) rotate(60) scale(0.5 3)">
<stop offset="0.385417" stop-color="#F7AD3F"/>
<stop offset="0.880208" stop-color="#1392A4"/>
</radialGradient>
<radialGradient id="paint4_angular_224_6997" cx="0" cy="0" r="1" gradientUnits="userSpaceOnUse" gradientTransform="translate(7.60684 31.253) rotate(15) scale(0.5 5)">
<stop offset="0.385417" stop-color="#F7AD3F"/>
<stop offset="0.880208" stop-color="#1392A4"/>
</radialGradient>
<radialGradient id="paint5_angular_224_6997" cx="0" cy="0" r="1" gradientUnits="userSpaceOnUse" gradientTransform="translate(6.99409 31.6068) rotate(105) scale(0.5 5)">
<stop offset="0.385417" stop-color="#F7AD3F"/>
<stop offset="0.880208" stop-color="#1392A4"/>
</radialGradient>
<radialGradient id="paint6_angular_224_6997" cx="0" cy="0" r="1" gradientUnits="userSpaceOnUse" gradientTransform="translate(88 31) scale(4)">
<stop offset="0.385417" stop-color="#F7AD3F"/>
<stop offset="0.880208" stop-color="#1392A4"/>
</radialGradient>
<radialGradient id="paint7_angular_224_6997" cx="0" cy="0" r="1" gradientUnits="userSpaceOnUse" gradientTransform="translate(18 59) scale(2)">
<stop offset="0.385417" stop-color="#F7AD3F"/>
<stop offset="0.880208" stop-color="#1392A4"/>
</radialGradient>
<radialGradient id="paint8_angular_224_6997" cx="0" cy="0" r="1" gradientUnits="userSpaceOnUse" gradientTransform="translate(19 6) scale(3)">
<stop offset="0.385417" stop-color="#F7AD3F"/>
<stop offset="0.880208" stop-color="#1392A4"/>
</radialGradient>
<radialGradient id="paint9_angular_224_6997" cx="0" cy="0" r="1" gradientUnits="userSpaceOnUse" gradientTransform="translate(46.8418 39.7148) rotate(-8.49784) scale(23.4472 28.7259)">
<stop offset="0.385417" stop-color="#F7AD3F"/>
<stop offset="0.880208" stop-color="#1392A4"/>
</radialGradient>
<radialGradient id="paint10_angular_224_6997" cx="0" cy="0" r="1" gradientUnits="userSpaceOnUse" gradientTransform="translate(46.9728 36.25) rotate(180) scale(23.0588 28.25)">
<stop offset="0.385417" stop-color="#F7AD3F"/>
<stop offset="0.880208" stop-color="#1392A4"/>
</radialGradient>
</defs>
</svg>
