<svg width="81" height="56" viewBox="0 0 81 56" fill="none" xmlns="http://www.w3.org/2000/svg">
<path d="M3.00581 33.6513C1.24661 74.4773 41.7253 37.5531 41.7253 37.5531C41.7253 37.5531 8.12004 -2.27508 3.00581 33.6513Z" fill="url(#paint0_linear_224_7020)"/>
<path d="M78.068 30.6022C75.9096 80.6914 32.2221 28.5219 32.2221 28.5219C32.2221 28.5219 80.6607 -29.5671 78.068 30.6022Z" fill="url(#paint1_linear_224_7020)"/>
<path d="M3.00581 33.6513C1.24661 74.4773 41.7253 37.5531 41.7253 37.5531C41.7253 37.5531 8.12004 -2.27508 3.00581 33.6513Z" stroke="url(#paint2_linear_224_7020)" stroke-width="5"/>
<path d="M78.068 30.6022C75.9096 80.6914 32.2221 28.5219 32.2221 28.5219C32.2221 28.5219 80.6607 -29.5671 78.068 30.6022Z" fill="url(#paint3_linear_224_7020)" stroke="url(#paint4_linear_224_7020)" stroke-width="5"/>
<defs>
<linearGradient id="paint0_linear_224_7020" x1="22.9602" y1="21.8506" x2="21.6081" y2="53.2289" gradientUnits="userSpaceOnUse">
<stop stop-color="#7513A4"/>
<stop offset="1" stop-color="#2C073E"/>
</linearGradient>
<linearGradient id="paint1_linear_224_7020" x1="55.0489" y1="3.50965" x2="38.3523" y2="42.804" gradientUnits="userSpaceOnUse">
<stop stop-color="#B14FE0"/>
<stop offset="1" stop-color="#570086"/>
</linearGradient>
<linearGradient id="paint2_linear_224_7020" x1="39.3639" y1="58.4273" x2="18.7343" y2="71.8026" gradientUnits="userSpaceOnUse">
<stop stop-color="#9032BF"/>
<stop offset="1" stop-color="#38094F"/>
</linearGradient>
<linearGradient id="paint3_linear_224_7020" x1="55.0489" y1="3.50965" x2="38.3523" y2="42.804" gradientUnits="userSpaceOnUse">
<stop stop-color="#B14FE0"/>
<stop offset="1" stop-color="#570086"/>
</linearGradient>
<linearGradient id="paint4_linear_224_7020" x1="46.9514" y1="40.1268" x2="57.3587" y2="76.6719" gradientUnits="userSpaceOnUse">
<stop stop-color="#9032BF"/>
<stop offset="1" stop-color="#020202"/>
</linearGradient>
</defs>
</svg>
