<svg width="32" height="23" viewBox="0 0 32 23" fill="none" xmlns="http://www.w3.org/2000/svg">
<rect width="32" height="22.8571" rx="4" fill="#1392A4"/>
<path d="M7.97461 18.2004C10.4228 16.8166 13.188 16.0914 16.0001 16.0957C18.9168 16.0957 21.6549 16.8599 24.0256 18.2004M19.5001 9.0957C19.5001 10.024 19.1314 10.9142 18.475 11.5706C17.8186 12.227 16.9284 12.5957 16.0001 12.5957C15.0719 12.5957 14.1816 12.227 13.5252 11.5706C12.8689 10.9142 12.5001 10.024 12.5001 9.0957C12.5001 8.16745 12.8689 7.27721 13.5252 6.62083C14.1816 5.96445 15.0719 5.5957 16.0001 5.5957C16.9284 5.5957 17.8186 5.96445 18.475 6.62083C19.1314 7.27721 19.5001 8.16745 19.5001 9.0957Z" stroke="white" stroke-width="2" stroke-linecap="round" stroke-linejoin="round"/>
</svg>
