<svg width="41" height="41" viewBox="0 0 41 41" fill="none" xmlns="http://www.w3.org/2000/svg">
<rect width="41" height="41" rx="20.5" fill="url(#paint0_radial_2479_773)"/>
<mask id="mask0_2479_773" style="mask-type:alpha" maskUnits="userSpaceOnUse" x="0" y="0" width="41" height="41">
<rect width="41" height="41" rx="20.5" fill="url(#paint1_radial_2479_773)"/>
</mask>
<g mask="url(#mask0_2479_773)">
<mask id="path-3-outside-1_2479_773" maskUnits="userSpaceOnUse" x="-2.89258" y="6.28906" width="47" height="32" fill="black">
<rect fill="white" x="-2.89258" y="6.28906" width="47" height="32"/>
<path fill-rule="evenodd" clip-rule="evenodd" d="M7.24875 34.6784L7.22841 34.7738H8.21343C8.95627 34.8316 9.76044 34.8605 10.626 34.8605H28.286L28.3198 34.7015C29.9967 34.581 31.4288 34.3103 32.616 33.8893C34.2789 33.2997 35.5908 32.4704 36.5516 31.4017C37.5124 30.296 38.2515 28.9877 38.7689 27.4767C39.3232 25.9657 39.7851 24.3072 40.1547 22.5013C40.3764 21.4694 40.5427 20.4928 40.6535 19.5714C40.8014 18.6501 40.8753 17.8024 40.8753 17.0285C40.8753 15.37 40.5612 13.9696 39.9329 12.8271C39.3417 11.6477 38.2885 10.7632 36.7733 10.1736C35.9353 9.8474 34.905 9.61144 33.6825 9.46569L33.7109 9.33228L32.089 9.33228C31.5378 9.30347 30.9559 9.28906 30.3433 9.28906H12.6607L12.6358 9.40559C10.9658 9.52662 9.53925 9.79752 8.35617 10.2183C6.69535 10.809 5.38515 11.6396 4.42556 12.7102C3.46598 13.8177 2.72783 15.1283 2.21113 16.6419C1.65752 18.1555 1.19619 19.8167 0.827114 21.6257C0.605672 22.6594 0.439592 23.6377 0.32887 24.5606C0.181241 25.4835 0.107422 26.3326 0.107422 27.1079C0.107422 28.7691 0.421139 30.172 1.04856 31.3164C1.63908 32.4978 2.69093 33.3838 4.20412 33.9745C5.03144 34.2974 6.04632 34.5321 7.24875 34.6784Z"/>
</mask>
<path d="M7.22841 34.7738L4.29433 34.1484L3.52154 37.7738H7.22841V34.7738ZM7.24875 34.6784L10.1828 35.3039L10.8665 32.0967L7.61128 31.7004L7.24875 34.6784ZM8.21343 34.7738L8.44596 31.7829L8.32987 31.7738H8.21343V34.7738ZM28.286 34.8605V37.8605H30.7155L31.2205 35.4841L28.286 34.8605ZM28.3198 34.7015L28.1049 31.7092L25.8544 31.8708L25.3853 34.0779L28.3198 34.7015ZM32.616 33.8893L33.6186 36.7168L32.616 33.8893ZM36.5516 31.4017L38.7826 33.4073L38.7995 33.3885L38.816 33.3695L36.5516 31.4017ZM38.7689 27.4767L35.9524 26.4435L35.9412 26.4741L35.9306 26.5049L38.7689 27.4767ZM40.1547 22.5013L37.2216 21.8711L37.2185 21.8855L37.2156 21.8999L40.1547 22.5013ZM40.6535 19.5714L37.6914 19.0962L37.6821 19.1545L37.675 19.213L40.6535 19.5714ZM39.9329 12.8271L37.2511 14.1716L37.2767 14.2226L37.3041 14.2726L39.9329 12.8271ZM36.7733 10.1736L37.8614 7.37784L37.8614 7.37783L36.7733 10.1736ZM33.6825 9.46569L30.748 8.84211L30.0652 12.0557L33.3274 12.4446L33.6825 9.46569ZM33.7109 9.33228L36.6453 9.95586L37.4154 6.33228L33.7109 6.33228V9.33228ZM32.089 9.33228L31.9325 12.3282L32.0107 12.3323H32.089V9.33228ZM12.6607 9.28906V6.28906H10.2327L9.72657 8.66364L12.6607 9.28906ZM12.6358 9.40559L12.8527 12.3977L15.1001 12.2349L15.5699 10.031L12.6358 9.40559ZM8.35617 10.2183L9.36144 13.0448L9.36144 13.0448L8.35617 10.2183ZM4.42556 12.7102L2.19159 10.7079L2.17475 10.7266L2.15823 10.7457L4.42556 12.7102ZM2.21113 16.6419L5.02859 17.6724L5.03976 17.6418L5.05026 17.6111L2.21113 16.6419ZM0.827114 21.6257L3.76056 22.2541L3.76363 22.2398L3.76656 22.2254L0.827114 21.6257ZM0.32887 24.5606L3.29121 25.0344L3.3005 24.9763L3.30751 24.9179L0.32887 24.5606ZM1.04856 31.3164L3.73199 29.9751L3.70653 29.9242L3.67916 29.8742L1.04856 31.3164ZM4.20412 33.9745L3.11323 36.7691L3.11324 36.7691L4.20412 33.9745ZM10.1625 35.3993L10.1828 35.3039L4.31466 34.053L4.29433 34.1484L10.1625 35.3993ZM8.21343 31.7738H7.22841V37.7738H8.21343V31.7738ZM10.626 31.8605C9.82599 31.8605 9.10028 31.8337 8.44596 31.7829L7.9809 37.7648C8.81225 37.8295 9.6949 37.8605 10.626 37.8605V31.8605ZM28.286 31.8605H10.626V37.8605H28.286V31.8605ZM25.3853 34.0779L25.3515 34.2369L31.2205 35.4841L31.2543 35.3251L25.3853 34.0779ZM31.6134 31.0618C30.7487 31.3685 29.5967 31.602 28.1049 31.7092L28.5347 37.6937C30.3967 37.56 32.1089 37.2522 33.6186 36.7168L31.6134 31.0618ZM34.3206 29.396C33.7623 30.0171 32.9109 30.6017 31.6134 31.0618L33.6186 36.7168C35.647 35.9976 37.4193 34.9238 38.7826 33.4073L34.3206 29.396ZM35.9306 26.5049C35.5272 27.6833 34.9722 28.6455 34.2872 29.4338L38.816 33.3695C40.0526 31.9466 40.9759 30.2922 41.6071 28.4485L35.9306 26.5049ZM37.2156 21.8999C36.8718 23.5796 36.4483 25.0916 35.9524 26.4435L41.5853 28.5099C42.198 26.8397 42.6984 25.0348 43.0938 23.1028L37.2156 21.8999ZM37.675 19.213C37.5765 20.0318 37.4266 20.9171 37.2216 21.8711L43.0877 23.1316C43.3262 22.0217 43.5088 20.9538 43.6321 19.9298L37.675 19.213ZM37.8753 17.0285C37.8753 17.6148 37.819 18.3012 37.6914 19.0962L43.6157 20.0466C43.7837 18.999 43.8753 17.99 43.8753 17.0285H37.8753ZM37.3041 14.2726C37.6314 14.8677 37.8753 15.7409 37.8753 17.0285H43.8753C43.8753 14.9991 43.4909 13.0715 42.5617 11.3816L37.3041 14.2726ZM35.6853 12.9693C36.676 13.3549 37.0659 13.8022 37.2511 14.1716L42.6148 11.4825C41.6174 9.4933 39.901 8.17161 37.8614 7.37784L35.6853 12.9693ZM33.3274 12.4446C34.3841 12.5706 35.1513 12.7615 35.6853 12.9693L37.8614 7.37783C36.7192 6.93332 35.4259 6.6523 34.0377 6.48679L33.3274 12.4446ZM30.7764 8.70869L30.748 8.84211L36.617 10.0893L36.6453 9.95586L30.7764 8.70869ZM32.089 12.3323H33.7109V6.33228H32.089V12.3323ZM30.3433 12.2891C30.9093 12.2891 31.4387 12.3024 31.9325 12.3282L32.2456 6.33636C31.637 6.30455 31.0025 6.28906 30.3433 6.28906V12.2891ZM12.6607 12.2891H30.3433V6.28906H12.6607V12.2891ZM15.5699 10.031L15.5947 9.91449L9.72657 8.66364L9.70173 8.78016L15.5699 10.031ZM9.36144 13.0448C10.222 12.7388 11.3682 12.5053 12.8527 12.3977L12.419 6.41344C10.5634 6.54792 8.85651 6.85626 7.3509 7.39173L9.36144 13.0448ZM6.65954 14.7125C7.21724 14.0903 8.06702 13.5052 9.36144 13.0448L7.3509 7.39173C5.32368 8.11271 3.55306 9.18888 2.19159 10.7079L6.65954 14.7125ZM5.05026 17.6111C5.45366 16.4294 6.00843 15.4647 6.69289 14.6747L2.15823 10.7457C0.923526 12.1708 0.00200421 13.8272 -0.627998 15.6727L5.05026 17.6111ZM3.76656 22.2254C4.10996 20.5423 4.53307 19.0271 5.02859 17.6724L-0.606325 15.6114C-1.21803 17.2838 -1.71759 19.0912 -2.11233 21.026L3.76656 22.2254ZM3.30751 24.9179C3.40596 24.0973 3.55577 23.2101 3.76056 22.2541L-2.10633 20.9973C-2.34442 22.1087 -2.52677 23.178 -2.64977 24.2033L3.30751 24.9179ZM3.10742 27.1079C3.10742 26.5197 3.16373 25.8314 3.29121 25.0344L-2.63347 24.0867C-2.80125 25.1356 -2.89258 26.1456 -2.89258 27.1079H3.10742ZM3.67916 29.8742C3.35144 29.2765 3.10742 28.3995 3.10742 27.1079H-2.89258C-2.89258 29.1388 -2.50916 31.0675 -1.58204 32.7586L3.67916 29.8742ZM5.29501 31.1798C4.30784 30.7945 3.91797 30.3471 3.73199 29.9751L-1.63486 32.6578C-0.639814 34.6484 1.07402 35.9731 3.11323 36.7691L5.29501 31.1798ZM7.61128 31.7004C6.57466 31.5742 5.82086 31.3851 5.295 31.1798L3.11324 36.7691C4.24203 37.2097 5.51798 37.4899 6.88622 37.6565L7.61128 31.7004Z" fill="url(#paint2_linear_2479_773)" mask="url(#path-3-outside-1_2479_773)"/>
<mask id="path-5-outside-2_2479_773" maskUnits="userSpaceOnUse" x="-2.89258" y="13.4961" width="47" height="32" fill="black">
<rect fill="white" x="-2.89258" y="13.4961" width="47" height="32"/>
<path fill-rule="evenodd" clip-rule="evenodd" d="M7.24875 41.8855L7.22841 41.9809H8.21343C8.95627 42.0386 9.76044 42.0675 10.626 42.0675H28.286L28.3198 41.9085C29.9967 41.7881 31.4288 41.5173 32.616 41.0964C34.2789 40.5067 35.5908 39.6775 36.5516 38.6087C37.5124 37.5031 38.2515 36.1947 38.7689 34.6837C39.3232 33.1727 39.7851 31.5142 40.1547 29.7084C40.3764 28.6765 40.5427 27.6998 40.6535 26.7785C40.8014 25.8571 40.8753 25.0094 40.8753 24.2355C40.8753 22.5771 40.5612 21.1766 39.9329 20.0341C39.3417 18.8548 38.2885 17.9703 36.7733 17.3806C35.9353 17.0544 34.905 16.8185 33.6825 16.6727L33.7109 16.5393L32.089 16.5393C31.5378 16.5105 30.9559 16.4961 30.3433 16.4961H12.6607L12.6358 16.6126C10.9658 16.7337 9.53925 17.0046 8.35617 17.4253C6.69535 18.016 5.38515 18.8466 4.42556 19.9172C3.46598 21.0247 2.72783 22.3353 2.21113 23.8489C1.65752 25.3625 1.19619 27.0238 0.827114 28.8327C0.605672 29.8664 0.439592 30.8447 0.32887 31.7676C0.181241 32.6906 0.107422 33.5396 0.107422 34.3149C0.107422 35.9762 0.421139 37.379 1.04856 38.5235C1.63908 39.7048 2.69093 40.5908 4.20412 41.1815C5.03144 41.5044 6.04632 41.7391 7.24875 41.8855Z"/>
</mask>
<path d="M7.22841 41.9809L4.29433 41.3555L3.52154 44.9809H7.22841V41.9809ZM7.24875 41.8855L10.1828 42.5109L10.8665 39.3037L7.61128 38.9075L7.24875 41.8855ZM8.21343 41.9809L8.44596 38.9899L8.32987 38.9809H8.21343V41.9809ZM28.286 42.0675V45.0675H30.7155L31.2205 42.6911L28.286 42.0675ZM28.3198 41.9085L28.1049 38.9162L25.8544 39.0778L25.3853 41.2849L28.3198 41.9085ZM32.616 41.0964L33.6186 43.9239L32.616 41.0964ZM36.5516 38.6087L38.7826 40.6143L38.7995 40.5956L38.816 40.5765L36.5516 38.6087ZM38.7689 34.6837L35.9524 33.6505L35.9412 33.6811L35.9306 33.7119L38.7689 34.6837ZM40.1547 29.7084L37.2216 29.0782L37.2185 29.0925L37.2156 29.1069L40.1547 29.7084ZM40.6535 26.7785L37.6914 26.3032L37.6821 26.3615L37.675 26.4201L40.6535 26.7785ZM39.9329 20.0341L37.2511 21.3787L37.2767 21.4296L37.3041 21.4796L39.9329 20.0341ZM36.7733 17.3806L37.8614 14.5849L37.8614 14.5849L36.7733 17.3806ZM33.6825 16.6727L30.748 16.0491L30.0652 19.2627L33.3274 19.6516L33.6825 16.6727ZM33.7109 16.5393L36.6453 17.1629L37.4154 13.5393L33.7109 13.5393V16.5393ZM32.089 16.5393L31.9325 19.5352L32.0107 19.5393H32.089V16.5393ZM12.6607 16.4961V13.4961H10.2327L9.72657 15.8707L12.6607 16.4961ZM12.6358 16.6126L12.8527 19.6048L15.1001 19.4419L15.5699 17.238L12.6358 16.6126ZM8.35617 17.4253L9.36144 20.2519L9.36144 20.2519L8.35617 17.4253ZM4.42556 19.9172L2.19159 17.9149L2.17475 17.9337L2.15823 17.9527L4.42556 19.9172ZM2.21113 23.8489L5.02859 24.8794L5.03976 24.8489L5.05026 24.8181L2.21113 23.8489ZM0.827114 28.8327L3.76056 29.4611L3.76363 29.4468L3.76656 29.4324L0.827114 28.8327ZM0.32887 31.7676L3.29121 32.2415L3.3005 32.1834L3.30751 32.125L0.32887 31.7676ZM1.04856 38.5235L3.73199 37.1821L3.70653 37.1312L3.67916 37.0813L1.04856 38.5235ZM4.20412 41.1815L3.11323 43.9761L3.11324 43.9761L4.20412 41.1815ZM10.1625 42.6063L10.1828 42.5109L4.31466 41.2601L4.29433 41.3555L10.1625 42.6063ZM8.21343 38.9809H7.22841V44.9809H8.21343V38.9809ZM10.626 39.0675C9.82599 39.0675 9.10028 39.0408 8.44596 38.9899L7.9809 44.9719C8.81225 45.0365 9.6949 45.0675 10.626 45.0675V39.0675ZM28.286 39.0675H10.626V45.0675H28.286V39.0675ZM25.3853 41.2849L25.3515 41.4439L31.2205 42.6911L31.2543 42.5321L25.3853 41.2849ZM31.6134 38.2689C30.7487 38.5755 29.5967 38.8091 28.1049 38.9162L28.5347 44.9008C30.3967 44.7671 32.1089 44.4592 33.6186 43.9239L31.6134 38.2689ZM34.3206 36.6031C33.7623 37.2241 32.9109 37.8088 31.6134 38.2689L33.6186 43.9239C35.647 43.2046 37.4193 42.1309 38.7826 40.6143L34.3206 36.6031ZM35.9306 33.7119C35.5272 34.8903 34.9722 35.8526 34.2872 36.6409L38.816 40.5765C40.0526 39.1536 40.9759 37.4992 41.6071 35.6555L35.9306 33.7119ZM37.2156 29.1069C36.8718 30.7867 36.4483 32.2986 35.9524 33.6505L41.5853 35.7169C42.198 34.0468 42.6984 32.2418 43.0938 30.3098L37.2156 29.1069ZM37.675 26.4201C37.5765 27.2388 37.4266 28.1242 37.2216 29.0782L43.0877 30.3386C43.3262 29.2287 43.5088 28.1608 43.6321 27.1368L37.675 26.4201ZM37.8753 24.2355C37.8753 24.8218 37.819 25.5082 37.6914 26.3032L43.6157 27.2537C43.7837 26.206 43.8753 25.1971 43.8753 24.2355H37.8753ZM37.3041 21.4796C37.6314 22.0747 37.8753 22.948 37.8753 24.2355H43.8753C43.8753 22.2061 43.4909 20.2785 42.5617 18.5886L37.3041 21.4796ZM35.6853 20.1763C36.676 20.5619 37.0659 21.0092 37.2511 21.3787L42.6148 18.6896C41.6174 16.7003 39.901 15.3786 37.8614 14.5849L35.6853 20.1763ZM33.3274 19.6516C34.3841 19.7776 35.1513 19.9685 35.6853 20.1763L37.8614 14.5849C36.7192 14.1404 35.4259 13.8593 34.0377 13.6938L33.3274 19.6516ZM30.7764 15.9157L30.748 16.0491L36.617 17.2963L36.6453 17.1629L30.7764 15.9157ZM32.089 19.5393H33.7109V13.5393H32.089V19.5393ZM30.3433 19.4961C30.9093 19.4961 31.4387 19.5094 31.9325 19.5352L32.2456 13.5434C31.637 13.5116 31.0025 13.4961 30.3433 13.4961V19.4961ZM12.6607 19.4961H30.3433V13.4961H12.6607V19.4961ZM15.5699 17.238L15.5947 17.1215L9.72657 15.8707L9.70173 15.9872L15.5699 17.238ZM9.36144 20.2519C10.222 19.9458 11.3682 19.7124 12.8527 19.6048L12.419 13.6205C10.5634 13.755 8.85651 14.0633 7.3509 14.5988L9.36144 20.2519ZM6.65954 21.9196C7.21724 21.2973 8.06702 20.7122 9.36144 20.2519L7.3509 14.5988C5.32368 15.3197 3.55306 16.3959 2.19159 17.9149L6.65954 21.9196ZM5.05026 24.8181C5.45366 23.6364 6.00843 22.6717 6.69289 21.8817L2.15823 17.9527C0.923526 19.3778 0.00200421 21.0342 -0.627998 22.8797L5.05026 24.8181ZM3.76656 29.4324C4.10996 27.7493 4.53307 26.2342 5.02859 24.8794L-0.606325 22.8184C-1.21803 24.4908 -1.71759 26.2982 -2.11233 28.233L3.76656 29.4324ZM3.30751 32.125C3.40596 31.3044 3.55577 30.4171 3.76056 29.4611L-2.10633 28.2043C-2.34442 29.3157 -2.52677 30.385 -2.64977 31.4103L3.30751 32.125ZM3.10742 34.3149C3.10742 33.7267 3.16373 33.0384 3.29121 32.2415L-2.63347 31.2938C-2.80125 32.3427 -2.89258 33.3526 -2.89258 34.3149H3.10742ZM3.67916 37.0813C3.35144 36.4835 3.10742 35.6066 3.10742 34.3149H-2.89258C-2.89258 36.3458 -2.50916 38.2746 -1.58204 39.9657L3.67916 37.0813ZM5.29501 38.3869C4.30784 38.0015 3.91797 37.5542 3.73199 37.1821L-1.63486 39.8648C-0.639814 41.8554 1.07402 43.1801 3.11323 43.9761L5.29501 38.3869ZM7.61128 38.9075C6.57466 38.7813 5.82086 38.5921 5.295 38.3869L3.11324 43.9761C4.24203 44.4167 5.51798 44.6969 6.88622 44.8635L7.61128 38.9075Z" fill="url(#paint3_linear_2479_773)" mask="url(#path-5-outside-2_2479_773)"/>
<mask id="path-7-outside-3_2479_773" maskUnits="userSpaceOnUse" x="-2.89258" y="22.0378" width="47" height="32" fill="black">
<rect fill="white" x="-2.89258" y="22.0378" width="47" height="32"/>
<path fill-rule="evenodd" clip-rule="evenodd" d="M7.24875 50.4272L7.22841 50.5226H8.21343C8.95627 50.5804 9.76044 50.6093 10.626 50.6093H28.286L28.3198 50.4502C29.9967 50.3298 31.4288 50.0591 32.616 49.6381C34.2789 49.0485 35.5908 48.2192 36.5516 47.1505C37.5124 46.0448 38.2515 44.7365 38.7689 43.2255C39.3232 41.7144 39.7851 40.056 40.1547 38.2501C40.3764 37.2182 40.5427 36.2416 40.6535 35.3202C40.8014 34.3988 40.8753 33.5512 40.8753 32.7773C40.8753 31.1188 40.5612 29.7183 39.9329 28.5759C39.3417 27.3965 38.2885 26.512 36.7733 25.9223C35.9353 25.5962 34.905 25.3602 33.6825 25.2145L33.7109 25.0811L32.089 25.0811C31.5378 25.0522 30.9559 25.0378 30.3433 25.0378H12.6607L12.6358 25.1544C10.9658 25.2754 9.53925 25.5463 8.35617 25.9671C6.69535 26.5577 5.38515 27.3884 4.42556 28.459C3.46598 29.5665 2.72783 30.877 2.21113 32.3906C1.65752 33.9042 1.19619 35.5655 0.827114 37.3745C0.605672 38.4081 0.439592 39.3864 0.32887 40.3094C0.181241 41.2323 0.107422 42.0814 0.107422 42.8567C0.107422 44.5179 0.421139 45.9208 1.04856 47.0652C1.63908 48.2466 2.69093 49.1326 4.20412 49.7232C5.03144 50.0462 6.04632 50.2808 7.24875 50.4272Z"/>
</mask>
<path d="M7.22841 50.5226L4.29433 49.8972L3.52154 53.5226H7.22841V50.5226ZM7.24875 50.4272L10.1828 51.0526L10.8665 47.8455L7.61128 47.4492L7.24875 50.4272ZM8.21343 50.5226L8.44596 47.5317L8.32987 47.5226H8.21343V50.5226ZM28.286 50.6093V53.6093H30.7155L31.2205 51.2328L28.286 50.6093ZM28.3198 50.4502L28.1049 47.4579L25.8544 47.6196L25.3853 49.8266L28.3198 50.4502ZM32.616 49.6381L33.6186 52.4656L32.616 49.6381ZM36.5516 47.1505L38.7826 49.1561L38.7995 49.1373L38.816 49.1183L36.5516 47.1505ZM38.7689 43.2255L35.9524 42.1923L35.9412 42.2228L35.9306 42.2537L38.7689 43.2255ZM40.1547 38.2501L37.2216 37.6199L37.2185 37.6343L37.2156 37.6487L40.1547 38.2501ZM40.6535 35.3202L37.6914 34.845L37.6821 34.9032L37.675 34.9618L40.6535 35.3202ZM39.9329 28.5759L37.2511 29.9204L37.2767 29.9714L37.3041 30.0214L39.9329 28.5759ZM36.7733 25.9223L37.8614 23.1266L37.8614 23.1266L36.7733 25.9223ZM33.6825 25.2145L30.748 24.5909L30.0652 27.8044L33.3274 28.1934L33.6825 25.2145ZM33.7109 25.0811L36.6453 25.7046L37.4154 22.0811L33.7109 22.0811V25.0811ZM32.089 25.0811L31.9325 28.077L32.0107 28.0811H32.089V25.0811ZM12.6607 25.0378V22.0378H10.2327L9.72657 24.4124L12.6607 25.0378ZM12.6358 25.1544L12.8527 28.1465L15.1001 27.9836L15.5699 25.7798L12.6358 25.1544ZM8.35617 25.9671L9.36144 28.7936L9.36144 28.7936L8.35617 25.9671ZM4.42556 28.459L2.19159 26.4566L2.17475 26.4754L2.15823 26.4945L4.42556 28.459ZM2.21113 32.3906L5.02859 33.4211L5.03976 33.3906L5.05026 33.3598L2.21113 32.3906ZM0.827114 37.3745L3.76056 38.0029L3.76363 37.9885L3.76656 37.9742L0.827114 37.3745ZM0.32887 40.3094L3.29121 40.7832L3.3005 40.7251L3.30751 40.6667L0.32887 40.3094ZM1.04856 47.0652L3.73199 45.7239L3.70653 45.6729L3.67916 45.623L1.04856 47.0652ZM4.20412 49.7232L3.11323 52.5179L3.11324 52.5179L4.20412 49.7232ZM10.1625 51.148L10.1828 51.0526L4.31466 49.8018L4.29433 49.8972L10.1625 51.148ZM8.21343 47.5226H7.22841V53.5226H8.21343V47.5226ZM10.626 47.6093C9.82599 47.6093 9.10028 47.5825 8.44596 47.5317L7.9809 53.5136C8.81225 53.5782 9.6949 53.6093 10.626 53.6093V47.6093ZM28.286 47.6093H10.626V53.6093H28.286V47.6093ZM25.3853 49.8266L25.3515 49.9857L31.2205 51.2328L31.2543 51.0738L25.3853 49.8266ZM31.6134 46.8106C30.7487 47.1172 29.5967 47.3508 28.1049 47.4579L28.5347 53.4425C30.3967 53.3088 32.1089 53.001 33.6186 52.4656L31.6134 46.8106ZM34.3206 45.1448C33.7623 45.7658 32.9109 46.3505 31.6134 46.8106L33.6186 52.4656C35.647 51.7464 37.4193 50.6726 38.7826 49.1561L34.3206 45.1448ZM35.9306 42.2537C35.5272 43.432 34.9722 44.3943 34.2872 45.1826L38.816 49.1183C40.0526 47.6953 40.9759 46.0409 41.6071 44.1973L35.9306 42.2537ZM37.2156 37.6487C36.8718 39.3284 36.4483 40.8404 35.9524 42.1923L41.5853 44.2587C42.198 42.5885 42.6984 40.7836 43.0938 38.8516L37.2156 37.6487ZM37.675 34.9618C37.5765 35.7805 37.4266 36.6659 37.2216 37.6199L43.0877 38.8803C43.3262 37.7705 43.5088 36.7026 43.6321 35.6786L37.675 34.9618ZM37.8753 32.7773C37.8753 33.3636 37.819 34.0499 37.6914 34.845L43.6157 35.7954C43.7837 34.7478 43.8753 33.7388 43.8753 32.7773H37.8753ZM37.3041 30.0214C37.6314 30.6164 37.8753 31.4897 37.8753 32.7773H43.8753C43.8753 30.7479 43.4909 28.8203 42.5617 27.1304L37.3041 30.0214ZM35.6853 28.7181C36.676 29.1036 37.0659 29.551 37.2511 29.9204L42.6148 27.2313C41.6174 25.2421 39.901 23.9204 37.8614 23.1266L35.6853 28.7181ZM33.3274 28.1934C34.3841 28.3194 35.1513 28.5103 35.6853 28.7181L37.8614 23.1266C36.7192 22.6821 35.4259 22.4011 34.0377 22.2356L33.3274 28.1934ZM30.7764 24.4575L30.748 24.5909L36.617 25.8381L36.6453 25.7046L30.7764 24.4575ZM32.089 28.0811H33.7109V22.0811H32.089V28.0811ZM30.3433 28.0378C30.9093 28.0378 31.4387 28.0512 31.9325 28.077L32.2456 22.0851C31.637 22.0533 31.0025 22.0378 30.3433 22.0378V28.0378ZM12.6607 28.0378H30.3433V22.0378H12.6607V28.0378ZM15.5699 25.7798L15.5947 25.6633L9.72657 24.4124L9.70173 24.5289L15.5699 25.7798ZM9.36144 28.7936C10.222 28.4876 11.3682 28.2541 12.8527 28.1465L12.419 22.1622C10.5634 22.2967 8.85651 22.605 7.3509 23.1405L9.36144 28.7936ZM6.65954 30.4613C7.21724 29.8391 8.06702 29.254 9.36144 28.7936L7.3509 23.1405C5.32368 23.8615 3.55306 24.9377 2.19159 26.4566L6.65954 30.4613ZM5.05026 33.3598C5.45366 32.1781 6.00843 31.2134 6.69289 30.4235L2.15823 26.4945C0.923526 27.9195 0.00200421 29.5759 -0.627998 31.4215L5.05026 33.3598ZM3.76656 37.9742C4.10996 36.291 4.53307 34.7759 5.02859 33.4211L-0.606325 31.3601C-1.21803 33.0326 -1.71759 34.84 -2.11233 36.7747L3.76656 37.9742ZM3.30751 40.6667C3.40596 39.8461 3.55577 38.9588 3.76056 38.0029L-2.10633 36.746C-2.34442 37.8574 -2.52677 38.9268 -2.64977 39.952L3.30751 40.6667ZM3.10742 42.8567C3.10742 42.2684 3.16373 41.5802 3.29121 40.7832L-2.63347 39.8355C-2.80125 40.8844 -2.89258 41.8943 -2.89258 42.8567H3.10742ZM3.67916 45.623C3.35144 45.0252 3.10742 44.1483 3.10742 42.8567H-2.89258C-2.89258 44.8875 -2.50916 46.8163 -1.58204 48.5074L3.67916 45.623ZM5.29501 46.9286C4.30784 46.5433 3.91797 46.0959 3.73199 45.7239L-1.63486 48.4066C-0.639814 50.3972 1.07402 51.7219 3.11323 52.5179L5.29501 46.9286ZM7.61128 47.4492C6.57466 47.323 5.82086 47.1339 5.295 46.9286L3.11324 52.5179C4.24203 52.9585 5.51798 53.2387 6.88622 53.4052L7.61128 47.4492Z" fill="url(#paint4_linear_2479_773)" mask="url(#path-7-outside-3_2479_773)"/>
<mask id="path-9-outside-4_2479_773" maskUnits="userSpaceOnUse" x="-2.89258" y="30.0457" width="47" height="32" fill="black">
<rect fill="white" x="-2.89258" y="30.0457" width="47" height="32"/>
<path fill-rule="evenodd" clip-rule="evenodd" d="M7.24875 58.435L7.22841 58.5304H8.21343C8.95627 58.5882 9.76044 58.6171 10.626 58.6171H28.286L28.3198 58.458C29.9967 58.3376 31.4288 58.0669 32.616 57.6459C34.2789 57.0563 35.5908 56.227 36.5516 55.1583C37.5124 54.0526 38.2515 52.7443 38.7689 51.2333C39.3232 49.7222 39.7851 48.0638 40.1547 46.2579C40.3764 45.226 40.5427 44.2494 40.6535 43.328C40.8014 42.4067 40.8753 41.559 40.8753 40.7851C40.8753 39.1266 40.5612 37.7262 39.9329 36.5837C39.3417 35.4043 38.2885 34.5198 36.7733 33.9302C35.9353 33.604 34.905 33.368 33.6825 33.2223L33.7109 33.0889L32.089 33.0889C31.5378 33.0601 30.9559 33.0457 30.3433 33.0457H12.6607L12.6358 33.1622C10.9658 33.2832 9.53925 33.5541 8.35617 33.9749C6.69535 34.5656 5.38515 35.3962 4.42556 36.4668C3.46598 37.5743 2.72783 38.8849 2.21113 40.3985C1.65752 41.9121 1.19619 43.5733 0.827114 45.3823C0.605672 46.416 0.439592 47.3943 0.32887 48.3172C0.181241 49.2401 0.107422 50.0892 0.107422 50.8645C0.107422 52.5257 0.421139 53.9286 1.04856 55.073C1.63908 56.2544 2.69093 57.1404 4.20412 57.7311C5.03144 58.054 6.04632 58.2887 7.24875 58.435Z"/>
</mask>
<path d="M7.22841 58.5304L4.29433 57.905L3.52154 61.5304H7.22841V58.5304ZM7.24875 58.435L10.1828 59.0605L10.8665 55.8533L7.61128 55.457L7.24875 58.435ZM8.21343 58.5304L8.44596 55.5395L8.32987 55.5304H8.21343V58.5304ZM28.286 58.6171V61.6171H30.7155L31.2205 59.2407L28.286 58.6171ZM28.3198 58.458L28.1049 55.4658L25.8544 55.6274L25.3853 57.8344L28.3198 58.458ZM32.616 57.6459L33.6186 60.4734L32.616 57.6459ZM36.5516 55.1583L38.7826 57.1639L38.7995 57.1451L38.816 57.1261L36.5516 55.1583ZM38.7689 51.2333L35.9524 50.2001L35.9412 50.2307L35.9306 50.2615L38.7689 51.2333ZM40.1547 46.2579L37.2216 45.6277L37.2185 45.6421L37.2156 45.6565L40.1547 46.2579ZM40.6535 43.328L37.6914 42.8528L37.6821 42.911L37.675 42.9696L40.6535 43.328ZM39.9329 36.5837L37.2511 37.9282L37.2767 37.9792L37.3041 38.0292L39.9329 36.5837ZM36.7733 33.9302L37.8614 31.1344L37.8614 31.1344L36.7733 33.9302ZM33.6825 33.2223L30.748 32.5987L30.0652 35.8122L33.3274 36.2012L33.6825 33.2223ZM33.7109 33.0889L36.6453 33.7125L37.4154 30.0889L33.7109 30.0889V33.0889ZM32.089 33.0889L31.9325 36.0848L32.0107 36.0889H32.089V33.0889ZM12.6607 33.0457V30.0457H10.2327L9.72657 32.4202L12.6607 33.0457ZM12.6358 33.1622L12.8527 36.1543L15.1001 35.9914L15.5699 33.7876L12.6358 33.1622ZM8.35617 33.9749L9.36144 36.8014L9.36144 36.8014L8.35617 33.9749ZM4.42556 36.4668L2.19159 34.4645L2.17475 34.4832L2.15823 34.5023L4.42556 36.4668ZM2.21113 40.3985L5.02859 41.429L5.03976 41.3984L5.05026 41.3677L2.21113 40.3985ZM0.827114 45.3823L3.76056 46.0107L3.76363 45.9964L3.76656 45.982L0.827114 45.3823ZM0.32887 48.3172L3.29121 48.791L3.3005 48.7329L3.30751 48.6745L0.32887 48.3172ZM1.04856 55.073L3.73199 53.7317L3.70653 53.6807L3.67916 53.6308L1.04856 55.073ZM4.20412 57.7311L3.11323 60.5257L3.11324 60.5257L4.20412 57.7311ZM10.1625 59.1559L10.1828 59.0605L4.31466 57.8096L4.29433 57.905L10.1625 59.1559ZM8.21343 55.5304H7.22841V61.5304H8.21343V55.5304ZM10.626 55.6171C9.82599 55.6171 9.10028 55.5903 8.44596 55.5395L7.9809 61.5214C8.81225 61.586 9.6949 61.6171 10.626 61.6171V55.6171ZM28.286 55.6171H10.626V61.6171H28.286V55.6171ZM25.3853 57.8344L25.3515 57.9935L31.2205 59.2407L31.2543 59.0816L25.3853 57.8344ZM31.6134 54.8184C30.7487 55.1251 29.5967 55.3586 28.1049 55.4658L28.5347 61.4503C30.3967 61.3166 32.1089 61.0088 33.6186 60.4734L31.6134 54.8184ZM34.3206 53.1526C33.7623 53.7737 32.9109 54.3583 31.6134 54.8184L33.6186 60.4734C35.647 59.7542 37.4193 58.6804 38.7826 57.1639L34.3206 53.1526ZM35.9306 50.2615C35.5272 51.4399 34.9722 52.4021 34.2872 53.1904L38.816 57.1261C40.0526 55.7031 40.9759 54.0488 41.6071 52.2051L35.9306 50.2615ZM37.2156 45.6565C36.8718 47.3362 36.4483 48.8482 35.9524 50.2001L41.5853 52.2665C42.198 50.5963 42.6984 48.7914 43.0938 46.8594L37.2156 45.6565ZM37.675 42.9696C37.5765 43.7884 37.4266 44.6737 37.2216 45.6277L43.0877 46.8882C43.3262 45.7783 43.5088 44.7104 43.6321 43.6864L37.675 42.9696ZM37.8753 40.7851C37.8753 41.3714 37.819 42.0578 37.6914 42.8528L43.6157 43.8032C43.7837 42.7556 43.8753 41.7466 43.8753 40.7851H37.8753ZM37.3041 38.0292C37.6314 38.6242 37.8753 39.4975 37.8753 40.7851H43.8753C43.8753 38.7557 43.4909 36.8281 42.5617 35.1382L37.3041 38.0292ZM35.6853 36.7259C36.676 37.1115 37.0659 37.5588 37.2511 37.9282L42.6148 35.2391C41.6174 33.2499 39.901 31.9282 37.8614 31.1344L35.6853 36.7259ZM33.3274 36.2012C34.3841 36.3272 35.1513 36.5181 35.6853 36.7259L37.8614 31.1344C36.7192 30.6899 35.4259 30.4089 34.0377 30.2434L33.3274 36.2012ZM30.7764 32.4653L30.748 32.5987L36.617 33.8459L36.6453 33.7125L30.7764 32.4653ZM32.089 36.0889H33.7109V30.0889H32.089V36.0889ZM30.3433 36.0457C30.9093 36.0457 31.4387 36.059 31.9325 36.0848L32.2456 30.093C31.637 30.0611 31.0025 30.0457 30.3433 30.0457V36.0457ZM12.6607 36.0457H30.3433V30.0457H12.6607V36.0457ZM15.5699 33.7876L15.5947 33.6711L9.72657 32.4202L9.70173 32.5368L15.5699 33.7876ZM9.36144 36.8014C10.222 36.4954 11.3682 36.2619 12.8527 36.1543L12.419 30.17C10.5634 30.3045 8.85651 30.6128 7.3509 31.1483L9.36144 36.8014ZM6.65954 38.4691C7.21724 37.8469 8.06702 37.2618 9.36144 36.8014L7.3509 31.1483C5.32368 31.8693 3.55306 32.9455 2.19159 34.4645L6.65954 38.4691ZM5.05026 41.3677C5.45366 40.186 6.00843 39.2213 6.69289 38.4313L2.15823 34.5023C0.923526 35.9273 0.00200421 37.5838 -0.627998 39.4293L5.05026 41.3677ZM3.76656 45.982C4.10996 44.2989 4.53307 42.7837 5.02859 41.429L-0.606325 39.368C-1.21803 41.0404 -1.71759 42.8478 -2.11233 44.7825L3.76656 45.982ZM3.30751 48.6745C3.40596 47.8539 3.55577 46.9666 3.76056 46.0107L-2.10633 44.7538C-2.34442 45.8653 -2.52677 46.9346 -2.64977 47.9598L3.30751 48.6745ZM3.10742 50.8645C3.10742 50.2763 3.16373 49.588 3.29121 48.791L-2.63347 47.8433C-2.80125 48.8922 -2.89258 49.9022 -2.89258 50.8645H3.10742ZM3.67916 53.6308C3.35144 53.0331 3.10742 52.1561 3.10742 50.8645H-2.89258C-2.89258 52.8954 -2.50916 54.8241 -1.58204 56.5152L3.67916 53.6308ZM5.29501 54.9364C4.30784 54.5511 3.91797 54.1037 3.73199 53.7317L-1.63486 56.4144C-0.639814 58.405 1.07402 59.7297 3.11323 60.5257L5.29501 54.9364ZM7.61128 55.457C6.57466 55.3308 5.82086 55.1417 5.295 54.9364L3.11324 60.5257C4.24203 60.9663 5.51798 61.2465 6.88622 61.4131L7.61128 55.457Z" fill="url(#paint5_linear_2479_773)" mask="url(#path-9-outside-4_2479_773)"/>
<mask id="path-11-outside-5_2479_773" maskUnits="userSpaceOnUse" x="-2.89258" y="35.6511" width="47" height="32" fill="black">
<rect fill="white" x="-2.89258" y="35.6511" width="47" height="32"/>
<path fill-rule="evenodd" clip-rule="evenodd" d="M7.24875 64.0405L7.22841 64.1359H8.21343C8.95627 64.1937 9.76044 64.2225 10.626 64.2225H28.286L28.3198 64.0635C29.9967 63.9431 31.4288 63.6724 32.616 63.2514C34.2789 62.6617 35.5908 61.8325 36.5516 60.7637C37.5124 59.6581 38.2515 58.3498 38.7689 56.8387C39.3232 55.3277 39.7851 53.6693 40.1547 51.8634C40.3764 50.8315 40.5427 49.8548 40.6535 48.9335C40.8014 48.0121 40.8753 47.1645 40.8753 46.3905C40.8753 44.7321 40.5612 43.3316 39.9329 42.1891C39.3417 41.0098 38.2885 40.1253 36.7733 39.5356C35.9353 39.2095 34.905 38.9735 33.6825 38.8277L33.7109 38.6943L32.089 38.6943C31.5378 38.6655 30.9559 38.6511 30.3433 38.6511H12.6607L12.6358 38.7676C10.9658 38.8887 9.53925 39.1596 8.35617 39.5803C6.69535 40.171 5.38515 41.0017 4.42556 42.0723C3.46598 43.1798 2.72783 44.4903 2.21113 46.0039C1.65752 47.5175 1.19619 49.1788 0.827114 50.9877C0.605672 52.0214 0.439592 52.9997 0.32887 53.9227C0.181241 54.8456 0.107422 55.6947 0.107422 56.4699C0.107422 58.1312 0.421139 59.5341 1.04856 60.6785C1.63908 61.8598 2.69093 62.7458 4.20412 63.3365C5.03144 63.6595 6.04632 63.8941 7.24875 64.0405Z"/>
</mask>
<path d="M7.22841 64.1359L4.29433 63.5105L3.52154 67.1359H7.22841V64.1359ZM7.24875 64.0405L10.1828 64.6659L10.8665 61.4588L7.61128 61.0625L7.24875 64.0405ZM8.21343 64.1359L8.44596 61.1449L8.32987 61.1359H8.21343V64.1359ZM28.286 64.2225V67.2225H30.7155L31.2205 64.8461L28.286 64.2225ZM28.3198 64.0635L28.1049 61.0712L25.8544 61.2329L25.3853 63.4399L28.3198 64.0635ZM32.616 63.2514L33.6186 66.0789L32.616 63.2514ZM36.5516 60.7637L38.7826 62.7694L38.7995 62.7506L38.816 62.7316L36.5516 60.7637ZM38.7689 56.8387L35.9524 55.8055L35.9412 55.8361L35.9306 55.867L38.7689 56.8387ZM40.1547 51.8634L37.2216 51.2332L37.2185 51.2476L37.2156 51.262L40.1547 51.8634ZM40.6535 48.9335L37.6914 48.4583L37.6821 48.5165L37.675 48.5751L40.6535 48.9335ZM39.9329 42.1891L37.2511 43.5337L37.2767 43.5847L37.3041 43.6346L39.9329 42.1891ZM36.7733 39.5356L37.8614 36.7399L37.8614 36.7399L36.7733 39.5356ZM33.6825 38.8277L30.748 38.2042L30.0652 41.4177L33.3274 41.8067L33.6825 38.8277ZM33.7109 38.6943L36.6453 39.3179L37.4154 35.6943L33.7109 35.6943V38.6943ZM32.089 38.6943L31.9325 41.6902L32.0107 41.6943H32.089V38.6943ZM12.6607 38.6511V35.6511H10.2327L9.72657 38.0257L12.6607 38.6511ZM12.6358 38.7676L12.8527 41.7598L15.1001 41.5969L15.5699 39.3931L12.6358 38.7676ZM8.35617 39.5803L9.36144 42.4069L9.36144 42.4069L8.35617 39.5803ZM4.42556 42.0723L2.19159 40.0699L2.17475 40.0887L2.15823 40.1078L4.42556 42.0723ZM2.21113 46.0039L5.02859 47.0344L5.03976 47.0039L5.05026 46.9731L2.21113 46.0039ZM0.827114 50.9877L3.76056 51.6162L3.76363 51.6018L3.76656 51.5875L0.827114 50.9877ZM0.32887 53.9227L3.29121 54.3965L3.3005 54.3384L3.30751 54.28L0.32887 53.9227ZM1.04856 60.6785L3.73199 59.3371L3.70653 59.2862L3.67916 59.2363L1.04856 60.6785ZM4.20412 63.3365L3.11323 66.1312L3.11324 66.1312L4.20412 63.3365ZM10.1625 64.7613L10.1828 64.6659L4.31466 63.4151L4.29433 63.5105L10.1625 64.7613ZM8.21343 61.1359H7.22841V67.1359H8.21343V61.1359ZM10.626 61.2225C9.82599 61.2225 9.10028 61.1958 8.44596 61.1449L7.9809 67.1269C8.81225 67.1915 9.6949 67.2225 10.626 67.2225V61.2225ZM28.286 61.2225H10.626V67.2225H28.286V61.2225ZM25.3853 63.4399L25.3515 63.5989L31.2205 64.8461L31.2543 64.6871L25.3853 63.4399ZM31.6134 60.4239C30.7487 60.7305 29.5967 60.9641 28.1049 61.0712L28.5347 67.0558C30.3967 66.9221 32.1089 66.6142 33.6186 66.0789L31.6134 60.4239ZM34.3206 58.7581C33.7623 59.3791 32.9109 59.9638 31.6134 60.4239L33.6186 66.0789C35.647 65.3597 37.4193 64.2859 38.7826 62.7694L34.3206 58.7581ZM35.9306 55.867C35.5272 57.0453 34.9722 58.0076 34.2872 58.7959L38.816 62.7316C40.0526 61.3086 40.9759 59.6542 41.6071 57.8105L35.9306 55.867ZM37.2156 51.262C36.8718 52.9417 36.4483 54.4536 35.9524 55.8055L41.5853 57.872C42.198 56.2018 42.6984 54.3969 43.0938 52.4648L37.2156 51.262ZM37.675 48.5751C37.5765 49.3938 37.4266 50.2792 37.2216 51.2332L43.0877 52.4936C43.3262 51.3838 43.5088 50.3159 43.6321 49.2919L37.675 48.5751ZM37.8753 46.3905C37.8753 46.9769 37.819 47.6632 37.6914 48.4583L43.6157 49.4087C43.7837 48.361 43.8753 47.3521 43.8753 46.3905H37.8753ZM37.3041 43.6346C37.6314 44.2297 37.8753 45.103 37.8753 46.3905H43.8753C43.8753 44.3612 43.4909 42.4335 42.5617 40.7436L37.3041 43.6346ZM35.6853 42.3314C36.676 42.7169 37.0659 43.1642 37.2511 43.5337L42.6148 40.8446C41.6174 38.8554 39.901 37.5337 37.8614 36.7399L35.6853 42.3314ZM33.3274 41.8067C34.3841 41.9326 35.1513 42.1235 35.6853 42.3314L37.8614 36.7399C36.7192 36.2954 35.4259 36.0144 34.0377 35.8488L33.3274 41.8067ZM30.7764 38.0708L30.748 38.2042L36.617 39.4513L36.6453 39.3179L30.7764 38.0708ZM32.089 41.6943H33.7109V35.6943H32.089V41.6943ZM30.3433 41.6511C30.9093 41.6511 31.4387 41.6644 31.9325 41.6902L32.2456 35.6984C31.637 35.6666 31.0025 35.6511 30.3433 35.6511V41.6511ZM12.6607 41.6511H30.3433V35.6511H12.6607V41.6511ZM15.5699 39.3931L15.5947 39.2765L9.72657 38.0257L9.70173 38.1422L15.5699 39.3931ZM9.36144 42.4069C10.222 42.1009 11.3682 41.8674 12.8527 41.7598L12.419 35.7755C10.5634 35.91 8.85651 36.2183 7.3509 36.7538L9.36144 42.4069ZM6.65954 44.0746C7.21724 43.4524 8.06702 42.8673 9.36144 42.4069L7.3509 36.7538C5.32368 37.4748 3.55306 38.5509 2.19159 40.0699L6.65954 44.0746ZM5.05026 46.9731C5.45366 45.7914 6.00843 44.8267 6.69289 44.0367L2.15823 40.1078C0.923526 41.5328 0.00200421 43.1892 -0.627998 45.0347L5.05026 46.9731ZM3.76656 51.5875C4.10996 49.9043 4.53307 48.3892 5.02859 47.0344L-0.606325 44.9734C-1.21803 46.6459 -1.71759 48.4533 -2.11233 50.388L3.76656 51.5875ZM3.30751 54.28C3.40596 53.4594 3.55577 52.5721 3.76056 51.6162L-2.10633 50.3593C-2.34442 51.4707 -2.52677 52.5401 -2.64977 53.5653L3.30751 54.28ZM3.10742 56.4699C3.10742 55.8817 3.16373 55.1935 3.29121 54.3965L-2.63347 53.4488C-2.80125 54.4977 -2.89258 55.5076 -2.89258 56.4699H3.10742ZM3.67916 59.2363C3.35144 58.6385 3.10742 57.7616 3.10742 56.4699H-2.89258C-2.89258 58.5008 -2.50916 60.4296 -1.58204 62.1207L3.67916 59.2363ZM5.29501 60.5419C4.30784 60.1565 3.91797 59.7092 3.73199 59.3371L-1.63486 62.0198C-0.639814 64.0105 1.07402 65.3351 3.11323 66.1312L5.29501 60.5419ZM7.61128 61.0625C6.57466 60.9363 5.82086 60.7472 5.295 60.5419L3.11324 66.1312C4.24203 66.5718 5.51798 66.852 6.88622 67.0185L7.61128 61.0625Z" fill="url(#paint6_linear_2479_773)" mask="url(#path-11-outside-5_2479_773)"/>
<mask id="path-13-outside-6_2479_773" maskUnits="userSpaceOnUse" x="-2.89258" y="1.75122" width="47" height="32" fill="black">
<rect fill="white" x="-2.89258" y="1.75122" width="47" height="32"/>
<path fill-rule="evenodd" clip-rule="evenodd" d="M7.24875 30.1406L7.22841 30.236H8.21343C8.95627 30.2938 9.76044 30.3226 10.626 30.3226H28.286L28.3198 30.1636C29.9967 30.0432 31.4288 29.7725 32.616 29.3515C34.2789 28.7618 35.5908 27.9326 36.5516 26.8638C37.5124 25.7582 38.2515 24.4499 38.7689 22.9388C39.3232 21.4278 39.7851 19.7694 40.1547 17.9635C40.3764 16.9316 40.5427 15.9549 40.6535 15.0336C40.8014 14.1122 40.8753 13.2646 40.8753 12.4906C40.8753 10.8322 40.5612 9.43172 39.9329 8.28924C39.3417 7.1099 38.2885 6.22539 36.7733 5.63572C35.9353 5.30956 34.905 5.0736 33.6825 4.92785L33.7109 4.79443L32.089 4.79443C31.5378 4.76563 30.9559 4.75122 30.3433 4.75122H12.6607L12.6358 4.86775C10.9658 4.98878 9.53925 5.25968 8.35617 5.68045C6.69535 6.27112 5.38515 7.10176 4.42556 8.17235C3.46598 9.27987 2.72783 10.5904 2.21113 12.104C1.65752 13.6176 1.19619 15.2789 0.827114 17.0878C0.605672 18.1215 0.439592 19.0998 0.32887 20.0228C0.181241 20.9457 0.107422 21.7948 0.107422 22.57C0.107422 24.2313 0.421139 25.6342 1.04856 26.7786C1.63908 27.9599 2.69093 28.8459 4.20412 29.4366C5.03144 29.7596 6.04632 29.9942 7.24875 30.1406Z"/>
</mask>
<path d="M7.22841 30.236L4.29433 29.6106L3.52154 33.236H7.22841V30.236ZM7.24875 30.1406L10.1828 30.766L10.8665 27.5589L7.61128 27.1626L7.24875 30.1406ZM8.21343 30.236L8.44596 27.245L8.32987 27.236H8.21343V30.236ZM28.286 30.3226V33.3226H30.7155L31.2205 30.9462L28.286 30.3226ZM28.3198 30.1636L28.1049 27.1713L25.8544 27.333L25.3853 29.54L28.3198 30.1636ZM32.616 29.3515L33.6186 32.179L32.616 29.3515ZM36.5516 26.8638L38.7826 28.8695L38.7995 28.8507L38.816 28.8317L36.5516 26.8638ZM38.7689 22.9388L35.9524 21.9056L35.9412 21.9362L35.9306 21.9671L38.7689 22.9388ZM40.1547 17.9635L37.2216 17.3333L37.2185 17.3477L37.2156 17.3621L40.1547 17.9635ZM40.6535 15.0336L37.6914 14.5584L37.6821 14.6166L37.675 14.6752L40.6535 15.0336ZM39.9329 8.28924L37.2511 9.63379L37.2767 9.68477L37.3041 9.73474L39.9329 8.28924ZM36.7733 5.63572L37.8614 2.83999L37.8614 2.83999L36.7733 5.63572ZM33.6825 4.92785L30.748 4.30426L30.0652 7.51781L33.3274 7.90675L33.6825 4.92785ZM33.7109 4.79443L36.6453 5.41802L37.4154 1.79443L33.7109 1.79443V4.79443ZM32.089 4.79443L31.9325 7.79035L32.0107 7.79443H32.089V4.79443ZM12.6607 4.75122V1.75122H10.2327L9.72657 4.1258L12.6607 4.75122ZM12.6358 4.86775L12.8527 7.8599L15.1001 7.69701L15.5699 5.49317L12.6358 4.86775ZM8.35617 5.68045L9.36144 8.507L9.36144 8.507L8.35617 5.68045ZM4.42556 8.17235L2.19159 6.17002L2.17475 6.1888L2.15823 6.20787L4.42556 8.17235ZM2.21113 12.104L5.02859 13.1345L5.03976 13.104L5.05026 13.0732L2.21113 12.104ZM0.827114 17.0878L3.76056 17.7163L3.76363 17.7019L3.76656 17.6876L0.827114 17.0878ZM0.32887 20.0228L3.29121 20.4966L3.3005 20.4385L3.30751 20.3801L0.32887 20.0228ZM1.04856 26.7786L3.73199 25.4372L3.70653 25.3863L3.67916 25.3364L1.04856 26.7786ZM4.20412 29.4366L3.11323 32.2313L3.11324 32.2313L4.20412 29.4366ZM10.1625 30.8614L10.1828 30.766L4.31466 29.5152L4.29433 29.6106L10.1625 30.8614ZM8.21343 27.236H7.22841V33.236H8.21343V27.236ZM10.626 27.3226C9.82599 27.3226 9.10028 27.2959 8.44596 27.245L7.9809 33.227C8.81225 33.2916 9.6949 33.3226 10.626 33.3226V27.3226ZM28.286 27.3226H10.626V33.3226H28.286V27.3226ZM25.3853 29.54L25.3515 29.699L31.2205 30.9462L31.2543 30.7872L25.3853 29.54ZM31.6134 26.524C30.7487 26.8306 29.5967 27.0642 28.1049 27.1713L28.5347 33.1559C30.3967 33.0222 32.1089 32.7143 33.6186 32.179L31.6134 26.524ZM34.3206 24.8582C33.7623 25.4792 32.9109 26.0639 31.6134 26.524L33.6186 32.179C35.647 31.4598 37.4193 30.386 38.7826 28.8695L34.3206 24.8582ZM35.9306 21.9671C35.5272 23.1454 34.9722 24.1077 34.2872 24.896L38.816 28.8317C40.0526 27.4087 40.9759 25.7543 41.6071 23.9106L35.9306 21.9671ZM37.2156 17.3621C36.8718 19.0418 36.4483 20.5537 35.9524 21.9056L41.5853 23.972C42.198 22.3019 42.6984 20.497 43.0938 18.5649L37.2156 17.3621ZM37.675 14.6752C37.5765 15.4939 37.4266 16.3793 37.2216 17.3333L43.0877 18.5937C43.3262 17.4839 43.5088 16.416 43.6321 15.392L37.675 14.6752ZM37.8753 12.4906C37.8753 13.077 37.819 13.7633 37.6914 14.5584L43.6157 15.5088C43.7837 14.4611 43.8753 13.4522 43.8753 12.4906H37.8753ZM37.3041 9.73474C37.6314 10.3298 37.8753 11.2031 37.8753 12.4906H43.8753C43.8753 10.4613 43.4909 8.53363 42.5617 6.84373L37.3041 9.73474ZM35.6853 8.43145C36.676 8.81702 37.0659 9.26434 37.2511 9.63379L42.6148 6.94469C41.6174 4.95546 39.901 3.63377 37.8614 2.83999L35.6853 8.43145ZM33.3274 7.90675C34.3841 8.03274 35.1513 8.22364 35.6853 8.43146L37.8614 2.83999C36.7192 2.39548 35.4259 2.11446 34.0377 1.94895L33.3274 7.90675ZM30.7764 4.17085L30.748 4.30426L36.617 5.55143L36.6453 5.41802L30.7764 4.17085ZM32.089 7.79443H33.7109V1.79443H32.089V7.79443ZM30.3433 7.75122C30.9093 7.75122 31.4387 7.76454 31.9325 7.79035L32.2456 1.79852C31.637 1.76671 31.0025 1.75122 30.3433 1.75122V7.75122ZM12.6607 7.75122H30.3433V1.75122H12.6607V7.75122ZM15.5699 5.49317L15.5947 5.37664L9.72657 4.1258L9.70173 4.24232L15.5699 5.49317ZM9.36144 8.507C10.222 8.20095 11.3682 7.96749 12.8527 7.8599L12.419 1.87559C10.5634 2.01008 8.85651 2.31841 7.3509 2.85389L9.36144 8.507ZM6.65954 10.1747C7.21724 9.55247 8.06702 8.96737 9.36144 8.507L7.3509 2.85389C5.32368 3.57487 3.55306 4.65104 2.19159 6.17002L6.65954 10.1747ZM5.05026 13.0732C5.45366 11.8915 6.00843 10.9268 6.69289 10.1368L2.15823 6.20787C0.923526 7.63291 0.00200421 9.28933 -0.627998 11.1348L5.05026 13.0732ZM3.76656 17.6876C4.10996 16.0044 4.53307 14.4893 5.02859 13.1345L-0.606325 11.0735C-1.21803 12.746 -1.71759 14.5534 -2.11233 16.4881L3.76656 17.6876ZM3.30751 20.3801C3.40596 19.5595 3.55577 18.6722 3.76056 17.7163L-2.10633 16.4594C-2.34442 17.5708 -2.52677 18.6402 -2.64977 19.6654L3.30751 20.3801ZM3.10742 22.57C3.10742 21.9818 3.16373 21.2936 3.29121 20.4966L-2.63347 19.5489C-2.80125 20.5978 -2.89258 21.6077 -2.89258 22.57H3.10742ZM3.67916 25.3364C3.35144 24.7386 3.10742 23.8617 3.10742 22.57H-2.89258C-2.89258 24.6009 -2.50916 26.5297 -1.58204 28.2208L3.67916 25.3364ZM5.29501 26.642C4.30784 26.2566 3.91797 25.8093 3.73199 25.4372L-1.63486 28.1199C-0.639814 30.1106 1.07402 31.4352 3.11323 32.2313L5.29501 26.642ZM7.61128 27.1626C6.57466 27.0364 5.82086 26.8473 5.295 26.642L3.11324 32.2313C4.24203 32.6719 5.51798 32.9521 6.88622 33.1186L7.61128 27.1626Z" fill="url(#paint7_linear_2479_773)" mask="url(#path-13-outside-6_2479_773)"/>
</g>
<defs>
<radialGradient id="paint0_radial_2479_773" cx="0" cy="0" r="1" gradientUnits="userSpaceOnUse" gradientTransform="translate(20.5 20.5) scale(20.5)">
<stop stop-color="#9142B6"/>
<stop offset="0.255208" stop-color="#1392A4"/>
<stop offset="1" stop-color="#F7AD3F"/>
</radialGradient>
<radialGradient id="paint1_radial_2479_773" cx="0" cy="0" r="1" gradientUnits="userSpaceOnUse" gradientTransform="translate(20.5 20.5) scale(20.5)">
<stop stop-color="#9142B6"/>
<stop offset="0.255208" stop-color="#1392A4"/>
<stop offset="1" stop-color="#F7AD3F"/>
</radialGradient>
<linearGradient id="paint2_linear_2479_773" x1="20.4913" y1="9.28906" x2="20.4913" y2="34.8605" gradientUnits="userSpaceOnUse">
<stop stop-color="#FFD964"/>
<stop offset="1" stop-color="white" stop-opacity="0"/>
</linearGradient>
<linearGradient id="paint3_linear_2479_773" x1="20.4913" y1="16.4961" x2="20.4913" y2="42.0675" gradientUnits="userSpaceOnUse">
<stop stop-color="#FFD964"/>
<stop offset="1" stop-color="white" stop-opacity="0"/>
</linearGradient>
<linearGradient id="paint4_linear_2479_773" x1="20.4913" y1="25.0378" x2="20.4913" y2="50.6093" gradientUnits="userSpaceOnUse">
<stop stop-color="#FFD964"/>
<stop offset="1" stop-color="white" stop-opacity="0"/>
</linearGradient>
<linearGradient id="paint5_linear_2479_773" x1="20.4913" y1="33.0457" x2="20.4913" y2="58.6171" gradientUnits="userSpaceOnUse">
<stop stop-color="#FFD964"/>
<stop offset="1" stop-color="white" stop-opacity="0"/>
</linearGradient>
<linearGradient id="paint6_linear_2479_773" x1="20.4913" y1="38.6511" x2="20.4913" y2="64.2225" gradientUnits="userSpaceOnUse">
<stop stop-color="#FFD964"/>
<stop offset="1" stop-color="white" stop-opacity="0"/>
</linearGradient>
<linearGradient id="paint7_linear_2479_773" x1="20.4913" y1="4.75122" x2="20.4913" y2="30.3226" gradientUnits="userSpaceOnUse">
<stop stop-color="#FFD964"/>
<stop offset="1" stop-color="white" stop-opacity="0"/>
</linearGradient>
</defs>
</svg>
