<svg width="35" height="35" viewBox="0 0 35 35" fill="none" xmlns="http://www.w3.org/2000/svg">
<path fill-rule="evenodd" clip-rule="evenodd" d="M26.4252 9.79873C27.6037 9.30249 28.8672 10.2991 28.6591 11.5608L26.2011 26.4639C25.9641 27.9009 24.3859 28.7254 23.0676 28.0093C21.9644 27.4101 20.3277 26.4879 18.8527 25.524C18.1161 25.0427 15.8607 23.4994 16.138 22.4008C16.375 21.4614 20.1665 17.932 22.3332 15.8331C23.1843 15.0086 22.7967 14.5323 21.7915 15.2914C19.2981 17.1746 15.295 20.0377 13.9712 20.8435C12.8033 21.5544 12.1934 21.6757 11.466 21.5544C10.1377 21.333 8.90623 20.9903 7.90081 20.5735C6.54191 20.0102 6.6081 18.1427 7.89989 17.5989L26.4252 9.79873Z" fill="#F6F6F6"/>
</svg>
