<svg width="33" height="34" viewBox="0 0 33 34" fill="none" xmlns="http://www.w3.org/2000/svg">
<path d="M16.5 10.1667V17L21.625 22.125M31.875 17C31.875 19.0191 31.4773 21.0184 30.7046 22.8838C29.932 24.7491 28.7995 26.4441 27.3718 27.8718C25.9441 29.2995 24.2491 30.432 22.3838 31.2046C20.5184 31.9773 18.5191 32.375 16.5 32.375C14.4809 32.375 12.4816 31.9773 10.6162 31.2046C8.75086 30.432 7.05593 29.2995 5.62823 27.8718C4.20053 26.4441 3.06802 24.7491 2.29535 22.8838C1.52269 21.0184 1.125 19.0191 1.125 17C1.125 12.9223 2.74486 9.01161 5.62823 6.12823C8.5116 3.24486 12.4223 1.625 16.5 1.625C20.5777 1.625 24.4884 3.24486 27.3718 6.12823C30.2551 9.01161 31.875 12.9223 31.875 17Z" stroke="#1392A4" stroke-width="2" stroke-linecap="round" stroke-linejoin="round"/>
</svg>
