<svg width="87" height="64" viewBox="0 0 87 64" fill="none" xmlns="http://www.w3.org/2000/svg">
<path opacity="0.15" d="M0.902171 38.7435C-1.0685 84.4774 44.2765 43.1144 44.2765 43.1144C44.2765 43.1144 2.33481 5.49584 0.902171 38.7435Z" fill="#7513A4"/>
<path opacity="0.15" d="M84.9901 35.3285C82.5722 91.4393 30.7707 36.0617 30.7707 36.0617L30.7705 36.0667C30.7705 36.0667 87.8945 -32.0745 84.9901 35.3285Z" fill="#7513A4"/>
<path d="M44.7712 43.8987C43.8317 43.1473 42.5603 42.1588 41.06 41.0631C37.7417 38.6396 33.3695 35.74 29.0261 33.7058C24.5577 31.613 20.6344 30.6863 17.9583 31.4861C16.7293 31.8534 15.695 32.6039 14.9083 33.9834C14.089 35.42 13.494 37.6251 13.4161 40.9192C13.1926 50.3759 15.3754 54.3378 17.7732 55.8135C20.2355 57.329 23.9593 56.8941 28.4818 54.9044C32.8669 52.9752 37.352 49.8662 40.7891 47.1842C42.4142 45.9161 43.7838 44.7603 44.7712 43.8987Z" stroke="white" stroke-width="4"/>
<path d="M26.2064 31.5852C26.4935 31.2457 26.8304 30.8509 27.2127 30.4086C28.5974 28.8063 30.5755 26.5841 32.9442 24.1099C37.704 19.1381 43.9524 13.2427 50.0851 9.28208C53.1543 7.29996 56.0919 5.87047 58.7232 5.2408C61.3361 4.61552 63.4806 4.81238 65.1988 5.83983C66.9308 6.87558 68.5879 8.96894 69.766 12.8836C70.9457 16.8032 71.5857 22.3666 71.4047 30.0223C71.1025 42.8062 67.8636 48.3539 64.134 50.384C60.3234 52.4581 54.9496 51.4713 48.8727 48.4871C42.9286 45.5682 36.9511 41.0491 32.4145 37.2034C30.1573 35.29 28.2792 33.5626 26.9672 32.3153C26.687 32.0489 26.4328 31.8046 26.2064 31.5852Z" stroke="white" stroke-width="4"/>
<mask id="path-5-inside-1_2345_5523" fill="white">
<path fill-rule="evenodd" clip-rule="evenodd" d="M41.1532 45.7817C30.9345 54.152 -0.751461 77.1333 0.902772 38.7431C1.83735 17.0542 20.0107 25.5244 32.5338 34.0352C32.8023 33.7327 33.0988 33.4009 33.4215 33.0432C44.6435 20.6021 87.5132 -23.286 84.9874 35.3287C83.2627 75.3562 56.407 58.6484 41.1532 45.7817ZM44.2386 43.1489C48.5736 46.7667 53.7117 50.5569 58.8036 53.1814C65.2609 56.5095 70.3262 57.2926 73.652 55.5653C76.8142 53.9228 80.399 48.8985 80.9912 35.1565C81.3449 26.948 80.7653 21.1083 79.6396 17.0866C78.5168 13.0749 76.9625 11.2385 75.6217 10.4009C74.3083 9.58042 72.5144 9.29111 69.9635 9.84936C67.3759 10.4157 64.3562 11.7912 61.0712 13.8234C54.5126 17.8807 47.7239 24.0293 42.4832 29.2948C39.908 31.8821 37.7502 34.2117 36.2311 35.9007C37.457 37.1013 39.0732 38.6364 40.9711 40.3286C41.0454 40.3889 41.1186 40.4485 41.1908 40.5073C43.0509 42.0241 44.19 43.0403 44.2722 43.1138L44.2748 43.1161L44.2729 43.1179C44.2671 43.1231 44.2557 43.1335 44.2386 43.1489ZM44.2748 43.1161L44.277 43.1181L44.2771 43.114L44.2748 43.1161ZM34.8238 45.6616C36.0387 44.751 37.1348 43.8898 38.0742 43.1303C37.2535 42.4692 36.3137 41.7292 35.2797 40.9428C31.4134 38.0022 26.3598 34.5124 21.3605 32.0515C16.1135 29.4686 11.9414 28.5359 9.35508 29.2544C8.28138 29.5527 7.37154 30.1626 6.61339 31.434C5.78785 32.8185 5.06163 35.1426 4.89906 38.9153C4.41787 50.0826 6.96169 54.0381 9.01098 55.3549C11.1878 56.7536 14.9418 56.6258 20.3116 54.3868C25.4044 52.2633 30.7014 48.7514 34.8238 45.6616Z"/>
</mask>
<path fill-rule="evenodd" clip-rule="evenodd" d="M41.1532 45.7817C30.9345 54.152 -0.751461 77.1333 0.902772 38.7431C1.83735 17.0542 20.0107 25.5244 32.5338 34.0352C32.8023 33.7327 33.0988 33.4009 33.4215 33.0432C44.6435 20.6021 87.5132 -23.286 84.9874 35.3287C83.2627 75.3562 56.407 58.6484 41.1532 45.7817ZM44.2386 43.1489C48.5736 46.7667 53.7117 50.5569 58.8036 53.1814C65.2609 56.5095 70.3262 57.2926 73.652 55.5653C76.8142 53.9228 80.399 48.8985 80.9912 35.1565C81.3449 26.948 80.7653 21.1083 79.6396 17.0866C78.5168 13.0749 76.9625 11.2385 75.6217 10.4009C74.3083 9.58042 72.5144 9.29111 69.9635 9.84936C67.3759 10.4157 64.3562 11.7912 61.0712 13.8234C54.5126 17.8807 47.7239 24.0293 42.4832 29.2948C39.908 31.8821 37.7502 34.2117 36.2311 35.9007C37.457 37.1013 39.0732 38.6364 40.9711 40.3286C41.0454 40.3889 41.1186 40.4485 41.1908 40.5073C43.0509 42.0241 44.19 43.0403 44.2722 43.1138L44.2748 43.1161L44.2729 43.1179C44.2671 43.1231 44.2557 43.1335 44.2386 43.1489ZM44.2748 43.1161L44.277 43.1181L44.2771 43.114L44.2748 43.1161ZM34.8238 45.6616C36.0387 44.751 37.1348 43.8898 38.0742 43.1303C37.2535 42.4692 36.3137 41.7292 35.2797 40.9428C31.4134 38.0022 26.3598 34.5124 21.3605 32.0515C16.1135 29.4686 11.9414 28.5359 9.35508 29.2544C8.28138 29.5527 7.37154 30.1626 6.61339 31.434C5.78785 32.8185 5.06163 35.1426 4.89906 38.9153C4.41787 50.0826 6.96169 54.0381 9.01098 55.3549C11.1878 56.7536 14.9418 56.6258 20.3116 54.3868C25.4044 52.2633 30.7014 48.7514 34.8238 45.6616Z" fill="#D9D9D9"/>
<path d="M41.1532 45.7817L43.0875 43.4886L41.1813 41.8807L39.2522 43.4609L41.1532 45.7817ZM32.5338 34.0352L30.8476 36.5164L33.0278 37.9981L34.7776 36.0266L32.5338 34.0352ZM33.4215 33.0432L31.1939 31.0338L31.1939 31.0338L33.4215 33.0432ZM58.8036 53.1814L57.4292 55.848L58.8036 53.1814ZM44.2386 43.1489L42.227 40.9233L39.6647 43.2393L42.3164 45.4522L44.2386 43.1489ZM73.652 55.5653L72.2692 52.903L73.652 55.5653ZM79.6396 17.0866L82.5286 16.2779L82.5286 16.2779L79.6396 17.0866ZM75.6217 10.4009L74.0323 12.9452L74.0323 12.9453L75.6217 10.4009ZM69.9635 9.84936L69.3222 6.91873L69.3222 6.91873L69.9635 9.84936ZM61.0712 13.8234L62.6494 16.3747L62.6494 16.3747L61.0712 13.8234ZM42.4832 29.2948L44.6095 31.4111L42.4832 29.2948ZM36.2311 35.9007L34.0006 33.8945L32.0777 36.0324L34.1321 38.0441L36.2311 35.9007ZM40.9711 40.3286L38.9746 42.5678L39.0265 42.614L39.0804 42.6578L40.9711 40.3286ZM41.1908 40.5073L39.2949 42.8323L39.2949 42.8323L41.1908 40.5073ZM44.2722 43.1138L42.2722 45.3498L42.2738 45.3513L44.2722 43.1138ZM44.2729 43.1179L46.2909 45.3377L46.2918 45.3369L44.2729 43.1179ZM44.277 43.1181L42.2729 45.3504L47.0007 49.5948L47.2742 43.2472L44.277 43.1181ZM44.2771 43.114L47.2744 43.2432L47.5843 36.0508L42.2586 40.8947L44.2771 43.114ZM38.0742 43.1303L39.9605 45.463L42.8512 43.1256L39.956 40.7938L38.0742 43.1303ZM34.8238 45.6616L36.623 48.0622L36.623 48.0622L34.8238 45.6616ZM35.2797 40.9428L37.0958 38.555L37.0958 38.555L35.2797 40.9428ZM21.3605 32.0515L22.6855 29.3599L21.3605 32.0515ZM9.35508 29.2544L10.1581 32.1449L10.1581 32.1449L9.35508 29.2544ZM6.61339 31.434L9.19005 32.9705L9.19005 32.9705L6.61339 31.434ZM9.01098 55.3549L10.6327 52.831L10.6327 52.831L9.01098 55.3549ZM20.3116 54.3868L21.4661 57.1558L20.3116 54.3868ZM39.2522 43.4609C36.7551 45.5063 32.9676 48.4262 28.7333 51.066C24.4563 53.7324 19.9298 55.9814 15.9265 56.8687C11.9313 57.7541 9.11658 57.1742 7.25306 55.1719C5.19997 52.966 3.49608 48.2459 3.89999 38.8723L-2.09445 38.614C-2.51765 48.4354 -0.88113 55.239 2.86098 59.2597C6.79267 63.4841 12.2279 63.8339 17.2248 62.7265C22.2135 61.6209 27.4211 58.9546 31.9076 56.1576C36.4367 53.3339 40.442 50.2423 43.0542 48.1025L39.2522 43.4609ZM3.89999 38.8723C4.11869 33.7969 5.33092 31.1093 6.64615 29.7344C7.87144 28.4536 9.6224 27.865 12.1466 28.0557C14.7329 28.2511 17.8241 29.2598 21.153 30.8403C24.4475 32.4046 27.7933 34.4408 30.8476 36.5164L34.2201 31.554C31.0128 29.3743 27.3907 27.1601 23.7264 25.4203C20.0964 23.6967 16.2379 22.3477 12.5986 22.0728C8.89724 21.7932 5.14693 22.6218 2.31052 25.5869C-0.435946 28.4579 -1.84585 32.8448 -2.09445 38.614L3.89999 38.8723ZM34.7776 36.0266C35.041 35.7298 35.3321 35.4041 35.6492 35.0526L31.1939 31.0338C30.8656 31.3978 30.5637 31.7355 30.2901 32.0438L34.7776 36.0266ZM35.6492 35.0526C38.4138 31.9876 43.1167 26.9988 48.5631 22.1497C54.0537 17.2611 60.1041 12.6931 65.5693 10.2854C71.1376 7.83239 74.9497 8.05105 77.4269 10.5894C78.8179 12.0146 80.1434 14.4667 81.0255 18.5281C81.9047 22.5761 82.2994 28.0241 81.9902 35.1996L87.9847 35.4579C88.3069 27.9797 87.9145 21.9772 86.8888 17.2547C85.8661 12.5456 84.1691 8.90716 81.7209 6.39865C76.5197 1.06938 69.3865 2.04739 63.1504 4.79465C56.8112 7.58734 50.1979 12.6606 44.5732 17.6684C38.9043 22.7157 34.0403 27.8782 31.1939 31.0338L35.6492 35.0526ZM81.9902 35.1996C81.5693 44.9674 79.6214 50.6821 77.1863 53.818C74.9212 56.7349 71.9987 57.7199 68.4081 57.4022C64.6383 57.0687 60.2506 55.279 55.7126 52.6176C51.2222 49.9842 46.8271 46.643 43.0875 43.4886L39.2189 48.0749C43.1062 51.3538 47.7883 54.9261 52.6773 57.7933C57.5188 60.6325 62.8129 62.9306 67.8793 63.3789C73.1249 63.843 78.1931 62.304 81.9252 57.498C85.4873 52.9109 87.5432 45.7038 87.9847 35.4579L81.9902 35.1996ZM60.1781 50.5147C55.3637 48.0334 50.4172 44.3978 46.1608 40.8456L42.3164 45.4522C46.73 49.1356 52.0597 53.0805 57.4292 55.848L60.1781 50.5147ZM72.2692 52.903C70.3435 53.9031 66.5029 53.7746 60.1781 50.5147L57.4292 55.848C64.0189 59.2444 70.3089 60.6821 75.0347 58.2276L72.2692 52.903ZM77.9939 35.0274C77.4115 48.5444 73.9111 52.0502 72.2692 52.903L75.0347 58.2276C79.7173 55.7955 83.3865 49.2525 83.9884 35.2857L77.9939 35.0274ZM76.7507 17.8952C77.7575 21.4925 78.3406 26.9813 77.9939 35.0274L83.9884 35.2857C84.3491 26.9147 83.7731 20.7241 82.5286 16.2779L76.7507 17.8952ZM74.0323 12.9453C74.5264 13.254 75.7499 14.3198 76.7507 17.8952L82.5286 16.2779C81.2836 11.83 79.3986 9.22307 77.2111 7.85655L74.0323 12.9453ZM70.6049 12.78C72.6575 12.3308 73.5841 12.6653 74.0323 12.9452L77.2111 7.85655C75.0324 6.49552 72.3712 6.25144 69.3222 6.91873L70.6049 12.78ZM62.6494 16.3747C65.7889 14.4326 68.4807 13.2449 70.6049 12.78L69.3222 6.91873C66.2711 7.58647 62.9235 9.14992 59.4929 11.2721L62.6494 16.3747ZM44.6095 31.4111C49.7985 26.1976 56.3913 20.2461 62.6494 16.3747L59.4929 11.2721C52.6339 15.5153 45.6494 21.861 40.3569 27.1785L44.6095 31.4111ZM38.4616 37.9069C39.9544 36.2472 42.0771 33.9555 44.6095 31.4111L40.3569 27.1785C37.7389 29.8088 35.546 32.1763 34.0006 33.8945L38.4616 37.9069ZM42.9676 38.0894C41.1102 36.4333 39.5284 34.9308 38.3301 33.7573L34.1321 38.0441C35.3857 39.2717 37.0362 40.8395 38.9746 42.5678L42.9676 38.0894ZM39.0804 42.6578C39.153 42.7167 39.2245 42.7749 39.2949 42.8323L43.0867 38.1823C43.0128 38.1221 42.9378 38.0611 42.8618 37.9994L39.0804 42.6578ZM39.2949 42.8323C41.1126 44.3145 42.2165 45.3 42.2722 45.3498L46.2722 40.8778C46.1636 40.7805 44.9892 39.7337 43.0866 38.1823L39.2949 42.8323ZM42.2738 45.3513L42.2764 45.3536L46.2732 40.8787L46.2706 40.8763L42.2738 45.3513ZM42.2559 40.8971L42.254 40.8989L46.2918 45.3369L46.2937 45.3352L42.2559 40.8971ZM42.2549 40.898C42.251 40.9016 42.2416 40.9101 42.227 40.9233L46.2503 45.3745C46.2697 45.3569 46.2833 45.3446 46.2909 45.3377L42.2549 40.898ZM46.2811 40.8857L46.2789 40.8837L42.2707 45.3485L42.2729 45.3504L46.2811 40.8857ZM41.2799 42.9849L41.2798 42.9889L47.2742 43.2472L47.2744 43.2432L41.2799 42.9849ZM46.2934 45.3355L46.2957 45.3333L42.2586 40.8947L42.2563 40.8968L46.2934 45.3355ZM36.1879 40.7975C35.2734 41.537 34.2064 42.3752 33.0245 43.2611L36.623 48.0622C37.871 47.1268 38.9963 46.2427 39.9605 45.463L36.1879 40.7975ZM33.4636 43.3306C34.4731 44.0985 35.391 44.8212 36.1925 45.4667L39.956 40.7938C39.116 40.1173 38.1542 39.3599 37.0958 38.555L33.4636 43.3306ZM20.0356 34.743C24.785 37.081 29.6632 40.4401 33.4636 43.3306L37.0958 38.555C33.1636 35.5642 27.9345 31.9438 22.6855 29.3599L20.0356 34.743ZM10.1581 32.1449C10.7771 31.973 11.9103 31.9288 13.6861 32.3382C15.4198 32.7379 17.5517 33.5203 20.0356 34.743L22.6855 29.3599C19.9224 27.9997 17.3447 27.0243 15.034 26.4916C12.7654 25.9686 10.5194 25.8173 8.55206 26.3639L10.1581 32.1449ZM9.19005 32.9705C9.40302 32.6134 9.57674 32.4476 9.68712 32.3632C9.79436 32.2813 9.93075 32.2081 10.1581 32.1449L8.55206 26.3639C6.73365 26.869 5.18926 27.9648 4.03672 29.8976L9.19005 32.9705ZM7.89628 39.0445C8.04645 35.5596 8.70822 33.7786 9.19005 32.9705L4.03672 29.8976C2.86748 31.8584 2.07681 34.7257 1.90184 38.7862L7.89628 39.0445ZM10.6327 52.831C10.0209 52.4379 7.42425 49.9991 7.89628 39.0445L1.90184 38.7862C1.41148 50.1661 3.90246 55.6383 7.38922 57.8788L10.6327 52.831ZM19.1571 51.6179C13.9272 53.7985 11.4658 53.3663 10.6327 52.831L7.38922 57.8788C10.9098 60.141 15.9563 59.4531 21.4661 57.1558L19.1571 51.6179ZM33.0245 43.2611C28.9753 46.296 23.9106 49.6359 19.1571 51.6179L21.4661 57.1558C26.8982 54.8908 32.4275 51.2068 36.623 48.0622L33.0245 43.2611Z" fill="#7513A4" mask="url(#path-5-inside-1_2345_5523)"/>
</svg>
