<svg width="26" height="26" viewBox="0 0 26 26" fill="none" xmlns="http://www.w3.org/2000/svg">
<path d="M22.8117 7.77925C22.8217 8.00805 22.8217 8.22645 22.8217 8.45525C22.8317 15.3921 17.7352 23.4001 8.41505 23.4001C5.66615 23.4001 2.96741 22.5785 0.649902 21.0393C1.0512 21.0913 1.4525 21.1121 1.8538 21.1121C4.13118 21.1121 6.34836 20.3217 8.14418 18.8553C5.97716 18.8137 4.07098 17.3473 3.40884 15.2049C4.17131 15.3609 4.95384 15.3297 5.69625 15.1113C3.33861 14.6329 1.64312 12.4801 1.63309 9.97365C1.63309 9.95285 1.63309 9.93205 1.63309 9.91125C2.33536 10.3169 3.12793 10.5457 3.93053 10.5665C1.71335 9.02725 1.0211 5.95924 2.36546 3.55683C4.94381 6.84324 8.73609 8.82965 12.8093 9.04805C12.398 7.22805 12.9598 5.31444 14.274 4.02484C16.3106 2.03843 19.521 2.14243 21.4473 4.25364C22.5809 4.02484 23.6745 3.58803 24.6677 2.97443C24.2865 4.19124 23.4939 5.22084 22.4405 5.87604C23.4437 5.75124 24.4269 5.47044 25.3499 5.05444C24.6677 6.11524 23.8049 7.03045 22.8117 7.77925Z" fill="#1D9BF0"/>
</svg>
