<svg width="3" height="10" viewBox="0 0 3 10" fill="none" xmlns="http://www.w3.org/2000/svg">
<path d="M0.969 6.471C0.925667 6.03767 0.882333 5.59567 0.839 5.145C0.795667 4.68567 0.752333 4.24367 0.709 3.819C0.674333 3.39433 0.644 3.00433 0.618 2.649C0.592 2.285 0.570333 1.973 0.553 1.713C0.544333 1.44433 0.54 1.24933 0.54 1.128V0.556H2.945V1.128C2.945 1.24933 2.93633 1.44433 2.919 1.713C2.91033 1.973 2.893 2.285 2.867 2.649C2.841 3.00433 2.80633 3.39433 2.763 3.819C2.72833 4.24367 2.68933 4.68567 2.646 5.145C2.60267 5.59567 2.55933 6.03767 2.516 6.471H0.969ZM0.631 9.5V7.615H2.854V9.5H0.631Z" fill="white"/>
</svg>
