<svg width="12" height="12" viewBox="0 0 12 12" fill="none" xmlns="http://www.w3.org/2000/svg">
<path d="M0.0140019 2.01136C0.128272 1.10527 1.30277 -0.126188 2.23488 0.0104573L2.23339 0.00896381C3.14051 0.181793 3.85858 1.74715 4.26349 2.45102C4.55039 2.96171 4.36409 3.47914 4.09649 3.69748C3.7355 3.98919 3.17099 4.39171 3.28943 4.79586C3.49999 5.51433 5.99999 8.02084 7.22959 8.73339C7.69499 9.00309 8.03249 8.29174 8.32069 7.92729C8.53009 7.64697 9.04658 7.47943 9.55478 7.75615C10.3138 8.1993 11.0288 8.71434 11.69 9.29415C12.0202 9.57086 12.0977 9.97983 11.8689 10.412C11.4659 11.1733 10.3003 12.1772 9.45418 11.9732C7.97639 11.617 2 9.29414 0.0803317 2.56467C-0.0276281 2.24632 -0.000448076 2.12596 0.0140019 2.01136Z" fill="#F6F6F6"/>
</svg>
