<svg width="22" height="23" viewBox="0 0 22 23" fill="none" xmlns="http://www.w3.org/2000/svg">
<path fill-rule="evenodd" clip-rule="evenodd" d="M11 22.2256C9.7764 22.2256 9.0994 22.093 8 21.7205L5.89443 22.7841C4.56462 23.4558 3 22.4789 3 20.9768V18.6897C0.84655 16.6611 0 14.3221 0 11.1128C0 4.97538 4.92487 0 11 0C17.0751 0 22 4.97538 22 11.1128C22 17.2502 17.0751 22.2256 11 22.2256ZM5 17.8111L4.36395 17.2119C2.69087 15.6359 2 13.8739 2 11.1128C2 6.09127 6.02944 2.02051 11 2.02051C15.9706 2.02051 20 6.09127 20 11.1128C20 16.1344 15.9706 20.2051 11 20.2051C10.0143 20.2051 9.552 20.1152 8.63595 19.8048L7.84847 19.538L5 20.9768V17.8111Z" fill="#F6F6F6"/>
</svg>
