<svg width="32" height="32" viewBox="0 0 32 32" fill="none" xmlns="http://www.w3.org/2000/svg">
<path d="M31.3409 8.3058C30.9719 6.93513 29.8911 5.85441 28.5205 5.48538C26.0164 4.80005 15.9999 4.80005 15.9999 4.80005C15.9999 4.80005 5.9835 4.80005 3.47939 5.45902C2.13508 5.82805 1.028 6.93513 0.658976 8.3058C0 10.8099 0 16.0026 0 16.0026C0 16.0026 0 21.2217 0.658976 23.6995C1.028 25.0701 2.10872 26.1509 3.47939 26.5199C6.00986 27.2052 15.9999 27.2052 15.9999 27.2052C15.9999 27.2052 26.0164 27.2052 28.5205 26.5462C29.8911 26.1772 30.9719 25.0965 31.3409 23.7258C31.9999 21.2217 31.9999 16.029 31.9999 16.029C31.9999 16.029 32.0262 10.8099 31.3409 8.3058Z" fill="#FF0000"/>
<path d="M12.8105 20.8L21.14 16.0027L12.8105 11.2053V20.8Z" fill="white"/>
</svg>
